[
  {"start": 4.567, "duration": 2.700, "pitch": 48, "velocity": 90},
  {"start": 4.567, "duration": 2.700, "pitch": 55, "velocity": 90},
  {"start": 4.567, "duration": 2.700, "pitch": 60, "velocity": 90},
  {"start": 4.567, "duration": 2.700, "pitch": 63, "velocity": 90},
  {"start": 4.567, "duration": 2.700, "pitch": 67, "velocity": 90},
  {"start": 7.623, "duration": 3.555, "pitch": 41, "velocity": 90},
  {"start": 7.623, "duration": 3.555, "pitch": 48, "velocity": 90},
  {"start": 7.623, "duration": 3.555, "pitch": 53, "velocity": 90},
  {"start": 7.623, "duration": 3.555, "pitch": 56, "velocity": 90},
  {"start": 7.623, "duration": 3.555, "pitch": 60, "velocity": 90},
  {"start": 12.839, "duration": 2.661, "pitch": 43, "velocity": 90},
  {"start": 12.839, "duration": 2.661, "pitch": 50, "velocity": 90},
  {"start": 12.839, "duration": 2.661, "pitch": 55, "velocity": 90},
  {"start": 12.839, "duration": 2.661, "pitch": 59, "velocity": 90},
  {"start": 12.839, "duration": 2.661, "pitch": 62, "velocity": 90},
  {"start": 16.271, "duration": 3.384, "pitch": 44, "velocity": 90},
  {"start": 16.271, "duration": 3.384, "pitch": 51, "velocity": 90},
  {"start": 16.271, "duration": 3.384, "pitch": 56, "velocity": 90},
  {"start": 16.271, "duration": 3.384, "pitch": 60, "velocity": 90},
  {"start": 16.271, "duration": 3.384, "pitch": 63, "velocity": 90},
  {"start": 20.938, "duration": 0.497, "pitch": 48, "velocity": 90},
  {"start": 20.938, "duration": 0.142, "pitch": 63, "velocity": 90},
  {"start": 21.138, "duration": 0.142, "pitch": 67, "velocity": 90},
  {"start": 21.337, "duration": 0.142, "pitch": 72, "velocity": 90},
  {"start": 21.479, "duration": 0.497, "pitch": 55, "velocity": 90},
  {"start": 21.536, "duration": 0.142, "pitch": 75, "velocity": 90},
  {"start": 21.735, "duration": 0.142, "pitch": 79, "velocity": 90},
  {"start": 21.935, "duration": 0.142, "pitch": 84, "velocity": 90},
  {"start": 22.034, "duration": 0.497, "pitch": 60, "velocity": 90},
  {"start": 22.133, "duration": 0.142, "pitch": 87, "velocity": 90},
  {"start": 22.332, "duration": 0.142, "pitch": 91, "velocity": 90},
  {"start": 22.531, "duration": 0.142, "pitch": 96, "velocity": 90},
  {"start": 23.011, "duration": 0.142, "pitch": 91, "velocity": 90},
  {"start": 23.210, "duration": 0.142, "pitch": 87, "velocity": 90},
  {"start": 23.409, "duration": 0.142, "pitch": 84, "velocity": 90},
  {"start": 23.608, "duration": 0.142, "pitch": 79, "velocity": 90},
  {"start": 23.807, "duration": 0.142, "pitch": 75, "velocity": 90},
  {"start": 24.006, "duration": 0.142, "pitch": 72, "velocity": 90},
  {"start": 24.205, "duration": 0.142, "pitch": 67, "velocity": 90},
  {"start": 24.404, "duration": 0.142, "pitch": 63, "velocity": 90},
  {"start": 24.722, "duration": 0.497, "pitch": 41, "velocity": 90},
  {"start": 24.722, "duration": 0.142, "pitch": 56, "velocity": 90},
  {"start": 24.921, "duration": 0.142, "pitch": 60, "velocity": 90},
  {"start": 25.120, "duration": 0.142, "pitch": 65, "velocity": 90},
  {"start": 25.262, "duration": 0.497, "pitch": 48, "velocity": 90},
  {"start": 25.319, "duration": 0.142, "pitch": 68, "velocity": 90},
  {"start": 25.518, "duration": 0.142, "pitch": 72, "velocity": 90},
  {"start": 25.718, "duration": 0.142, "pitch": 77, "velocity": 90},
  {"start": 25.817, "duration": 0.497, "pitch": 53, "velocity": 90},
  {"start": 25.916, "duration": 0.142, "pitch": 80, "velocity": 90},
  {"start": 26.115, "duration": 0.142, "pitch": 84, "velocity": 90},
  {"start": 26.314, "duration": 0.142, "pitch": 89, "velocity": 90},
  {"start": 26.794, "duration": 0.142, "pitch": 84, "velocity": 90},
  {"start": 26.993, "duration": 0.142, "pitch": 80, "velocity": 90},
  {"start": 27.192, "duration": 0.142, "pitch": 77, "velocity": 90},
  {"start": 27.391, "duration": 0.142, "pitch": 72, "velocity": 90},
  {"start": 27.590, "duration": 0.142, "pitch": 68, "velocity": 90},
  {"start": 27.789, "duration": 0.142, "pitch": 65, "velocity": 90},
  {"start": 27.988, "duration": 0.142, "pitch": 60, "velocity": 90},
  {"start": 28.187, "duration": 0.142, "pitch": 56, "velocity": 90},
  {"start": 28.505, "duration": 0.497, "pitch": 43, "velocity": 90},
  {"start": 28.505, "duration": 0.142, "pitch": 59, "velocity": 90},
  {"start": 28.705, "duration": 0.142, "pitch": 62, "velocity": 90},
  {"start": 28.904, "duration": 0.142, "pitch": 67, "velocity": 90},
  {"start": 29.046, "duration": 0.497, "pitch": 50, "velocity": 90},
  {"start": 29.103, "duration": 0.142, "pitch": 71, "velocity": 90},
  {"start": 29.302, "duration": 0.142, "pitch": 74, "velocity": 90},
  {"start": 29.501, "duration": 0.142, "pitch": 79, "velocity": 90},
  {"start": 29.600, "duration": 0.497, "pitch": 55, "velocity": 90},
  {"start": 29.700, "duration": 0.142, "pitch": 83, "velocity": 90},
  {"start": 29.899, "duration": 0.142, "pitch": 86, "velocity": 90},
  {"start": 30.098, "duration": 0.142, "pitch": 91, "velocity": 90},
  {"start": 30.578, "duration": 0.142, "pitch": 86, "velocity": 90},
  {"start": 30.777, "duration": 0.142, "pitch": 83, "velocity": 90},
  {"start": 30.976, "duration": 0.142, "pitch": 79, "velocity": 90},
  {"start": 31.175, "duration": 0.142, "pitch": 74, "velocity": 90},
  {"start": 31.374, "duration": 0.142, "pitch": 71, "velocity": 90},
  {"start": 31.573, "duration": 0.142, "pitch": 67, "velocity": 90},
  {"start": 31.772, "duration": 0.142, "pitch": 62, "velocity": 90},
  {"start": 31.971, "duration": 0.142, "pitch": 59, "velocity": 90},
  {"start": 32.289, "duration": 0.497, "pitch": 44, "velocity": 90},
  {"start": 32.289, "duration": 0.142, "pitch": 60, "velocity": 90},
  {"start": 32.488, "duration": 0.142, "pitch": 63, "velocity": 90},
  {"start": 32.688, "duration": 0.142, "pitch": 68, "velocity": 90},
  {"start": 32.830, "duration": 0.497, "pitch": 51, "velocity": 90},
  {"start": 32.887, "duration": 0.142, "pitch": 72, "velocity": 90},
  {"start": 33.086, "duration": 0.142, "pitch": 75, "velocity": 90},
  {"start": 33.285, "duration": 0.142, "pitch": 80, "velocity": 90},
  {"start": 33.384, "duration": 0.497, "pitch": 56, "velocity": 90},
  {"start": 33.484, "duration": 0.142, "pitch": 84, "velocity": 90},
  {"start": 33.683, "duration": 0.142, "pitch": 87, "velocity": 90},
  {"start": 33.882, "duration": 0.142, "pitch": 92, "velocity": 90},
  {"start": 34.362, "duration": 0.142, "pitch": 87, "velocity": 90},
  {"start": 34.561, "duration": 0.142, "pitch": 84, "velocity": 90},
  {"start": 34.760, "duration": 0.142, "pitch": 80, "velocity": 90},
  {"start": 34.959, "duration": 0.142, "pitch": 75, "velocity": 90},
  {"start": 35.158, "duration": 0.142, "pitch": 72, "velocity": 90},
  {"start": 35.357, "duration": 0.142, "pitch": 68, "velocity": 90},
  {"start": 35.556, "duration": 0.142, "pitch": 63, "velocity": 90},
  {"start": 35.755, "duration": 0.142, "pitch": 60, "velocity": 90},
  {"start": 39.487, "duration": 0.200, "pitch": 63, "velocity": 90},
  {"start": 39.687, "duration": 0.200, "pitch": 67, "velocity": 90},
  {"start": 39.886, "duration": 0.200, "pitch": 63, "velocity": 90},
  {"start": 40.086, "duration": 0.200, "pitch": 67, "velocity": 90},
  {"start": 40.285, "duration": 0.200, "pitch": 72, "velocity": 90},
  {"start": 40.485, "duration": 0.200, "pitch": 75, "velocity": 90},
  {"start": 40.684, "duration": 0.200, "pitch": 72, "velocity": 90},
  {"start": 40.884, "duration": 0.200, "pitch": 67, "velocity": 90},
  {"start": 41.083, "duration": 0.200, "pitch": 63, "velocity": 90},
  {"start": 41.482, "duration": 0.497, "pitch": 48, "velocity": 90},
  {"start": 41.482, "duration": 0.200, "pitch": 75, "velocity": 90},
  {"start": 41.681, "duration": 0.200, "pitch": 79, "velocity": 90},
  {"start": 41.881, "duration": 0.200, "pitch": 75, "velocity": 90},
  {"start": 42.080, "duration": 0.200, "pitch": 79, "velocity": 90},
  {"start": 42.180, "duration": 0.497, "pitch": 55, "velocity": 90},
  {"start": 42.279, "duration": 0.200, "pitch": 84, "velocity": 90},
  {"start": 42.478, "duration": 0.200, "pitch": 87, "velocity": 90},
  {"start": 42.678, "duration": 0.200, "pitch": 84, "velocity": 90},
  {"start": 42.877, "duration": 0.200, "pitch": 79, "velocity": 90},
  {"start": 43.076, "duration": 0.200, "pitch": 75, "velocity": 90},
  {"start": 43.176, "duration": 0.497, "pitch": 60, "velocity": 90},
  {"start": 43.874, "duration": 0.200, "pitch": 56, "velocity": 90},
  {"start": 44.073, "duration": 0.200, "pitch": 60, "velocity": 90},
  {"start": 44.273, "duration": 0.200, "pitch": 56, "velocity": 90},
  {"start": 44.472, "duration": 0.200, "pitch": 60, "velocity": 90},
  {"start": 44.671, "duration": 0.200, "pitch": 65, "velocity": 90},
  {"start": 44.870, "duration": 0.200, "pitch": 68, "velocity": 90},
  {"start": 45.070, "duration": 0.200, "pitch": 65, "velocity": 90},
  {"start": 45.269, "duration": 0.200, "pitch": 60, "velocity": 90},
  {"start": 45.468, "duration": 0.200, "pitch": 56, "velocity": 90},
  {"start": 45.867, "duration": 0.497, "pitch": 41, "velocity": 90},
  {"start": 45.867, "duration": 0.200, "pitch": 68, "velocity": 90},
  {"start": 46.066, "duration": 0.200, "pitch": 72, "velocity": 90},
  {"start": 46.266, "duration": 0.200, "pitch": 68, "velocity": 90},
  {"start": 46.465, "duration": 0.200, "pitch": 72, "velocity": 90},
  {"start": 46.564, "duration": 0.497, "pitch": 48, "velocity": 90},
  {"start": 46.664, "duration": 0.200, "pitch": 77, "velocity": 90},
  {"start": 46.863, "duration": 0.200, "pitch": 80, "velocity": 90},
  {"start": 47.062, "duration": 0.200, "pitch": 77, "velocity": 90},
  {"start": 47.261, "duration": 0.200, "pitch": 72, "velocity": 90},
  {"start": 47.461, "duration": 0.200, "pitch": 68, "velocity": 90},
  {"start": 47.560, "duration": 0.497, "pitch": 53, "velocity": 90},
  {"start": 48.258, "duration": 0.200, "pitch": 59, "velocity": 90},
  {"start": 48.457, "duration": 0.200, "pitch": 62, "velocity": 90},
  {"start": 48.657, "duration": 0.200, "pitch": 59, "velocity": 90},
  {"start": 48.856, "duration": 0.200, "pitch": 62, "velocity": 90},
  {"start": 49.055, "duration": 0.200, "pitch": 67, "velocity": 90},
  {"start": 49.254, "duration": 0.200, "pitch": 71, "velocity": 90},
  {"start": 49.454, "duration": 0.200, "pitch": 67, "velocity": 90},
  {"start": 49.653, "duration": 0.200, "pitch": 62, "velocity": 90},
  {"start": 49.852, "duration": 0.200, "pitch": 59, "velocity": 90},
  {"start": 50.251, "duration": 0.497, "pitch": 43, "velocity": 90},
  {"start": 50.251, "duration": 0.200, "pitch": 71, "velocity": 90},
  {"start": 50.450, "duration": 0.200, "pitch": 74, "velocity": 90},
  {"start": 50.650, "duration": 0.200, "pitch": 71, "velocity": 90},
  {"start": 50.849, "duration": 0.200, "pitch": 74, "velocity": 90},
  {"start": 50.948, "duration": 0.497, "pitch": 50, "velocity": 90},
  {"start": 51.048, "duration": 0.200, "pitch": 79, "velocity": 90},
  {"start": 51.247, "duration": 0.200, "pitch": 83, "velocity": 90},
  {"start": 51.446, "duration": 0.200, "pitch": 79, "velocity": 90},
  {"start": 51.645, "duration": 0.200, "pitch": 74, "velocity": 90},
  {"start": 51.845, "duration": 0.200, "pitch": 71, "velocity": 90},
  {"start": 51.944, "duration": 0.497, "pitch": 55, "velocity": 90},
  {"start": 52.642, "duration": 0.200, "pitch": 60, "velocity": 90},
  {"start": 52.841, "duration": 0.200, "pitch": 63, "velocity": 90},
  {"start": 53.041, "duration": 0.200, "pitch": 60, "velocity": 90},
  {"start": 53.240, "duration": 0.200, "pitch": 63, "velocity": 90},
  {"start": 53.439, "duration": 0.200, "pitch": 68, "velocity": 90},
  {"start": 53.638, "duration": 0.200, "pitch": 72, "velocity": 90},
  {"start": 53.838, "duration": 0.200, "pitch": 68, "velocity": 90},
  {"start": 54.037, "duration": 0.200, "pitch": 63, "velocity": 90},
  {"start": 54.236, "duration": 0.200, "pitch": 60, "velocity": 90},
  {"start": 54.635, "duration": 0.497, "pitch": 44, "velocity": 90},
  {"start": 54.635, "duration": 0.200, "pitch": 72, "velocity": 90},
  {"start": 54.834, "duration": 0.200, "pitch": 75, "velocity": 90},
  {"start": 55.034, "duration": 0.200, "pitch": 72, "velocity": 90},
  {"start": 55.233, "duration": 0.200, "pitch": 75, "velocity": 90},
  {"start": 55.332, "duration": 0.497, "pitch": 51, "velocity": 90},
  {"start": 55.432, "duration": 0.200, "pitch": 80, "velocity": 90},
  {"start": 55.631, "duration": 0.200, "pitch": 84, "velocity": 90},
  {"start": 55.830, "duration": 0.200, "pitch": 80, "velocity": 90},
  {"start": 56.029, "duration": 0.200, "pitch": 75, "velocity": 90},
  {"start": 56.229, "duration": 0.200, "pitch": 72, "velocity": 90},
  {"start": 56.328, "duration": 0.497, "pitch": 56, "velocity": 90},
  {"start": 57.026, "duration": 0.497, "pitch": 48, "velocity": 90},
  {"start": 57.026, "duration": 0.200, "pitch": 63, "velocity": 90},
  {"start": 57.225, "duration": 0.200, "pitch": 67, "velocity": 90},
  {"start": 57.424, "duration": 0.200, "pitch": 72, "velocity": 90},
  {"start": 57.624, "duration": 0.200, "pitch": 75, "velocity": 90},
  {"start": 57.723, "duration": 0.497, "pitch": 55, "velocity": 90},
  {"start": 57.823, "duration": 0.200, "pitch": 79, "velocity": 90},
  {"start": 58.022, "duration": 0.200, "pitch": 84, "velocity": 90},
  {"start": 58.221, "duration": 0.200, "pitch": 87, "velocity": 90},
  {"start": 58.420, "duration": 0.200, "pitch": 91, "velocity": 90},
  {"start": 58.619, "duration": 0.200, "pitch": 96, "velocity": 90},
  {"start": 58.719, "duration": 0.497, "pitch": 60, "velocity": 90},
  {"start": 59.417, "duration": 0.200, "pitch": 68, "velocity": 90},
  {"start": 59.616, "duration": 0.200, "pitch": 72, "velocity": 90},
  {"start": 59.815, "duration": 0.200, "pitch": 77, "velocity": 90},
  {"start": 60.014, "duration": 0.200, "pitch": 80, "velocity": 90},
  {"start": 60.114, "duration": 0.497, "pitch": 41, "velocity": 90},
  {"start": 60.213, "duration": 0.200, "pitch": 84, "velocity": 90},
  {"start": 60.412, "duration": 0.200, "pitch": 89, "velocity": 90},
  {"start": 60.611, "duration": 0.200, "pitch": 92, "velocity": 90},
  {"start": 60.811, "duration": 0.200, "pitch": 96, "velocity": 90},
  {"start": 61.010, "duration": 0.200, "pitch": 101, "velocity": 90},
  {"start": 61.109, "duration": 0.497, "pitch": 48, "velocity": 90},
  {"start": 61.508, "duration": 0.497, "pitch": 53, "velocity": 90},
  {"start": 61.807, "duration": 0.200, "pitch": 71, "velocity": 90},
  {"start": 62.006, "duration": 0.200, "pitch": 74, "velocity": 90},
  {"start": 62.205, "duration": 0.200, "pitch": 79, "velocity": 90},
  {"start": 62.404, "duration": 0.200, "pitch": 83, "velocity": 90},
  {"start": 62.504, "duration": 0.497, "pitch": 43, "velocity": 90},
  {"start": 62.603, "duration": 0.200, "pitch": 86, "velocity": 90},
  {"start": 62.802, "duration": 0.200, "pitch": 91, "velocity": 90},
  {"start": 63.001, "duration": 0.200, "pitch": 95, "velocity": 90},
  {"start": 63.201, "duration": 0.200, "pitch": 98, "velocity": 90},
  {"start": 63.400, "duration": 0.200, "pitch": 103, "velocity": 90},
  {"start": 63.500, "duration": 0.497, "pitch": 50, "velocity": 90},
  {"start": 63.899, "duration": 0.497, "pitch": 55, "velocity": 90},
  {"start": 64.198, "duration": 0.200, "pitch": 72, "velocity": 90},
  {"start": 64.397, "duration": 0.200, "pitch": 75, "velocity": 90},
  {"start": 64.596, "duration": 0.200, "pitch": 80, "velocity": 90},
  {"start": 64.795, "duration": 0.200, "pitch": 84, "velocity": 90},
  {"start": 64.895, "duration": 0.497, "pitch": 44, "velocity": 90},
  {"start": 64.994, "duration": 0.200, "pitch": 87, "velocity": 90},
  {"start": 65.193, "duration": 0.200, "pitch": 92, "velocity": 90},
  {"start": 65.393, "duration": 0.200, "pitch": 96, "velocity": 90},
  {"start": 65.592, "duration": 0.200, "pitch": 99, "velocity": 90},
  {"start": 65.791, "duration": 0.200, "pitch": 104, "velocity": 90},
  {"start": 65.890, "duration": 0.497, "pitch": 51, "velocity": 90},
  {"start": 66.289, "duration": 0.497, "pitch": 56, "velocity": 90},
  {"start": 66.987, "duration": 0.200, "pitch": 63, "velocity": 90},
  {"start": 67.186, "duration": 0.200, "pitch": 67, "velocity": 90},
  {"start": 67.386, "duration": 0.200, "pitch": 72, "velocity": 90},
  {"start": 67.585, "duration": 0.200, "pitch": 75, "velocity": 90},
  {"start": 67.784, "duration": 0.200, "pitch": 79, "velocity": 90},
  {"start": 67.983, "duration": 0.200, "pitch": 84, "velocity": 90},
  {"start": 68.183, "duration": 0.200, "pitch": 87, "velocity": 90},
  {"start": 68.382, "duration": 0.200, "pitch": 91, "velocity": 90},
  {"start": 68.581, "duration": 0.200, "pitch": 96, "velocity": 90},
  {"start": 68.780, "duration": 0.200, "pitch": 91, "velocity": 90},
  {"start": 68.979, "duration": 0.200, "pitch": 87, "velocity": 90},
  {"start": 69.179, "duration": 0.200, "pitch": 84, "velocity": 90},
  {"start": 69.378, "duration": 0.200, "pitch": 79, "velocity": 90},
  {"start": 69.577, "duration": 0.200, "pitch": 75, "velocity": 90},
  {"start": 69.776, "duration": 0.200, "pitch": 72, "velocity": 90},
  {"start": 69.975, "duration": 0.200, "pitch": 67, "velocity": 90},
  {"start": 70.175, "duration": 0.200, "pitch": 63, "velocity": 90},
  {"start": 70.374, "duration": 0.200, "pitch": 68, "velocity": 90},
  {"start": 70.573, "duration": 0.200, "pitch": 72, "velocity": 90},
  {"start": 70.772, "duration": 0.200, "pitch": 77, "velocity": 90},
  {"start": 70.971, "duration": 0.200, "pitch": 80, "velocity": 90},
  {"start": 71.171, "duration": 0.200, "pitch": 84, "velocity": 90},
  {"start": 71.370, "duration": 0.200, "pitch": 89, "velocity": 90},
  {"start": 71.569, "duration": 0.200, "pitch": 92, "velocity": 90},
  {"start": 71.768, "duration": 0.200, "pitch": 96, "velocity": 90},
  {"start": 71.967, "duration": 0.200, "pitch": 101, "velocity": 90},
  {"start": 72.167, "duration": 0.200, "pitch": 96, "velocity": 90},
  {"start": 72.366, "duration": 0.200, "pitch": 92, "velocity": 90},
  {"start": 72.565, "duration": 0.200, "pitch": 89, "velocity": 90},
  {"start": 72.764, "duration": 0.200, "pitch": 84, "velocity": 90},
  {"start": 72.964, "duration": 0.200, "pitch": 80, "velocity": 90},
  {"start": 73.163, "duration": 0.200, "pitch": 77, "velocity": 90},
  {"start": 73.362, "duration": 0.200, "pitch": 72, "velocity": 90},
  {"start": 73.561, "duration": 0.200, "pitch": 68, "velocity": 90},
  {"start": 73.760, "duration": 0.200, "pitch": 71, "velocity": 90},
  {"start": 73.960, "duration": 0.200, "pitch": 74, "velocity": 90},
  {"start": 74.159, "duration": 0.200, "pitch": 79, "velocity": 90},
  {"start": 74.358, "duration": 0.200, "pitch": 83, "velocity": 90},
  {"start": 74.557, "duration": 0.200, "pitch": 86, "velocity": 90},
  {"start": 74.756, "duration": 0.200, "pitch": 91, "velocity": 90},
  {"start": 74.956, "duration": 0.200, "pitch": 95, "velocity": 90},
  {"start": 75.155, "duration": 0.200, "pitch": 98, "velocity": 90},
  {"start": 75.354, "duration": 0.200, "pitch": 103, "velocity": 90},
  {"start": 75.553, "duration": 0.200, "pitch": 98, "velocity": 90},
  {"start": 75.752, "duration": 0.200, "pitch": 95, "velocity": 90},
  {"start": 75.952, "duration": 0.200, "pitch": 91, "velocity": 90},
  {"start": 76.151, "duration": 0.200, "pitch": 86, "velocity": 90},
  {"start": 76.350, "duration": 0.200, "pitch": 83, "velocity": 90},
  {"start": 76.549, "duration": 0.200, "pitch": 79, "velocity": 90},
  {"start": 76.748, "duration": 0.200, "pitch": 74, "velocity": 90},
  {"start": 76.948, "duration": 0.200, "pitch": 71, "velocity": 90},
  {"start": 77.147, "duration": 0.200, "pitch": 72, "velocity": 90},
  {"start": 77.346, "duration": 0.200, "pitch": 75, "velocity": 90},
  {"start": 77.545, "duration": 0.200, "pitch": 80, "velocity": 90},
  {"start": 77.745, "duration": 0.200, "pitch": 84, "velocity": 90},
  {"start": 77.944, "duration": 0.200, "pitch": 87, "velocity": 90},
  {"start": 78.143, "duration": 0.200, "pitch": 92, "velocity": 90},
  {"start": 78.342, "duration": 0.200, "pitch": 96, "velocity": 90},
  {"start": 78.541, "duration": 0.200, "pitch": 99, "velocity": 90},
  {"start": 78.741, "duration": 0.200, "pitch": 104, "velocity": 90},
  {"start": 78.940, "duration": 0.200, "pitch": 99, "velocity": 90},
  {"start": 79.139, "duration": 0.200, "pitch": 96, "velocity": 90},
  {"start": 79.338, "duration": 0.200, "pitch": 92, "velocity": 90},
  {"start": 79.537, "duration": 0.200, "pitch": 87, "velocity": 90},
  {"start": 79.737, "duration": 0.200, "pitch": 84, "velocity": 90},
  {"start": 79.936, "duration": 0.200, "pitch": 80, "velocity": 90},
  {"start": 80.135, "duration": 0.200, "pitch": 75, "velocity": 90},
  {"start": 80.334, "duration": 0.200, "pitch": 72, "velocity": 90},
  {"start": 83.439, "duration": 0.376, "pitch": 63, "velocity": 90},
  {"start": 83.439, "duration": 0.897, "pitch": 48, "velocity": 90},
  {"start": 83.815, "duration": 0.376, "pitch": 67, "velocity": 90},
  {"start": 84.191, "duration": 0.376, "pitch": 72, "velocity": 90},
  {"start": 84.335, "duration": 0.897, "pitch": 55, "velocity": 90},
  {"start": 84.567, "duration": 0.376, "pitch": 75, "velocity": 90},
  {"start": 84.943, "duration": 0.376, "pitch": 79, "velocity": 90},
  {"start": 85.233, "duration": 0.897, "pitch": 60, "velocity": 90},
  {"start": 85.319, "duration": 0.376, "pitch": 84, "velocity": 90},
  {"start": 85.695, "duration": 0.376, "pitch": 87, "velocity": 90},
  {"start": 86.071, "duration": 0.376, "pitch": 91, "velocity": 90},
  {"start": 86.129, "duration": 0.897, "pitch": 48, "velocity": 90},
  {"start": 86.447, "duration": 0.376, "pitch": 96, "velocity": 90},
  {"start": 87.027, "duration": 0.897, "pitch": 55, "velocity": 90},
  {"start": 87.403, "duration": 0.376, "pitch": 91, "velocity": 90},
  {"start": 87.779, "duration": 0.376, "pitch": 87, "velocity": 90},
  {"start": 87.923, "duration": 0.897, "pitch": 60, "velocity": 90},
  {"start": 88.155, "duration": 0.376, "pitch": 84, "velocity": 90},
  {"start": 88.531, "duration": 0.376, "pitch": 79, "velocity": 90},
  {"start": 88.907, "duration": 0.376, "pitch": 75, "velocity": 90},
  {"start": 89.283, "duration": 0.376, "pitch": 72, "velocity": 90},
  {"start": 89.659, "duration": 0.376, "pitch": 67, "velocity": 90},
  {"start": 90.035, "duration": 0.376, "pitch": 63, "velocity": 90},
  {"start": 90.222, "duration": 0.897, "pitch": 41, "velocity": 90},
  {"start": 90.411, "duration": 0.376, "pitch": 56, "velocity": 90},
  {"start": 90.787, "duration": 0.376, "pitch": 60, "velocity": 90},
  {"start": 91.119, "duration": 0.897, "pitch": 48, "velocity": 90},
  {"start": 91.163, "duration": 0.376, "pitch": 65, "velocity": 90},
  {"start": 91.539, "duration": 0.376, "pitch": 68, "velocity": 90},
  {"start": 91.915, "duration": 0.376, "pitch": 72, "velocity": 90},
  {"start": 92.016, "duration": 0.897, "pitch": 53, "velocity": 90},
  {"start": 92.291, "duration": 0.376, "pitch": 77, "velocity": 90},
  {"start": 92.667, "duration": 0.376, "pitch": 80, "velocity": 90},
  {"start": 93.043, "duration": 0.376, "pitch": 84, "velocity": 90},
  {"start": 93.113, "duration": 0.897, "pitch": 41, "velocity": 90},
  {"start": 93.419, "duration": 0.376, "pitch": 89, "velocity": 90},
  {"start": 94.010, "duration": 0.897, "pitch": 48, "velocity": 90},
  {"start": 94.195, "duration": 0.376, "pitch": 84, "velocity": 90},
  {"start": 94.571, "duration": 0.376, "pitch": 80, "velocity": 90},
  {"start": 94.910, "duration": 0.897, "pitch": 53, "velocity": 90},
  {"start": 94.947, "duration": 0.376, "pitch": 77, "velocity": 90},
  {"start": 95.323, "duration": 0.376, "pitch": 72, "velocity": 90},
  {"start": 95.699, "duration": 0.376, "pitch": 68, "velocity": 90},
  {"start": 96.075, "duration": 0.376, "pitch": 65, "velocity": 90},
  {"start": 96.451, "duration": 0.376, "pitch": 60, "velocity": 90},
  {"start": 96.827, "duration": 0.376, "pitch": 56, "velocity": 90},
  {"start": 97.009, "duration": 0.897, "pitch": 43, "velocity": 90},
  {"start": 97.203, "duration": 0.376, "pitch": 59, "velocity": 90},
  {"start": 97.579, "duration": 0.376, "pitch": 62, "velocity": 90},
  {"start": 97.906, "duration": 0.897, "pitch": 50, "velocity": 90},
  {"start": 97.955, "duration": 0.376, "pitch": 67, "velocity": 90},
  {"start": 98.331, "duration": 0.376, "pitch": 71, "velocity": 90},
  {"start": 98.707, "duration": 0.376, "pitch": 74, "velocity": 90},
  {"start": 98.802, "duration": 0.897, "pitch": 55, "velocity": 90},
  {"start": 99.083, "duration": 0.376, "pitch": 79, "velocity": 90},
  {"start": 99.459, "duration": 0.376, "pitch": 83, "velocity": 90},
  {"start": 99.835, "duration": 0.376, "pitch": 86, "velocity": 90},
  {"start": 99.899, "duration": 0.897, "pitch": 43, "velocity": 90},
  {"start": 100.211, "duration": 0.376, "pitch": 91, "velocity": 90},
  {"start": 100.796, "duration": 0.897, "pitch": 50, "velocity": 90},
  {"start": 100.991, "duration": 0.376, "pitch": 86, "velocity": 90},
  {"start": 101.367, "duration": 0.376, "pitch": 83, "velocity": 90},
  {"start": 101.693, "duration": 0.897, "pitch": 55, "velocity": 90},
  {"start": 101.743, "duration": 0.376, "pitch": 79, "velocity": 90},
  {"start": 102.119, "duration": 0.376, "pitch": 74, "velocity": 90},
  {"start": 102.495, "duration": 0.376, "pitch": 71, "velocity": 90},
  {"start": 102.871, "duration": 0.376, "pitch": 67, "velocity": 90},
  {"start": 103.247, "duration": 0.376, "pitch": 62, "velocity": 90},
  {"start": 103.623, "duration": 0.376, "pitch": 59, "velocity": 90},
  {"start": 103.796, "duration": 0.897, "pitch": 44, "velocity": 90},
  {"start": 103.999, "duration": 0.376, "pitch": 60, "velocity": 90},
  {"start": 104.375, "duration": 0.376, "pitch": 63, "velocity": 90},
  {"start": 104.693, "duration": 0.897, "pitch": 51, "velocity": 90},
  {"start": 104.751, "duration": 0.376, "pitch": 68, "velocity": 90},
  {"start": 105.127, "duration": 0.376, "pitch": 72, "velocity": 90},
  {"start": 105.503, "duration": 0.376, "pitch": 75, "velocity": 90},
  {"start": 105.590, "duration": 0.897, "pitch": 56, "velocity": 90},
  {"start": 105.879, "duration": 0.376, "pitch": 80, "velocity": 90},
  {"start": 106.255, "duration": 0.376, "pitch": 84, "velocity": 90},
  {"start": 106.631, "duration": 0.376, "pitch": 87, "velocity": 90},
  {"start": 106.687, "duration": 0.897, "pitch": 44, "velocity": 90},
  {"start": 106.999, "duration": 0.376, "pitch": 92, "velocity": 90},
  {"start": 107.587, "duration": 0.897, "pitch": 51, "velocity": 90},
  {"start": 107.775, "duration": 0.376, "pitch": 87, "velocity": 90},
  {"start": 108.151, "duration": 0.376, "pitch": 84, "velocity": 90},
  {"start": 108.487, "duration": 0.897, "pitch": 56, "velocity": 90},
  {"start": 108.527, "duration": 0.376, "pitch": 80, "velocity": 90},
  {"start": 108.903, "duration": 0.376, "pitch": 75, "velocity": 90},
  {"start": 109.279, "duration": 0.376, "pitch": 72, "velocity": 90},
  {"start": 109.655, "duration": 0.376, "pitch": 68, "velocity": 90},
  {"start": 110.031, "duration": 0.376, "pitch": 63, "velocity": 90},
  {"start": 110.407, "duration": 0.376, "pitch": 60, "velocity": 90},
  {"start": 110.583, "duration": 1.793, "pitch": 48, "velocity": 90},
  {"start": 110.779, "duration": 0.376, "pitch": 63, "velocity": 90},
  {"start": 111.155, "duration": 0.376, "pitch": 67, "velocity": 90},
  {"start": 111.531, "duration": 0.376, "pitch": 72, "velocity": 90},
  {"start": 111.907, "duration": 0.376, "pitch": 75, "velocity": 90},
  {"start": 112.283, "duration": 0.376, "pitch": 79, "velocity": 90},
  {"start": 112.376, "duration": 1.793, "pitch": 55, "velocity": 90},
  {"start": 112.659, "duration": 0.376, "pitch": 84, "velocity": 90},
  {"start": 113.035, "duration": 0.376, "pitch": 87, "velocity": 90},
  {"start": 113.411, "duration": 0.376, "pitch": 91, "velocity": 90},
  {"start": 113.787, "duration": 0.376, "pitch": 96, "velocity": 90},
  {"start": 114.163, "duration": 1.793, "pitch": 60, "velocity": 90},
  {"start": 114.163, "duration": 0.376, "pitch": 91, "velocity": 90},
  {"start": 114.539, "duration": 0.376, "pitch": 87, "velocity": 90},
  {"start": 114.915, "duration": 0.376, "pitch": 84, "velocity": 90},
  {"start": 115.291, "duration": 0.376, "pitch": 79, "velocity": 90},
  {"start": 115.667, "duration": 0.376, "pitch": 75, "velocity": 90},
  {"start": 116.043, "duration": 0.376, "pitch": 72, "velocity": 90},
  {"start": 116.419, "duration": 0.376, "pitch": 67, "velocity": 90},
  {"start": 116.795, "duration": 0.376, "pitch": 63, "velocity": 90},
  {"start": 117.171, "duration": 0.376, "pitch": 56, "velocity": 90},
  {"start": 117.371, "duration": 1.793, "pitch": 41, "velocity": 90},
  {"start": 117.547, "duration": 0.376, "pitch": 60, "velocity": 90},
  {"start": 117.923, "duration": 0.376, "pitch": 65, "velocity": 90},
  {"start": 118.299, "duration": 0.376, "pitch": 68, "velocity": 90},
  {"start": 118.675, "duration": 0.376, "pitch": 72, "velocity": 90},
  {"start": 118.964, "duration": 1.793, "pitch": 48, "velocity": 90},
  {"start": 119.051, "duration": 0.376, "pitch": 77, "velocity": 90},
  {"start": 119.427, "duration": 0.376, "pitch": 80, "velocity": 90},
  {"start": 119.803, "duration": 0.376, "pitch": 84, "velocity": 90},
  {"start": 120.179, "duration": 0.376, "pitch": 89, "velocity": 90},
  {"start": 120.555, "duration": 0.376, "pitch": 84, "velocity": 90},
  {"start": 120.757, "duration": 1.793, "pitch": 53, "velocity": 90},
  {"start": 120.931, "duration": 0.376, "pitch": 80, "velocity": 90},
  {"start": 121.307, "duration": 0.376, "pitch": 77, "velocity": 90},
  {"start": 121.683, "duration": 0.376, "pitch": 72, "velocity": 90},
  {"start": 122.059, "duration": 0.376, "pitch": 68, "velocity": 90},
  {"start": 122.435, "duration": 0.376, "pitch": 65, "velocity": 90},
  {"start": 122.811, "duration": 0.376, "pitch": 60, "velocity": 90},
  {"start": 123.187, "duration": 0.376, "pitch": 56, "velocity": 90},
  {"start": 123.563, "duration": 0.376, "pitch": 59, "velocity": 90},
  {"start": 123.752, "duration": 1.793, "pitch": 43, "velocity": 90},
  {"start": 123.939, "duration": 0.376, "pitch": 62, "velocity": 90},
  {"start": 124.315, "duration": 0.376, "pitch": 67, "velocity": 90},
  {"start": 124.691, "duration": 0.376, "pitch": 71, "velocity": 90},
  {"start": 125.067, "duration": 0.376, "pitch": 74, "velocity": 90},
  {"start": 125.443, "duration": 0.376, "pitch": 79, "velocity": 90},
  {"start": 125.545, "duration": 1.793, "pitch": 50, "velocity": 90},
  {"start": 125.819, "duration": 0.376, "pitch": 83, "velocity": 90},
  {"start": 126.195, "duration": 0.376, "pitch": 86, "velocity": 90},
  {"start": 126.571, "duration": 0.376, "pitch": 91, "velocity": 90},
  {"start": 126.947, "duration": 0.376, "pitch": 86, "velocity": 90},
  {"start": 127.323, "duration": 0.376, "pitch": 83, "velocity": 90},
  {"start": 127.338, "duration": 1.793, "pitch": 55, "velocity": 90},
  {"start": 127.699, "duration": 0.376, "pitch": 79, "velocity": 90},
  {"start": 128.075, "duration": 0.376, "pitch": 74, "velocity": 90},
  {"start": 128.451, "duration": 0.376, "pitch": 71, "velocity": 90},
  {"start": 128.827, "duration": 0.376, "pitch": 67, "velocity": 90},
  {"start": 129.203, "duration": 0.376, "pitch": 62, "velocity": 90},
  {"start": 129.579, "duration": 0.376, "pitch": 59, "velocity": 90},
  {"start": 129.955, "duration": 0.376, "pitch": 60, "velocity": 90},
  {"start": 130.134, "duration": 1.793, "pitch": 44, "velocity": 90},
  {"start": 130.331, "duration": 0.376, "pitch": 63, "velocity": 90},
  {"start": 130.707, "duration": 0.376, "pitch": 68, "velocity": 90},
  {"start": 131.083, "duration": 0.376, "pitch": 72, "velocity": 90},
  {"start": 131.459, "duration": 0.376, "pitch": 75, "velocity": 90},
  {"start": 131.835, "duration": 0.376, "pitch": 80, "velocity": 90},
  {"start": 131.927, "duration": 1.793, "pitch": 51, "velocity": 90},
  {"start": 132.211, "duration": 0.376, "pitch": 84, "velocity": 90},
  {"start": 132.587, "duration": 0.376, "pitch": 87, "velocity": 90},
  {"start": 132.963, "duration": 0.376, "pitch": 92, "velocity": 90},
  {"start": 133.339, "duration": 0.376, "pitch": 87, "velocity": 90},
  {"start": 133.715, "duration": 0.376, "pitch": 84, "velocity": 90},
  {"start": 133.721, "duration": 1.793, "pitch": 56, "velocity": 90},
  {"start": 134.091, "duration": 0.376, "pitch": 80, "velocity": 90},
  {"start": 134.467, "duration": 0.376, "pitch": 75, "velocity": 90},
  {"start": 134.843, "duration": 0.376, "pitch": 72, "velocity": 90},
  {"start": 135.219, "duration": 0.376, "pitch": 68, "velocity": 90},
  {"start": 135.595, "duration": 0.376, "pitch": 63, "velocity": 90},
  {"start": 135.971, "duration": 0.376, "pitch": 60, "velocity": 90},
  {"start": 136.347, "duration": 0.376, "pitch": 63, "velocity": 90},
  {"start": 136.518, "duration": 1.793, "pitch": 48, "velocity": 90},
  {"start": 136.723, "duration": 0.376, "pitch": 67, "velocity": 90},
  {"start": 137.099, "duration": 0.376, "pitch": 72, "velocity": 90},
  {"start": 137.475, "duration": 0.376, "pitch": 75, "velocity": 90},
  {"start": 137.851, "duration": 0.376, "pitch": 79, "velocity": 90},
  {"start": 138.227, "duration": 0.376, "pitch": 84, "velocity": 90},
  {"start": 138.311, "duration": 1.793, "pitch": 55, "velocity": 90},
  {"start": 138.603, "duration": 0.376, "pitch": 87, "velocity": 90},
  {"start": 138.979, "duration": 0.376, "pitch": 91, "velocity": 90},
  {"start": 139.355, "duration": 0.376, "pitch": 96, "velocity": 90},
  {"start": 139.731, "duration": 0.376, "pitch": 91, "velocity": 90},
  {"start": 140.107, "duration": 0.376, "pitch": 87, "velocity": 90},
  {"start": 140.104, "duration": 1.793, "pitch": 60, "velocity": 90},
  {"start": 140.483, "duration": 0.376, "pitch": 84, "velocity": 90},
  {"start": 140.859, "duration": 0.376, "pitch": 79, "velocity": 90},
  {"start": 141.235, "duration": 0.376, "pitch": 75, "velocity": 90},
  {"start": 141.611, "duration": 0.376, "pitch": 72, "velocity": 90},
  {"start": 141.987, "duration": 0.376, "pitch": 67, "velocity": 90},
  {"start": 142.363, "duration": 0.376, "pitch": 63, "velocity": 90},
  {"start": 142.739, "duration": 0.376, "pitch": 56, "velocity": 90},
  {"start": 142.901, "duration": 1.793, "pitch": 41, "velocity": 90},
  {"start": 143.115, "duration": 0.376, "pitch": 60, "velocity": 90},
  {"start": 143.491, "duration": 0.376, "pitch": 65, "velocity": 90},
  {"start": 143.867, "duration": 0.376, "pitch": 68, "velocity": 90},
  {"start": 144.243, "duration": 0.376, "pitch": 72, "velocity": 90},
  {"start": 144.619, "duration": 0.376, "pitch": 77, "velocity": 90},
  {"start": 144.694, "duration": 1.793, "pitch": 48, "velocity": 90},
  {"start": 144.995, "duration": 0.376, "pitch": 80, "velocity": 90},
  {"start": 145.371, "duration": 0.376, "pitch": 84, "velocity": 90},
  {"start": 145.747, "duration": 0.376, "pitch": 89, "velocity": 90},
  {"start": 146.123, "duration": 0.376, "pitch": 84, "velocity": 90},
  {"start": 146.488, "duration": 1.793, "pitch": 53, "velocity": 90},
  {"start": 146.499, "duration": 0.376, "pitch": 80, "velocity": 90},
  {"start": 146.875, "duration": 0.376, "pitch": 77, "velocity": 90},
  {"start": 147.251, "duration": 0.376, "pitch": 72, "velocity": 90},
  {"start": 147.627, "duration": 0.376, "pitch": 68, "velocity": 90},
  {"start": 148.003, "duration": 0.376, "pitch": 65, "velocity": 90},
  {"start": 148.379, "duration": 0.376, "pitch": 60, "velocity": 90},
  {"start": 148.755, "duration": 0.376, "pitch": 56, "velocity": 90},
  {"start": 149.131, "duration": 0.376, "pitch": 59, "velocity": 90},
  {"start": 149.282, "duration": 1.793, "pitch": 43, "velocity": 90},
  {"start": 149.507, "duration": 0.376, "pitch": 62, "velocity": 90},
  {"start": 149.883, "duration": 0.376, "pitch": 67, "velocity": 90},
  {"start": 150.259, "duration": 0.376, "pitch": 71, "velocity": 90},
  {"start": 150.635, "duration": 0.376, "pitch": 74, "velocity": 90},
  {"start": 151.011, "duration": 0.376, "pitch": 79, "velocity": 90},
  {"start": 151.076, "duration": 1.793, "pitch": 50, "velocity": 90},
  {"start": 151.387, "duration": 0.376, "pitch": 83, "velocity": 90},
  {"start": 151.763, "duration": 0.376, "pitch": 86, "velocity": 90},
  {"start": 152.139, "duration": 0.376, "pitch": 91, "velocity": 90},
  {"start": 152.515, "duration": 0.376, "pitch": 86, "velocity": 90},
  {"start": 152.891, "duration": 0.376, "pitch": 83, "velocity": 90},
  {"start": 152.869, "duration": 1.793, "pitch": 55, "velocity": 90},
  {"start": 153.267, "duration": 0.376, "pitch": 79, "velocity": 90},
  {"start": 153.643, "duration": 0.376, "pitch": 74, "velocity": 90},
  {"start": 154.019, "duration": 0.376, "pitch": 71, "velocity": 90},
  {"start": 154.395, "duration": 0.376, "pitch": 67, "velocity": 90},
  {"start": 154.771, "duration": 0.376, "pitch": 62, "velocity": 90},
  {"start": 155.147, "duration": 0.376, "pitch": 59, "velocity": 90},
  {"start": 155.523, "duration": 0.376, "pitch": 60, "velocity": 90},
  {"start": 155.678, "duration": 1.793, "pitch": 44, "velocity": 90},
  {"start": 155.899, "duration": 0.376, "pitch": 63, "velocity": 90},
  {"start": 156.275, "duration": 0.376, "pitch": 68, "velocity": 90},
  {"start": 156.651, "duration": 0.376, "pitch": 72, "velocity": 90},
  {"start": 157.027, "duration": 0.376, "pitch": 75, "velocity": 90},
  {"start": 157.403, "duration": 0.376, "pitch": 80, "velocity": 90},
  {"start": 157.472, "duration": 1.793, "pitch": 51, "velocity": 90},
  {"start": 157.779, "duration": 0.376, "pitch": 84, "velocity": 90},
  {"start": 158.155, "duration": 0.376, "pitch": 87, "velocity": 90},
  {"start": 158.531, "duration": 0.376, "pitch": 92, "velocity": 90},
  {"start": 158.907, "duration": 0.376, "pitch": 87, "velocity": 90},
  {"start": 159.283, "duration": 0.376, "pitch": 84, "velocity": 90},
  {"start": 159.265, "duration": 1.793, "pitch": 56, "velocity": 90},
  {"start": 159.659, "duration": 0.376, "pitch": 80, "velocity": 90},
  {"start": 160.035, "duration": 0.376, "pitch": 75, "velocity": 90},
  {"start": 160.411, "duration": 0.376, "pitch": 72, "velocity": 90},
  {"start": 160.787, "duration": 0.376, "pitch": 68, "velocity": 90},
  {"start": 161.163, "duration": 0.376, "pitch": 63, "velocity": 90},
  {"start": 161.539, "duration": 0.376, "pitch": 60, "velocity": 90}
]