{
 "cells": [
  {
   "cell_type": "code",
   "execution_count": 1,
   "id": "a2e452e0-4dac-43fd-97aa-0ab30e3f82f0",
   "metadata": {},
   "outputs": [
    {
     "name": "stdout",
     "output_type": "stream",
     "text": [
      "pygame 2.6.1 (SDL 2.28.4, Python 3.10.14)\n",
      "Hello from the pygame community. https://www.pygame.org/contribute.html\n"
     ]
    }
   ],
   "source": [
    "import pygame\n",
    "import pygame.midi\n",
    "import mido\n",
    "import sys\n",
    "import time\n",
    "import numpy as np\n",
    "from collections import defaultdict\n",
    "import sounddevice as sd\n",
    "import soundfile as sf\n",
    "import argparse\n",
    "import os\n"
   ]
  },
  {
   "cell_type": "code",
   "execution_count": 4,
   "id": "5500354c-8c1e-4421-ae0d-d0da78537175",
   "metadata": {},
   "outputs": [],
   "source": [
    "import pandas as pd"
   ]
  },
  {
   "cell_type": "code",
   "execution_count": 2,
   "id": "bfb02b47-abbd-4d17-9003-922462d9e022",
   "metadata": {},
   "outputs": [],
   "source": [
    "midi_file = mido.MidiFile(\"./Midi_files/avengers.mid\")"
   ]
  },
  {
   "cell_type": "code",
   "execution_count": 5,
   "id": "f1ee8678-0684-48ee-a703-fa1a1ad64491",
   "metadata": {},
   "outputs": [
    {
     "data": {
      "text/html": [
       "<div>\n",
       "<style scoped>\n",
       "    .dataframe tbody tr th:only-of-type {\n",
       "        vertical-align: middle;\n",
       "    }\n",
       "\n",
       "    .dataframe tbody tr th {\n",
       "        vertical-align: top;\n",
       "    }\n",
       "\n",
       "    .dataframe thead th {\n",
       "        text-align: right;\n",
       "    }\n",
       "</style>\n",
       "<table border=\"1\" class=\"dataframe\">\n",
       "  <thead>\n",
       "    <tr style=\"text-align: right;\">\n",
       "      <th></th>\n",
       "      <th>0</th>\n",
       "    </tr>\n",
       "  </thead>\n",
       "  <tbody>\n",
       "    <tr>\n",
       "      <th>0</th>\n",
       "      <td>MetaMessage('time_signature', numerator=4, den...</td>\n",
       "    </tr>\n",
       "    <tr>\n",
       "      <th>1</th>\n",
       "      <td>MetaMessage('set_tempo', tempo=500000, time=0)</td>\n",
       "    </tr>\n",
       "    <tr>\n",
       "      <th>2</th>\n",
       "      <td>MetaMessage('track_name', name='Elec. Piano (C...</td>\n",
       "    </tr>\n",
       "    <tr>\n",
       "      <th>3</th>\n",
       "      <td>program_change channel=0 program=0 time=0</td>\n",
       "    </tr>\n",
       "    <tr>\n",
       "      <th>4</th>\n",
       "      <td>note_on channel=0 note=55 velocity=50 time=0</td>\n",
       "    </tr>\n",
       "    <tr>\n",
       "      <th>...</th>\n",
       "      <td>...</td>\n",
       "    </tr>\n",
       "    <tr>\n",
       "      <th>2384</th>\n",
       "      <td>note_off channel=0 note=76 velocity=0 time=0</td>\n",
       "    </tr>\n",
       "    <tr>\n",
       "      <th>2385</th>\n",
       "      <td>note_off channel=0 note=64 velocity=0 time=0</td>\n",
       "    </tr>\n",
       "    <tr>\n",
       "      <th>2386</th>\n",
       "      <td>note_off channel=0 note=24 velocity=0 time=0</td>\n",
       "    </tr>\n",
       "    <tr>\n",
       "      <th>2387</th>\n",
       "      <td>note_off channel=0 note=36 velocity=0 time=0</td>\n",
       "    </tr>\n",
       "    <tr>\n",
       "      <th>2388</th>\n",
       "      <td>MetaMessage('end_of_track', time=0)</td>\n",
       "    </tr>\n",
       "  </tbody>\n",
       "</table>\n",
       "<p>2389 rows × 1 columns</p>\n",
       "</div>"
      ],
      "text/plain": [
       "                                                      0\n",
       "0     MetaMessage('time_signature', numerator=4, den...\n",
       "1        MetaMessage('set_tempo', tempo=500000, time=0)\n",
       "2     MetaMessage('track_name', name='Elec. Piano (C...\n",
       "3             program_change channel=0 program=0 time=0\n",
       "4          note_on channel=0 note=55 velocity=50 time=0\n",
       "...                                                 ...\n",
       "2384       note_off channel=0 note=76 velocity=0 time=0\n",
       "2385       note_off channel=0 note=64 velocity=0 time=0\n",
       "2386       note_off channel=0 note=24 velocity=0 time=0\n",
       "2387       note_off channel=0 note=36 velocity=0 time=0\n",
       "2388                MetaMessage('end_of_track', time=0)\n",
       "\n",
       "[2389 rows x 1 columns]"
      ]
     },
     "execution_count": 5,
     "metadata": {},
     "output_type": "execute_result"
    }
   ],
   "source": [
    "pd.DataFrame(midi_file)"
   ]
  },
  {
   "cell_type": "code",
   "execution_count": 29,
   "id": "6a2ec453-7b9e-4940-b2e8-09ad2f212c45",
   "metadata": {},
   "outputs": [
    {
     "data": {
      "text/plain": [
       "{'type': 'note_on', 'time': 0, 'note': 55, 'velocity': 50, 'channel': 0}"
      ]
     },
     "execution_count": 29,
     "metadata": {},
     "output_type": "execute_result"
    }
   ],
   "source": [
    "midi_file.tracks[0][4].dict()"
   ]
  },
  {
   "cell_type": "code",
   "execution_count": 26,
   "id": "d272901c-ce0e-4060-bce0-588544362707",
   "metadata": {},
   "outputs": [
    {
     "data": {
      "text/plain": [
       "{'type': 'note_on', 'time': 0, 'note': 67, 'velocity': 50, 'channel': 0}"
      ]
     },
     "execution_count": 26,
     "metadata": {},
     "output_type": "execute_result"
    }
   ],
   "source": [
    "midi_file.tracks[0][5].dict()"
   ]
  },
  {
   "cell_type": "code",
   "execution_count": 27,
   "id": "30a22c28-efe8-4389-8d10-9679c30b08de",
   "metadata": {},
   "outputs": [
    {
     "data": {
      "text/plain": [
       "MidiFile(type=0, ticks_per_beat=384, tracks=[\n",
       "  MidiTrack([\n",
       "    MetaMessage('time_signature', numerator=4, denominator=4, clocks_per_click=24, notated_32nd_notes_per_beat=8, time=0),\n",
       "    MetaMessage('set_tempo', tempo=500000, time=0),\n",
       "    MetaMessage('track_name', name='Elec. Piano (Classic)', time=0),\n",
       "    Message('program_change', channel=0, program=0, time=0),\n",
       "    Message('note_on', channel=0, note=55, velocity=50, time=0),\n",
       "    Message('note_on', channel=0, note=67, velocity=50, time=0),\n",
       "    Message('note_on', channel=0, note=43, velocity=50, time=0),\n",
       "    Message('note_on', channel=0, note=50, velocity=50, time=0),\n",
       "    Message('note_off', channel=0, note=50, velocity=0, time=96),\n",
       "    Message('note_off', channel=0, note=43, velocity=0, time=0),\n",
       "    Message('note_off', channel=0, note=67, velocity=0, time=0),\n",
       "    Message('note_off', channel=0, note=55, velocity=0, time=0),\n",
       "    Message('note_on', channel=0, note=50, velocity=50, time=0),\n",
       "    Message('note_on', channel=0, note=43, velocity=50, time=0),\n",
       "    Message('note_off', channel=0, note=43, velocity=0, time=96),\n",
       "    Message('note_off', channel=0, note=50, velocity=0, time=0),\n",
       "    Message('note_on', channel=0, note=50, velocity=50, time=0),\n",
       "    Message('note_on', channel=0, note=43, velocity=50, time=0),\n",
       "    Message('note_off', channel=0, note=43, velocity=0, time=96),\n",
       "    Message('note_off', channel=0, note=50, velocity=0, time=0),\n",
       "    Message('note_on', channel=0, note=50, velocity=50, time=288),\n",
       "    Message('note_on', channel=0, note=43, velocity=50, time=0),\n",
       "    Message('note_off', channel=0, note=43, velocity=0, time=96),\n",
       "    Message('note_off', channel=0, note=50, velocity=0, time=0),\n",
       "    Message('note_on', channel=0, note=50, velocity=50, time=0),\n",
       "    Message('note_on', channel=0, note=43, velocity=50, time=0),\n",
       "    Message('note_off', channel=0, note=43, velocity=0, time=96),\n",
       "    Message('note_off', channel=0, note=50, velocity=0, time=0),\n",
       "    Message('note_on', channel=0, note=50, velocity=50, time=0),\n",
       "    Message('note_on', channel=0, note=43, velocity=50, time=0),\n",
       "    Message('note_off', channel=0, note=43, velocity=0, time=96),\n",
       "    Message('note_off', channel=0, note=50, velocity=0, time=0),\n",
       "    Message('note_on', channel=0, note=50, velocity=50, time=288),\n",
       "    Message('note_on', channel=0, note=43, velocity=50, time=0),\n",
       "    Message('note_off', channel=0, note=43, velocity=0, time=96),\n",
       "    Message('note_off', channel=0, note=50, velocity=0, time=0),\n",
       "    Message('note_on', channel=0, note=50, velocity=50, time=0),\n",
       "    Message('note_on', channel=0, note=43, velocity=50, time=0),\n",
       "    Message('note_off', channel=0, note=43, velocity=0, time=96),\n",
       "    Message('note_off', channel=0, note=50, velocity=0, time=0),\n",
       "    Message('note_on', channel=0, note=50, velocity=50, time=0),\n",
       "    Message('note_on', channel=0, note=43, velocity=50, time=0),\n",
       "    Message('note_off', channel=0, note=43, velocity=0, time=96),\n",
       "    Message('note_off', channel=0, note=50, velocity=0, time=0),\n",
       "    Message('note_on', channel=0, note=50, velocity=50, time=0),\n",
       "    Message('note_on', channel=0, note=43, velocity=50, time=0),\n",
       "    Message('note_off', channel=0, note=43, velocity=0, time=96),\n",
       "    Message('note_off', channel=0, note=50, velocity=0, time=0),\n",
       "    Message('note_on', channel=0, note=51, velocity=50, time=0),\n",
       "    Message('note_on', channel=0, note=43, velocity=50, time=0),\n",
       "    Message('note_off', channel=0, note=43, velocity=0, time=96),\n",
       "    Message('note_off', channel=0, note=51, velocity=0, time=0),\n",
       "    Message('note_on', channel=0, note=51, velocity=50, time=0),\n",
       "    Message('note_on', channel=0, note=43, velocity=50, time=0),\n",
       "    Message('note_off', channel=0, note=43, velocity=0, time=96),\n",
       "    Message('note_off', channel=0, note=51, velocity=0, time=0),\n",
       "    Message('note_on', channel=0, note=51, velocity=50, time=0),\n",
       "    Message('note_on', channel=0, note=43, velocity=50, time=0),\n",
       "    Message('note_off', channel=0, note=43, velocity=0, time=96),\n",
       "    Message('note_off', channel=0, note=51, velocity=0, time=0),\n",
       "    Message('note_on', channel=0, note=51, velocity=50, time=288),\n",
       "    Message('note_on', channel=0, note=43, velocity=50, time=0),\n",
       "    Message('note_off', channel=0, note=43, velocity=0, time=96),\n",
       "    Message('note_off', channel=0, note=51, velocity=0, time=0),\n",
       "    Message('note_on', channel=0, note=51, velocity=50, time=0),\n",
       "    Message('note_on', channel=0, note=43, velocity=50, time=0),\n",
       "    Message('note_off', channel=0, note=43, velocity=0, time=96),\n",
       "    Message('note_off', channel=0, note=51, velocity=0, time=0),\n",
       "    Message('note_on', channel=0, note=52, velocity=50, time=0),\n",
       "    Message('note_on', channel=0, note=43, velocity=50, time=0),\n",
       "    Message('note_off', channel=0, note=43, velocity=0, time=96),\n",
       "    Message('note_off', channel=0, note=52, velocity=0, time=0),\n",
       "    Message('note_on', channel=0, note=52, velocity=50, time=288),\n",
       "    Message('note_on', channel=0, note=43, velocity=50, time=0),\n",
       "    Message('note_off', channel=0, note=43, velocity=0, time=96),\n",
       "    Message('note_off', channel=0, note=52, velocity=0, time=0),\n",
       "    Message('note_on', channel=0, note=52, velocity=50, time=0),\n",
       "    Message('note_on', channel=0, note=43, velocity=50, time=0),\n",
       "    Message('note_off', channel=0, note=43, velocity=0, time=96),\n",
       "    Message('note_off', channel=0, note=52, velocity=0, time=0),\n",
       "    Message('note_on', channel=0, note=52, velocity=50, time=0),\n",
       "    Message('note_on', channel=0, note=43, velocity=50, time=0),\n",
       "    Message('note_off', channel=0, note=43, velocity=0, time=96),\n",
       "    Message('note_off', channel=0, note=52, velocity=0, time=0),\n",
       "    Message('note_on', channel=0, note=52, velocity=50, time=0),\n",
       "    Message('note_on', channel=0, note=43, velocity=50, time=0),\n",
       "    Message('note_off', channel=0, note=43, velocity=0, time=96),\n",
       "    Message('note_off', channel=0, note=52, velocity=0, time=0),\n",
       "    Message('note_on', channel=0, note=53, velocity=50, time=0),\n",
       "    Message('note_on', channel=0, note=43, velocity=50, time=0),\n",
       "    Message('note_off', channel=0, note=43, velocity=0, time=96),\n",
       "    Message('note_off', channel=0, note=53, velocity=0, time=0),\n",
       "    Message('note_on', channel=0, note=53, velocity=50, time=0),\n",
       "    Message('note_on', channel=0, note=43, velocity=50, time=0),\n",
       "    Message('note_off', channel=0, note=43, velocity=0, time=96),\n",
       "    Message('note_off', channel=0, note=53, velocity=0, time=0),\n",
       "    Message('note_on', channel=0, note=53, velocity=50, time=0),\n",
       "    Message('note_on', channel=0, note=43, velocity=50, time=0),\n",
       "    Message('note_off', channel=0, note=43, velocity=0, time=96),\n",
       "    Message('note_off', channel=0, note=53, velocity=0, time=0),\n",
       "    Message('note_on', channel=0, note=53, velocity=50, time=288),\n",
       "    Message('note_on', channel=0, note=43, velocity=50, time=0),\n",
       "    Message('note_off', channel=0, note=43, velocity=0, time=96),\n",
       "    Message('note_off', channel=0, note=53, velocity=0, time=0),\n",
       "    Message('note_on', channel=0, note=53, velocity=50, time=0),\n",
       "    Message('note_on', channel=0, note=43, velocity=50, time=0),\n",
       "    Message('note_off', channel=0, note=43, velocity=0, time=96),\n",
       "    Message('note_off', channel=0, note=53, velocity=0, time=0),\n",
       "    Message('note_on', channel=0, note=52, velocity=50, time=0),\n",
       "    Message('note_on', channel=0, note=43, velocity=50, time=0),\n",
       "    Message('note_off', channel=0, note=43, velocity=0, time=96),\n",
       "    Message('note_off', channel=0, note=52, velocity=0, time=0),\n",
       "    Message('note_on', channel=0, note=52, velocity=50, time=288),\n",
       "    Message('note_on', channel=0, note=43, velocity=50, time=0),\n",
       "    Message('note_off', channel=0, note=43, velocity=0, time=96),\n",
       "    Message('note_off', channel=0, note=52, velocity=0, time=0),\n",
       "    Message('note_on', channel=0, note=52, velocity=50, time=0),\n",
       "    Message('note_on', channel=0, note=43, velocity=50, time=0),\n",
       "    Message('note_off', channel=0, note=43, velocity=0, time=96),\n",
       "    Message('note_off', channel=0, note=52, velocity=0, time=0),\n",
       "    Message('note_on', channel=0, note=52, velocity=50, time=0),\n",
       "    Message('note_on', channel=0, note=43, velocity=50, time=0),\n",
       "    Message('note_off', channel=0, note=43, velocity=0, time=96),\n",
       "    Message('note_off', channel=0, note=52, velocity=0, time=0),\n",
       "    Message('note_on', channel=0, note=52, velocity=50, time=0),\n",
       "    Message('note_on', channel=0, note=43, velocity=50, time=0),\n",
       "    Message('note_off', channel=0, note=43, velocity=0, time=96),\n",
       "    Message('note_off', channel=0, note=52, velocity=0, time=0),\n",
       "    Message('note_on', channel=0, note=51, velocity=50, time=0),\n",
       "    Message('note_on', channel=0, note=43, velocity=50, time=0),\n",
       "    Message('note_off', channel=0, note=43, velocity=0, time=96),\n",
       "    Message('note_off', channel=0, note=51, velocity=0, time=0),\n",
       "    Message('note_on', channel=0, note=51, velocity=50, time=0),\n",
       "    Message('note_on', channel=0, note=43, velocity=50, time=0),\n",
       "    Message('note_off', channel=0, note=43, velocity=0, time=96),\n",
       "    Message('note_off', channel=0, note=51, velocity=0, time=0),\n",
       "    Message('note_on', channel=0, note=51, velocity=50, time=0),\n",
       "    Message('note_on', channel=0, note=43, velocity=50, time=0),\n",
       "    Message('note_off', channel=0, note=43, velocity=0, time=96),\n",
       "    Message('note_off', channel=0, note=51, velocity=0, time=0),\n",
       "    Message('note_on', channel=0, note=55, velocity=50, time=288),\n",
       "    Message('note_on', channel=0, note=43, velocity=50, time=0),\n",
       "    Message('note_off', channel=0, note=43, velocity=0, time=96),\n",
       "    Message('note_off', channel=0, note=55, velocity=0, time=0),\n",
       "    Message('note_on', channel=0, note=55, velocity=50, time=0),\n",
       "    Message('note_on', channel=0, note=43, velocity=50, time=0),\n",
       "    Message('note_off', channel=0, note=43, velocity=0, time=96),\n",
       "    Message('note_off', channel=0, note=55, velocity=0, time=0),\n",
       "    Message('note_on', channel=0, note=55, velocity=50, time=0),\n",
       "    Message('note_on', channel=0, note=58, velocity=50, time=0),\n",
       "    Message('note_on', channel=0, note=43, velocity=50, time=0),\n",
       "    Message('note_on', channel=0, note=39, velocity=50, time=0),\n",
       "    Message('note_off', channel=0, note=39, velocity=0, time=96),\n",
       "    Message('note_off', channel=0, note=43, velocity=0, time=0),\n",
       "    Message('note_off', channel=0, note=58, velocity=0, time=0),\n",
       "    Message('note_off', channel=0, note=55, velocity=0, time=0),\n",
       "    Message('note_on', channel=0, note=55, velocity=50, time=288),\n",
       "    Message('note_on', channel=0, note=60, velocity=50, time=0),\n",
       "    Message('note_on', channel=0, note=43, velocity=50, time=0),\n",
       "    Message('note_on', channel=0, note=38, velocity=50, time=0),\n",
       "    Message('note_off', channel=0, note=38, velocity=0, time=96),\n",
       "    Message('note_off', channel=0, note=43, velocity=0, time=0),\n",
       "    Message('note_off', channel=0, note=60, velocity=0, time=0),\n",
       "    Message('note_off', channel=0, note=55, velocity=0, time=0),\n",
       "    Message('note_on', channel=0, note=62, velocity=50, time=288),\n",
       "    Message('note_on', channel=0, note=55, velocity=50, time=0),\n",
       "    Message('note_on', channel=0, note=43, velocity=50, time=0),\n",
       "    Message('note_on', channel=0, note=31, velocity=50, time=0),\n",
       "    Message('note_off', channel=0, note=31, velocity=0, time=96),\n",
       "    Message('note_off', channel=0, note=43, velocity=0, time=0),\n",
       "    Message('note_off', channel=0, note=55, velocity=0, time=0),\n",
       "    Message('note_off', channel=0, note=62, velocity=0, time=0),\n",
       "    Message('note_on', channel=0, note=62, velocity=50, time=0),\n",
       "    Message('note_on', channel=0, note=55, velocity=50, time=0),\n",
       "    Message('note_off', channel=0, note=55, velocity=0, time=96),\n",
       "    Message('note_off', channel=0, note=62, velocity=0, time=0),\n",
       "    Message('note_on', channel=0, note=62, velocity=50, time=0),\n",
       "    Message('note_on', channel=0, note=55, velocity=50, time=0),\n",
       "    Message('note_off', channel=0, note=55, velocity=0, time=96),\n",
       "    Message('note_off', channel=0, note=62, velocity=0, time=0),\n",
       "    Message('note_on', channel=0, note=62, velocity=50, time=288),\n",
       "    Message('note_on', channel=0, note=55, velocity=50, time=0),\n",
       "    Message('note_on', channel=0, note=43, velocity=50, time=0),\n",
       "    Message('note_on', channel=0, note=50, velocity=50, time=0),\n",
       "    Message('note_off', channel=0, note=50, velocity=0, time=96),\n",
       "    Message('note_off', channel=0, note=43, velocity=0, time=0),\n",
       "    Message('note_off', channel=0, note=55, velocity=0, time=0),\n",
       "    Message('note_off', channel=0, note=62, velocity=0, time=0),\n",
       "    Message('note_on', channel=0, note=62, velocity=50, time=0),\n",
       "    Message('note_on', channel=0, note=55, velocity=50, time=0),\n",
       "    Message('note_on', channel=0, note=43, velocity=50, time=0),\n",
       "    Message('note_on', channel=0, note=50, velocity=50, time=0),\n",
       "    Message('note_off', channel=0, note=50, velocity=0, time=96),\n",
       "    Message('note_off', channel=0, note=43, velocity=0, time=0),\n",
       "    Message('note_off', channel=0, note=55, velocity=0, time=0),\n",
       "    Message('note_off', channel=0, note=62, velocity=0, time=0),\n",
       "    Message('note_on', channel=0, note=62, velocity=50, time=0),\n",
       "    Message('note_on', channel=0, note=55, velocity=50, time=0),\n",
       "    Message('note_on', channel=0, note=43, velocity=50, time=0),\n",
       "    Message('note_on', channel=0, note=50, velocity=50, time=0),\n",
       "    Message('note_off', channel=0, note=50, velocity=0, time=96),\n",
       "    Message('note_off', channel=0, note=43, velocity=0, time=0),\n",
       "    Message('note_off', channel=0, note=55, velocity=0, time=0),\n",
       "    Message('note_off', channel=0, note=62, velocity=0, time=0),\n",
       "    Message('note_on', channel=0, note=62, velocity=50, time=288),\n",
       "    Message('note_on', channel=0, note=55, velocity=50, time=0),\n",
       "    Message('note_on', channel=0, note=43, velocity=50, time=0),\n",
       "    Message('note_on', channel=0, note=50, velocity=50, time=0),\n",
       "    Message('note_off', channel=0, note=50, velocity=0, time=96),\n",
       "    Message('note_off', channel=0, note=43, velocity=0, time=0),\n",
       "    Message('note_off', channel=0, note=55, velocity=0, time=0),\n",
       "    Message('note_off', channel=0, note=62, velocity=0, time=0),\n",
       "    Message('note_on', channel=0, note=62, velocity=50, time=0),\n",
       "    Message('note_on', channel=0, note=55, velocity=50, time=0),\n",
       "    Message('note_off', channel=0, note=55, velocity=0, time=96),\n",
       "    Message('note_off', channel=0, note=62, velocity=0, time=0),\n",
       "    Message('note_on', channel=0, note=62, velocity=50, time=0),\n",
       "    Message('note_on', channel=0, note=55, velocity=50, time=0),\n",
       "    Message('note_off', channel=0, note=55, velocity=0, time=96),\n",
       "    Message('note_off', channel=0, note=62, velocity=0, time=0),\n",
       "    Message('note_on', channel=0, note=62, velocity=50, time=0),\n",
       "    Message('note_on', channel=0, note=55, velocity=50, time=0),\n",
       "    Message('note_off', channel=0, note=55, velocity=0, time=96),\n",
       "    Message('note_off', channel=0, note=62, velocity=0, time=0),\n",
       "    Message('note_on', channel=0, note=63, velocity=50, time=0),\n",
       "    Message('note_on', channel=0, note=55, velocity=50, time=0),\n",
       "    Message('note_on', channel=0, note=43, velocity=50, time=0),\n",
       "    Message('note_on', channel=0, note=31, velocity=50, time=0),\n",
       "    Message('note_off', channel=0, note=31, velocity=0, time=96),\n",
       "    Message('note_off', channel=0, note=43, velocity=0, time=0),\n",
       "    Message('note_off', channel=0, note=55, velocity=0, time=0),\n",
       "    Message('note_off', channel=0, note=63, velocity=0, time=0),\n",
       "    Message('note_on', channel=0, note=63, velocity=50, time=0),\n",
       "    Message('note_on', channel=0, note=55, velocity=50, time=0),\n",
       "    Message('note_off', channel=0, note=55, velocity=0, time=96),\n",
       "    Message('note_off', channel=0, note=63, velocity=0, time=0),\n",
       "    Message('note_on', channel=0, note=63, velocity=50, time=0),\n",
       "    Message('note_on', channel=0, note=55, velocity=50, time=0),\n",
       "    Message('note_off', channel=0, note=55, velocity=0, time=96),\n",
       "    Message('note_off', channel=0, note=63, velocity=0, time=0),\n",
       "    Message('note_on', channel=0, note=63, velocity=50, time=288),\n",
       "    Message('note_on', channel=0, note=55, velocity=50, time=0),\n",
       "    Message('note_on', channel=0, note=43, velocity=50, time=0),\n",
       "    Message('note_on', channel=0, note=51, velocity=50, time=0),\n",
       "    Message('note_off', channel=0, note=51, velocity=0, time=96),\n",
       "    Message('note_off', channel=0, note=43, velocity=0, time=0),\n",
       "    Message('note_off', channel=0, note=55, velocity=0, time=0),\n",
       "    Message('note_off', channel=0, note=63, velocity=0, time=0),\n",
       "    Message('note_on', channel=0, note=63, velocity=50, time=0),\n",
       "    Message('note_on', channel=0, note=55, velocity=50, time=0),\n",
       "    Message('note_on', channel=0, note=51, velocity=50, time=0),\n",
       "    Message('note_on', channel=0, note=43, velocity=50, time=0),\n",
       "    Message('note_off', channel=0, note=43, velocity=0, time=96),\n",
       "    Message('note_off', channel=0, note=51, velocity=0, time=0),\n",
       "    Message('note_off', channel=0, note=55, velocity=0, time=0),\n",
       "    Message('note_off', channel=0, note=63, velocity=0, time=0),\n",
       "    Message('note_on', channel=0, note=64, velocity=50, time=0),\n",
       "    Message('note_on', channel=0, note=55, velocity=50, time=0),\n",
       "    Message('note_on', channel=0, note=52, velocity=50, time=0),\n",
       "    Message('note_on', channel=0, note=43, velocity=50, time=0),\n",
       "    Message('note_off', channel=0, note=43, velocity=0, time=96),\n",
       "    Message('note_off', channel=0, note=52, velocity=0, time=0),\n",
       "    Message('note_off', channel=0, note=55, velocity=0, time=0),\n",
       "    Message('note_off', channel=0, note=64, velocity=0, time=0),\n",
       "    Message('note_on', channel=0, note=64, velocity=50, time=288),\n",
       "    Message('note_on', channel=0, note=55, velocity=50, time=0),\n",
       "    Message('note_on', channel=0, note=43, velocity=50, time=0),\n",
       "    Message('note_on', channel=0, note=52, velocity=50, time=0),\n",
       "    Message('note_off', channel=0, note=52, velocity=0, time=96),\n",
       "    Message('note_off', channel=0, note=43, velocity=0, time=0),\n",
       "    Message('note_off', channel=0, note=55, velocity=0, time=0),\n",
       "    Message('note_off', channel=0, note=64, velocity=0, time=0),\n",
       "    Message('note_on', channel=0, note=64, velocity=50, time=0),\n",
       "    Message('note_on', channel=0, note=55, velocity=50, time=0),\n",
       "    Message('note_off', channel=0, note=55, velocity=0, time=96),\n",
       "    Message('note_off', channel=0, note=64, velocity=0, time=0),\n",
       "    Message('note_on', channel=0, note=64, velocity=50, time=0),\n",
       "    Message('note_on', channel=0, note=55, velocity=50, time=0),\n",
       "    Message('note_off', channel=0, note=55, velocity=0, time=96),\n",
       "    Message('note_off', channel=0, note=64, velocity=0, time=0),\n",
       "    Message('note_on', channel=0, note=64, velocity=50, time=0),\n",
       "    Message('note_on', channel=0, note=55, velocity=50, time=0),\n",
       "    Message('note_off', channel=0, note=55, velocity=0, time=96),\n",
       "    Message('note_off', channel=0, note=64, velocity=0, time=0),\n",
       "    Message('note_on', channel=0, note=65, velocity=50, time=0),\n",
       "    Message('note_on', channel=0, note=55, velocity=50, time=0),\n",
       "    Message('note_on', channel=0, note=43, velocity=50, time=0),\n",
       "    Message('note_on', channel=0, note=31, velocity=50, time=0),\n",
       "    Message('note_off', channel=0, note=31, velocity=0, time=96),\n",
       "    Message('note_off', channel=0, note=43, velocity=0, time=0),\n",
       "    Message('note_off', channel=0, note=55, velocity=0, time=0),\n",
       "    Message('note_off', channel=0, note=65, velocity=0, time=0),\n",
       "    Message('note_on', channel=0, note=65, velocity=50, time=0),\n",
       "    Message('note_on', channel=0, note=55, velocity=50, time=0),\n",
       "    Message('note_off', channel=0, note=55, velocity=0, time=96),\n",
       "    Message('note_off', channel=0, note=65, velocity=0, time=0),\n",
       "    Message('note_on', channel=0, note=65, velocity=50, time=0),\n",
       "    Message('note_on', channel=0, note=55, velocity=50, time=0),\n",
       "    Message('note_off', channel=0, note=55, velocity=0, time=96),\n",
       "    Message('note_off', channel=0, note=65, velocity=0, time=0),\n",
       "    Message('note_on', channel=0, note=65, velocity=50, time=288),\n",
       "    Message('note_on', channel=0, note=55, velocity=50, time=0),\n",
       "    Message('note_on', channel=0, note=43, velocity=50, time=0),\n",
       "    Message('note_on', channel=0, note=53, velocity=50, time=0),\n",
       "    Message('note_off', channel=0, note=53, velocity=0, time=96),\n",
       "    Message('note_off', channel=0, note=43, velocity=0, time=0),\n",
       "    Message('note_off', channel=0, note=55, velocity=0, time=0),\n",
       "    Message('note_off', channel=0, note=65, velocity=0, time=0),\n",
       "    Message('note_on', channel=0, note=65, velocity=50, time=0),\n",
       "    Message('note_on', channel=0, note=55, velocity=50, time=0),\n",
       "    Message('note_on', channel=0, note=43, velocity=50, time=0),\n",
       "    Message('note_on', channel=0, note=53, velocity=50, time=0),\n",
       "    Message('note_off', channel=0, note=53, velocity=0, time=96),\n",
       "    Message('note_off', channel=0, note=43, velocity=0, time=0),\n",
       "    Message('note_off', channel=0, note=55, velocity=0, time=0),\n",
       "    Message('note_off', channel=0, note=65, velocity=0, time=0),\n",
       "    Message('note_on', channel=0, note=64, velocity=50, time=0),\n",
       "    Message('note_on', channel=0, note=55, velocity=50, time=0),\n",
       "    Message('note_on', channel=0, note=43, velocity=50, time=0),\n",
       "    Message('note_on', channel=0, note=52, velocity=50, time=0),\n",
       "    Message('note_off', channel=0, note=52, velocity=0, time=96),\n",
       "    Message('note_off', channel=0, note=43, velocity=0, time=0),\n",
       "    Message('note_off', channel=0, note=55, velocity=0, time=0),\n",
       "    Message('note_off', channel=0, note=64, velocity=0, time=0),\n",
       "    Message('note_on', channel=0, note=64, velocity=50, time=288),\n",
       "    Message('note_on', channel=0, note=55, velocity=50, time=0),\n",
       "    Message('note_off', channel=0, note=55, velocity=0, time=96),\n",
       "    Message('note_off', channel=0, note=64, velocity=0, time=0),\n",
       "    Message('note_on', channel=0, note=64, velocity=50, time=0),\n",
       "    Message('note_on', channel=0, note=55, velocity=50, time=0),\n",
       "    Message('note_off', channel=0, note=55, velocity=0, time=96),\n",
       "    Message('note_off', channel=0, note=64, velocity=0, time=0),\n",
       "    Message('note_on', channel=0, note=64, velocity=50, time=0),\n",
       "    Message('note_on', channel=0, note=55, velocity=50, time=0),\n",
       "    Message('note_off', channel=0, note=55, velocity=0, time=96),\n",
       "    Message('note_off', channel=0, note=64, velocity=0, time=0),\n",
       "    Message('note_on', channel=0, note=64, velocity=50, time=0),\n",
       "    Message('note_on', channel=0, note=55, velocity=50, time=0),\n",
       "    Message('note_off', channel=0, note=55, velocity=0, time=96),\n",
       "    Message('note_off', channel=0, note=64, velocity=0, time=0),\n",
       "    Message('note_on', channel=0, note=63, velocity=50, time=0),\n",
       "    Message('note_on', channel=0, note=55, velocity=50, time=0),\n",
       "    Message('note_on', channel=0, note=43, velocity=50, time=0),\n",
       "    Message('note_on', channel=0, note=31, velocity=50, time=0),\n",
       "    Message('note_off', channel=0, note=31, velocity=0, time=96),\n",
       "    Message('note_off', channel=0, note=43, velocity=0, time=0),\n",
       "    Message('note_off', channel=0, note=55, velocity=0, time=0),\n",
       "    Message('note_off', channel=0, note=63, velocity=0, time=0),\n",
       "    Message('note_on', channel=0, note=63, velocity=50, time=0),\n",
       "    Message('note_on', channel=0, note=55, velocity=50, time=0),\n",
       "    Message('note_off', channel=0, note=55, velocity=0, time=96),\n",
       "    Message('note_off', channel=0, note=63, velocity=0, time=0),\n",
       "    Message('note_on', channel=0, note=63, velocity=50, time=0),\n",
       "    Message('note_on', channel=0, note=55, velocity=50, time=0),\n",
       "    Message('note_off', channel=0, note=55, velocity=0, time=96),\n",
       "    Message('note_off', channel=0, note=63, velocity=0, time=0),\n",
       "    Message('note_on', channel=0, note=55, velocity=50, time=288),\n",
       "    Message('note_on', channel=0, note=63, velocity=50, time=0),\n",
       "    Message('note_on', channel=0, note=43, velocity=50, time=0),\n",
       "    Message('note_off', channel=0, note=43, velocity=0, time=96),\n",
       "    Message('note_off', channel=0, note=63, velocity=0, time=0),\n",
       "    Message('note_off', channel=0, note=55, velocity=0, time=0),\n",
       "    Message('note_on', channel=0, note=55, velocity=50, time=0),\n",
       "    Message('note_on', channel=0, note=63, velocity=50, time=0),\n",
       "    Message('note_on', channel=0, note=43, velocity=50, time=0),\n",
       "    Message('note_off', channel=0, note=43, velocity=0, time=96),\n",
       "    Message('note_off', channel=0, note=63, velocity=0, time=0),\n",
       "    Message('note_off', channel=0, note=55, velocity=0, time=0),\n",
       "    Message('note_on', channel=0, note=55, velocity=50, time=0),\n",
       "    Message('note_on', channel=0, note=58, velocity=50, time=0),\n",
       "    Message('note_on', channel=0, note=43, velocity=50, time=0),\n",
       "    Message('note_on', channel=0, note=39, velocity=50, time=0),\n",
       "    Message('note_off', channel=0, note=39, velocity=0, time=96),\n",
       "    Message('note_off', channel=0, note=43, velocity=0, time=0),\n",
       "    Message('note_off', channel=0, note=58, velocity=0, time=0),\n",
       "    Message('note_off', channel=0, note=55, velocity=0, time=0),\n",
       "    Message('note_on', channel=0, note=55, velocity=50, time=288),\n",
       "    Message('note_on', channel=0, note=60, velocity=50, time=0),\n",
       "    Message('note_on', channel=0, note=57, velocity=50, time=0),\n",
       "    Message('note_on', channel=0, note=43, velocity=50, time=0),\n",
       "    Message('note_on', channel=0, note=36, velocity=50, time=0),\n",
       "    Message('note_off', channel=0, note=36, velocity=0, time=96),\n",
       "    Message('note_off', channel=0, note=43, velocity=0, time=0),\n",
       "    Message('note_off', channel=0, note=57, velocity=0, time=0),\n",
       "    Message('note_off', channel=0, note=60, velocity=0, time=0),\n",
       "    Message('note_off', channel=0, note=55, velocity=0, time=0),\n",
       "    Message('note_on', channel=0, note=62, velocity=50, time=288),\n",
       "    Message('note_on', channel=0, note=67, velocity=50, time=0),\n",
       "    Message('note_on', channel=0, note=55, velocity=50, time=0),\n",
       "    Message('note_on', channel=0, note=43, velocity=50, time=0),\n",
       "    Message('note_on', channel=0, note=50, velocity=50, time=0),\n",
       "    Message('note_off', channel=0, note=50, velocity=0, time=96),\n",
       "    Message('note_off', channel=0, note=43, velocity=0, time=0),\n",
       "    Message('note_off', channel=0, note=55, velocity=0, time=0),\n",
       "    Message('note_off', channel=0, note=67, velocity=0, time=0),\n",
       "    Message('note_off', channel=0, note=62, velocity=0, time=0),\n",
       "    Message('note_on', channel=0, note=43, velocity=50, time=0),\n",
       "    Message('note_on', channel=0, note=50, velocity=50, time=0),\n",
       "    Message('note_off', channel=0, note=50, velocity=0, time=96),\n",
       "    Message('note_off', channel=0, note=43, velocity=0, time=0),\n",
       "    Message('note_on', channel=0, note=43, velocity=50, time=0),\n",
       "    Message('note_on', channel=0, note=50, velocity=50, time=0),\n",
       "    Message('note_off', channel=0, note=50, velocity=0, time=96),\n",
       "    Message('note_off', channel=0, note=43, velocity=0, time=0),\n",
       "    Message('note_on', channel=0, note=43, velocity=50, time=288),\n",
       "    Message('note_on', channel=0, note=50, velocity=50, time=0),\n",
       "    Message('note_off', channel=0, note=50, velocity=0, time=96),\n",
       "    Message('note_off', channel=0, note=43, velocity=0, time=0),\n",
       "    Message('note_on', channel=0, note=43, velocity=50, time=0),\n",
       "    Message('note_on', channel=0, note=50, velocity=50, time=0),\n",
       "    Message('note_off', channel=0, note=50, velocity=0, time=96),\n",
       "    Message('note_off', channel=0, note=43, velocity=0, time=0),\n",
       "    Message('note_on', channel=0, note=43, velocity=50, time=0),\n",
       "    Message('note_on', channel=0, note=50, velocity=50, time=0),\n",
       "    Message('note_off', channel=0, note=50, velocity=0, time=96),\n",
       "    Message('note_off', channel=0, note=43, velocity=0, time=0),\n",
       "    Message('note_on', channel=0, note=43, velocity=50, time=288),\n",
       "    Message('note_on', channel=0, note=50, velocity=50, time=0),\n",
       "    Message('note_off', channel=0, note=50, velocity=0, time=96),\n",
       "    Message('note_off', channel=0, note=43, velocity=0, time=0),\n",
       "    Message('note_on', channel=0, note=43, velocity=50, time=0),\n",
       "    Message('note_on', channel=0, note=50, velocity=50, time=0),\n",
       "    Message('note_off', channel=0, note=50, velocity=0, time=96),\n",
       "    Message('note_off', channel=0, note=43, velocity=0, time=0),\n",
       "    Message('note_on', channel=0, note=43, velocity=50, time=0),\n",
       "    Message('note_on', channel=0, note=50, velocity=50, time=0),\n",
       "    Message('note_off', channel=0, note=50, velocity=0, time=96),\n",
       "    Message('note_off', channel=0, note=43, velocity=0, time=0),\n",
       "    Message('note_on', channel=0, note=43, velocity=50, time=0),\n",
       "    Message('note_on', channel=0, note=50, velocity=50, time=0),\n",
       "    Message('note_off', channel=0, note=50, velocity=0, time=96),\n",
       "    Message('note_off', channel=0, note=43, velocity=0, time=0),\n",
       "    Message('note_on', channel=0, note=43, velocity=50, time=0),\n",
       "    Message('note_on', channel=0, note=51, velocity=50, time=0),\n",
       "    Message('note_on', channel=0, note=74, velocity=50, time=0),\n",
       "    Message('note_on', channel=0, note=67, velocity=50, time=0),\n",
       "    Message('note_on', channel=0, note=64, velocity=50, time=0),\n",
       "    Message('note_on', channel=0, note=62, velocity=50, time=0),\n",
       "    Message('note_off', channel=0, note=62, velocity=0, time=96),\n",
       "    Message('note_off', channel=0, note=64, velocity=0, time=0),\n",
       "    Message('note_off', channel=0, note=67, velocity=0, time=0),\n",
       "    Message('note_off', channel=0, note=74, velocity=0, time=0),\n",
       "    Message('note_off', channel=0, note=51, velocity=0, time=0),\n",
       "    Message('note_off', channel=0, note=43, velocity=0, time=0),\n",
       "    Message('note_on', channel=0, note=43, velocity=50, time=0),\n",
       "    Message('note_on', channel=0, note=51, velocity=50, time=0),\n",
       "    Message('note_off', channel=0, note=51, velocity=0, time=96),\n",
       "    Message('note_off', channel=0, note=43, velocity=0, time=0),\n",
       "    Message('note_on', channel=0, note=43, velocity=50, time=0),\n",
       "    Message('note_on', channel=0, note=51, velocity=50, time=0),\n",
       "    Message('note_off', channel=0, note=51, velocity=0, time=96),\n",
       "    Message('note_off', channel=0, note=43, velocity=0, time=0),\n",
       "    Message('note_on', channel=0, note=72, velocity=50, time=96),\n",
       "    Message('note_on', channel=0, note=67, velocity=50, time=0),\n",
       "    Message('note_on', channel=0, note=63, velocity=50, time=0),\n",
       "    Message('note_on', channel=0, note=60, velocity=50, time=0),\n",
       "    Message('note_off', channel=0, note=60, velocity=0, time=96),\n",
       "    Message('note_off', channel=0, note=63, velocity=0, time=0),\n",
       "    Message('note_off', channel=0, note=67, velocity=0, time=0),\n",
       "    Message('note_off', channel=0, note=72, velocity=0, time=0),\n",
       "    Message('note_on', channel=0, note=43, velocity=50, time=96),\n",
       "    Message('note_on', channel=0, note=51, velocity=50, time=0),\n",
       "    Message('note_off', channel=0, note=51, velocity=0, time=96),\n",
       "    Message('note_off', channel=0, note=43, velocity=0, time=0),\n",
       "    Message('note_on', channel=0, note=43, velocity=50, time=0),\n",
       "    Message('note_on', channel=0, note=51, velocity=50, time=0),\n",
       "    Message('note_on', channel=0, note=70, velocity=50, time=0),\n",
       "    Message('note_on', channel=0, note=58, velocity=50, time=0),\n",
       "    Message('note_off', channel=0, note=58, velocity=0, time=96),\n",
       "    Message('note_off', channel=0, note=70, velocity=0, time=0),\n",
       "    Message('note_off', channel=0, note=51, velocity=0, time=0),\n",
       "    Message('note_off', channel=0, note=43, velocity=0, time=0),\n",
       "    Message('note_on', channel=0, note=43, velocity=50, time=0),\n",
       "    Message('note_on', channel=0, note=52, velocity=50, time=0),\n",
       "    Message('note_on', channel=0, note=70, velocity=50, time=0),\n",
       "    Message('note_on', channel=0, note=64, velocity=50, time=0),\n",
       "    Message('note_on', channel=0, note=58, velocity=50, time=0),\n",
       "    Message('note_off', channel=0, note=58, velocity=0, time=96),\n",
       "    Message('note_off', channel=0, note=64, velocity=0, time=0),\n",
       "    Message('note_off', channel=0, note=70, velocity=0, time=0),\n",
       "    Message('note_off', channel=0, note=52, velocity=0, time=0),\n",
       "    Message('note_off', channel=0, note=43, velocity=0, time=0),\n",
       "    Message('note_on', channel=0, note=43, velocity=50, time=288),\n",
       "    Message('note_on', channel=0, note=52, velocity=50, time=0),\n",
       "    Message('note_on', channel=0, note=60, velocity=50, time=0),\n",
       "    Message('note_on', channel=0, note=64, velocity=50, time=0),\n",
       "    Message('note_on', channel=0, note=72, velocity=50, time=0),\n",
       "    Message('note_off', channel=0, note=72, velocity=0, time=96),\n",
       "    Message('note_off', channel=0, note=64, velocity=0, time=0),\n",
       "    Message('note_off', channel=0, note=60, velocity=0, time=0),\n",
       "    Message('note_off', channel=0, note=52, velocity=0, time=0),\n",
       "    Message('note_off', channel=0, note=43, velocity=0, time=0),\n",
       "    Message('note_on', channel=0, note=43, velocity=50, time=0),\n",
       "    Message('note_on', channel=0, note=52, velocity=50, time=0),\n",
       "    Message('note_off', channel=0, note=52, velocity=0, time=96),\n",
       "    Message('note_off', channel=0, note=43, velocity=0, time=0),\n",
       "    Message('note_on', channel=0, note=43, velocity=50, time=0),\n",
       "    Message('note_on', channel=0, note=52, velocity=50, time=0),\n",
       "    Message('note_off', channel=0, note=52, velocity=0, time=96),\n",
       "    Message('note_off', channel=0, note=43, velocity=0, time=0),\n",
       "    Message('note_on', channel=0, note=43, velocity=50, time=0),\n",
       "    Message('note_on', channel=0, note=52, velocity=50, time=0),\n",
       "    Message('note_on', channel=0, note=74, velocity=50, time=0),\n",
       "    Message('note_on', channel=0, note=67, velocity=50, time=0),\n",
       "    Message('note_on', channel=0, note=64, velocity=50, time=0),\n",
       "    Message('note_on', channel=0, note=62, velocity=50, time=0),\n",
       "    Message('note_on', channel=0, note=74, velocity=50, time=0),\n",
       "    Message('note_on', channel=0, note=67, velocity=50, time=0),\n",
       "    Message('note_on', channel=0, note=64, velocity=50, time=0),\n",
       "    Message('note_on', channel=0, note=62, velocity=50, time=0),\n",
       "    Message('note_off', channel=0, note=62, velocity=0, time=96),\n",
       "    Message('note_off', channel=0, note=64, velocity=0, time=0),\n",
       "    Message('note_off', channel=0, note=67, velocity=0, time=0),\n",
       "    Message('note_off', channel=0, note=74, velocity=0, time=0),\n",
       "    Message('note_off', channel=0, note=62, velocity=0, time=0),\n",
       "    Message('note_off', channel=0, note=64, velocity=0, time=0),\n",
       "    Message('note_off', channel=0, note=67, velocity=0, time=0),\n",
       "    Message('note_off', channel=0, note=74, velocity=0, time=0),\n",
       "    Message('note_off', channel=0, note=52, velocity=0, time=0),\n",
       "    Message('note_off', channel=0, note=43, velocity=0, time=0),\n",
       "    Message('note_on', channel=0, note=43, velocity=50, time=0),\n",
       "    Message('note_on', channel=0, note=53, velocity=50, time=0),\n",
       "    Message('note_on', channel=0, note=65, velocity=50, time=0),\n",
       "    Message('note_on', channel=0, note=67, velocity=50, time=0),\n",
       "    Message('note_on', channel=0, note=74, velocity=50, time=0),\n",
       "    Message('note_on', channel=0, note=62, velocity=50, time=0),\n",
       "    Message('note_off', channel=0, note=62, velocity=0, time=96),\n",
       "    Message('note_off', channel=0, note=74, velocity=0, time=0),\n",
       "    Message('note_off', channel=0, note=67, velocity=0, time=0),\n",
       "    Message('note_off', channel=0, note=65, velocity=0, time=0),\n",
       "    Message('note_off', channel=0, note=53, velocity=0, time=0),\n",
       "    Message('note_off', channel=0, note=43, velocity=0, time=0),\n",
       "    Message('note_on', channel=0, note=43, velocity=50, time=0),\n",
       "    Message('note_on', channel=0, note=53, velocity=50, time=0),\n",
       "    Message('note_off', channel=0, note=53, velocity=0, time=96),\n",
       "    Message('note_off', channel=0, note=43, velocity=0, time=0),\n",
       "    Message('note_on', channel=0, note=43, velocity=50, time=0),\n",
       "    Message('note_on', channel=0, note=53, velocity=50, time=0),\n",
       "    Message('note_off', channel=0, note=53, velocity=0, time=96),\n",
       "    Message('note_off', channel=0, note=43, velocity=0, time=0),\n",
       "    Message('note_on', channel=0, note=65, velocity=50, time=96),\n",
       "    Message('note_on', channel=0, note=67, velocity=50, time=0),\n",
       "    Message('note_on', channel=0, note=55, velocity=50, time=0),\n",
       "    Message('note_on', channel=0, note=55, velocity=50, time=0),\n",
       "    Message('note_off', channel=0, note=55, velocity=0, time=96),\n",
       "    Message('note_off', channel=0, note=55, velocity=0, time=0),\n",
       "    Message('note_off', channel=0, note=67, velocity=0, time=0),\n",
       "    Message('note_off', channel=0, note=65, velocity=0, time=0),\n",
       "    Message('note_on', channel=0, note=43, velocity=50, time=96),\n",
       "    Message('note_on', channel=0, note=53, velocity=50, time=0),\n",
       "    Message('note_off', channel=0, note=53, velocity=0, time=96),\n",
       "    Message('note_off', channel=0, note=43, velocity=0, time=0),\n",
       "    Message('note_on', channel=0, note=43, velocity=50, time=0),\n",
       "    Message('note_on', channel=0, note=53, velocity=50, time=0),\n",
       "    Message('note_off', channel=0, note=53, velocity=0, time=96),\n",
       "    Message('note_off', channel=0, note=43, velocity=0, time=0),\n",
       "    Message('note_on', channel=0, note=43, velocity=50, time=0),\n",
       "    Message('note_on', channel=0, note=52, velocity=50, time=0),\n",
       "    Message('note_off', channel=0, note=52, velocity=0, time=96),\n",
       "    Message('note_off', channel=0, note=43, velocity=0, time=0),\n",
       "    Message('note_on', channel=0, note=43, velocity=50, time=288),\n",
       "    Message('note_on', channel=0, note=52, velocity=50, time=0),\n",
       "    Message('note_off', channel=0, note=52, velocity=0, time=96),\n",
       "    Message('note_off', channel=0, note=43, velocity=0, time=0),\n",
       "    Message('note_on', channel=0, note=43, velocity=50, time=0),\n",
       "    Message('note_on', channel=0, note=52, velocity=50, time=0),\n",
       "    Message('note_off', channel=0, note=52, velocity=0, time=96),\n",
       "    Message('note_off', channel=0, note=43, velocity=0, time=0),\n",
       "    Message('note_on', channel=0, note=43, velocity=50, time=0),\n",
       "    Message('note_on', channel=0, note=52, velocity=50, time=0),\n",
       "    Message('note_off', channel=0, note=52, velocity=0, time=96),\n",
       "    Message('note_off', channel=0, note=43, velocity=0, time=0),\n",
       "    Message('note_on', channel=0, note=43, velocity=50, time=0),\n",
       "    Message('note_on', channel=0, note=52, velocity=50, time=0),\n",
       "    Message('note_off', channel=0, note=52, velocity=0, time=96),\n",
       "    Message('note_off', channel=0, note=43, velocity=0, time=0),\n",
       "    Message('note_on', channel=0, note=43, velocity=50, time=0),\n",
       "    Message('note_on', channel=0, note=51, velocity=50, time=0),\n",
       "    Message('note_on', channel=0, note=74, velocity=50, time=0),\n",
       "    Message('note_on', channel=0, note=67, velocity=50, time=0),\n",
       "    Message('note_on', channel=0, note=63, velocity=50, time=0),\n",
       "    Message('note_on', channel=0, note=62, velocity=50, time=0),\n",
       "    Message('note_off', channel=0, note=62, velocity=0, time=96),\n",
       "    Message('note_off', channel=0, note=63, velocity=0, time=0),\n",
       "    Message('note_off', channel=0, note=67, velocity=0, time=0),\n",
       "    Message('note_off', channel=0, note=74, velocity=0, time=0),\n",
       "    Message('note_off', channel=0, note=51, velocity=0, time=0),\n",
       "    Message('note_off', channel=0, note=43, velocity=0, time=0),\n",
       "    Message('note_on', channel=0, note=43, velocity=50, time=0),\n",
       "    Message('note_on', channel=0, note=51, velocity=50, time=0),\n",
       "    Message('note_off', channel=0, note=51, velocity=0, time=96),\n",
       "    Message('note_off', channel=0, note=43, velocity=0, time=0),\n",
       "    Message('note_on', channel=0, note=43, velocity=50, time=0),\n",
       "    Message('note_on', channel=0, note=51, velocity=50, time=0),\n",
       "    Message('note_off', channel=0, note=51, velocity=0, time=96),\n",
       "    Message('note_off', channel=0, note=43, velocity=0, time=0),\n",
       "    Message('note_on', channel=0, note=72, velocity=50, time=96),\n",
       "    Message('note_on', channel=0, note=67, velocity=50, time=0),\n",
       "    Message('note_on', channel=0, note=63, velocity=50, time=0),\n",
       "    Message('note_on', channel=0, note=60, velocity=50, time=0),\n",
       "    Message('note_off', channel=0, note=60, velocity=0, time=96),\n",
       "    Message('note_off', channel=0, note=63, velocity=0, time=0),\n",
       "    Message('note_off', channel=0, note=67, velocity=0, time=0),\n",
       "    Message('note_off', channel=0, note=72, velocity=0, time=0),\n",
       "    Message('note_on', channel=0, note=43, velocity=50, time=96),\n",
       "    Message('note_on', channel=0, note=51, velocity=50, time=0),\n",
       "    Message('note_off', channel=0, note=51, velocity=0, time=96),\n",
       "    Message('note_off', channel=0, note=43, velocity=0, time=0),\n",
       "    Message('note_on', channel=0, note=43, velocity=50, time=0),\n",
       "    Message('note_on', channel=0, note=51, velocity=50, time=0),\n",
       "    Message('note_on', channel=0, note=70, velocity=50, time=0),\n",
       "    Message('note_on', channel=0, note=58, velocity=50, time=0),\n",
       "    Message('note_off', channel=0, note=58, velocity=0, time=96),\n",
       "    Message('note_off', channel=0, note=70, velocity=0, time=0),\n",
       "    Message('note_off', channel=0, note=51, velocity=0, time=0),\n",
       "    Message('note_off', channel=0, note=43, velocity=0, time=0),\n",
       "    Message('note_on', channel=0, note=43, velocity=50, time=0),\n",
       "    Message('note_on', channel=0, note=39, velocity=50, time=0),\n",
       "    Message('note_on', channel=0, note=70, velocity=50, time=0),\n",
       "    Message('note_on', channel=0, note=58, velocity=50, time=0),\n",
       "    Message('note_on', channel=0, note=63, velocity=50, time=0),\n",
       "    Message('note_off', channel=0, note=63, velocity=0, time=96),\n",
       "    Message('note_off', channel=0, note=58, velocity=0, time=0),\n",
       "    Message('note_off', channel=0, note=70, velocity=0, time=0),\n",
       "    Message('note_off', channel=0, note=39, velocity=0, time=0),\n",
       "    Message('note_off', channel=0, note=43, velocity=0, time=0),\n",
       "    Message('note_on', channel=0, note=43, velocity=50, time=288),\n",
       "    Message('note_on', channel=0, note=36, velocity=50, time=0),\n",
       "    Message('note_on', channel=0, note=69, velocity=50, time=0),\n",
       "    Message('note_on', channel=0, note=63, velocity=50, time=0),\n",
       "    Message('note_on', channel=0, note=57, velocity=50, time=0),\n",
       "    Message('note_off', channel=0, note=57, velocity=0, time=96),\n",
       "    Message('note_off', channel=0, note=63, velocity=0, time=0),\n",
       "    Message('note_off', channel=0, note=69, velocity=0, time=0),\n",
       "    Message('note_off', channel=0, note=36, velocity=0, time=0),\n",
       "    Message('note_off', channel=0, note=43, velocity=0, time=0),\n",
       "    Message('note_on', channel=0, note=43, velocity=50, time=288),\n",
       "    Message('note_on', channel=0, note=50, velocity=50, time=0),\n",
       "    Message('note_on', channel=0, note=67, velocity=50, time=0),\n",
       "    Message('note_on', channel=0, note=62, velocity=50, time=0),\n",
       "    Message('note_on', channel=0, note=55, velocity=50, time=0),\n",
       "    Message('note_off', channel=0, note=55, velocity=0, time=96),\n",
       "    Message('note_off', channel=0, note=62, velocity=0, time=0),\n",
       "    Message('note_off', channel=0, note=67, velocity=0, time=0),\n",
       "    Message('note_off', channel=0, note=50, velocity=0, time=0),\n",
       "    Message('note_off', channel=0, note=43, velocity=0, time=0),\n",
       "    Message('note_on', channel=0, note=43, velocity=50, time=0),\n",
       "    Message('note_on', channel=0, note=50, velocity=50, time=0),\n",
       "    Message('note_off', channel=0, note=50, velocity=0, time=96),\n",
       "    Message('note_off', channel=0, note=43, velocity=0, time=0),\n",
       "    Message('note_on', channel=0, note=43, velocity=50, time=0),\n",
       "    Message('note_on', channel=0, note=50, velocity=50, time=0),\n",
       "    Message('note_off', channel=0, note=50, velocity=0, time=96),\n",
       "    Message('note_off', channel=0, note=43, velocity=0, time=0),\n",
       "    Message('note_on', channel=0, note=43, velocity=50, time=288),\n",
       "    Message('note_on', channel=0, note=50, velocity=50, time=0),\n",
       "    Message('note_off', channel=0, note=50, velocity=0, time=96),\n",
       "    Message('note_off', channel=0, note=43, velocity=0, time=0),\n",
       "    Message('note_on', channel=0, note=43, velocity=50, time=0),\n",
       "    Message('note_on', channel=0, note=50, velocity=50, time=0),\n",
       "    Message('note_off', channel=0, note=50, velocity=0, time=96),\n",
       "    Message('note_off', channel=0, note=43, velocity=0, time=0),\n",
       "    Message('note_on', channel=0, note=43, velocity=50, time=0),\n",
       "    Message('note_on', channel=0, note=50, velocity=50, time=0),\n",
       "    Message('note_off', channel=0, note=50, velocity=0, time=96),\n",
       "    Message('note_off', channel=0, note=43, velocity=0, time=0),\n",
       "    Message('note_on', channel=0, note=43, velocity=50, time=288),\n",
       "    Message('note_on', channel=0, note=50, velocity=50, time=0),\n",
       "    Message('note_off', channel=0, note=50, velocity=0, time=96),\n",
       "    Message('note_off', channel=0, note=43, velocity=0, time=0),\n",
       "    Message('note_on', channel=0, note=43, velocity=50, time=0),\n",
       "    Message('note_on', channel=0, note=50, velocity=50, time=0),\n",
       "    Message('note_off', channel=0, note=50, velocity=0, time=96),\n",
       "    Message('note_off', channel=0, note=43, velocity=0, time=0),\n",
       "    Message('note_on', channel=0, note=43, velocity=50, time=0),\n",
       "    Message('note_on', channel=0, note=50, velocity=50, time=0),\n",
       "    Message('note_off', channel=0, note=50, velocity=0, time=96),\n",
       "    Message('note_off', channel=0, note=43, velocity=0, time=0),\n",
       "    Message('note_on', channel=0, note=43, velocity=50, time=0),\n",
       "    Message('note_on', channel=0, note=50, velocity=50, time=0),\n",
       "    Message('note_off', channel=0, note=50, velocity=0, time=96),\n",
       "    Message('note_off', channel=0, note=43, velocity=0, time=0),\n",
       "    Message('note_on', channel=0, note=43, velocity=50, time=0),\n",
       "    Message('note_on', channel=0, note=51, velocity=50, time=0),\n",
       "    Message('note_on', channel=0, note=74, velocity=50, time=0),\n",
       "    Message('note_on', channel=0, note=67, velocity=50, time=0),\n",
       "    Message('note_on', channel=0, note=64, velocity=50, time=0),\n",
       "    Message('note_on', channel=0, note=62, velocity=50, time=0),\n",
       "    Message('note_off', channel=0, note=62, velocity=0, time=96),\n",
       "    Message('note_off', channel=0, note=64, velocity=0, time=0),\n",
       "    Message('note_off', channel=0, note=67, velocity=0, time=0),\n",
       "    Message('note_off', channel=0, note=74, velocity=0, time=0),\n",
       "    Message('note_off', channel=0, note=51, velocity=0, time=0),\n",
       "    Message('note_off', channel=0, note=43, velocity=0, time=0),\n",
       "    Message('note_on', channel=0, note=43, velocity=50, time=0),\n",
       "    Message('note_on', channel=0, note=51, velocity=50, time=0),\n",
       "    Message('note_off', channel=0, note=51, velocity=0, time=96),\n",
       "    Message('note_off', channel=0, note=43, velocity=0, time=0),\n",
       "    Message('note_on', channel=0, note=43, velocity=50, time=0),\n",
       "    Message('note_on', channel=0, note=51, velocity=50, time=0),\n",
       "    Message('note_off', channel=0, note=51, velocity=0, time=96),\n",
       "    Message('note_off', channel=0, note=43, velocity=0, time=0),\n",
       "    Message('note_on', channel=0, note=72, velocity=50, time=96),\n",
       "    Message('note_on', channel=0, note=67, velocity=50, time=0),\n",
       "    Message('note_on', channel=0, note=63, velocity=50, time=0),\n",
       "    Message('note_on', channel=0, note=60, velocity=50, time=0),\n",
       "    Message('note_off', channel=0, note=60, velocity=0, time=96),\n",
       "    Message('note_off', channel=0, note=63, velocity=0, time=0),\n",
       "    Message('note_off', channel=0, note=67, velocity=0, time=0),\n",
       "    Message('note_off', channel=0, note=72, velocity=0, time=0),\n",
       "    Message('note_on', channel=0, note=43, velocity=50, time=96),\n",
       "    Message('note_on', channel=0, note=51, velocity=50, time=0),\n",
       "    Message('note_off', channel=0, note=51, velocity=0, time=96),\n",
       "    Message('note_off', channel=0, note=43, velocity=0, time=0),\n",
       "    Message('note_on', channel=0, note=43, velocity=50, time=0),\n",
       "    Message('note_on', channel=0, note=51, velocity=50, time=0),\n",
       "    Message('note_on', channel=0, note=70, velocity=50, time=0),\n",
       "    Message('note_on', channel=0, note=58, velocity=50, time=0),\n",
       "    Message('note_off', channel=0, note=58, velocity=0, time=96),\n",
       "    Message('note_off', channel=0, note=70, velocity=0, time=0),\n",
       "    Message('note_off', channel=0, note=51, velocity=0, time=0),\n",
       "    Message('note_off', channel=0, note=43, velocity=0, time=0),\n",
       "    Message('note_on', channel=0, note=43, velocity=50, time=0),\n",
       "    Message('note_on', channel=0, note=52, velocity=50, time=0),\n",
       "    Message('note_on', channel=0, note=70, velocity=50, time=0),\n",
       "    Message('note_on', channel=0, note=64, velocity=50, time=0),\n",
       "    Message('note_on', channel=0, note=58, velocity=50, time=0),\n",
       "    Message('note_off', channel=0, note=58, velocity=0, time=96),\n",
       "    Message('note_off', channel=0, note=64, velocity=0, time=0),\n",
       "    Message('note_off', channel=0, note=70, velocity=0, time=0),\n",
       "    Message('note_off', channel=0, note=52, velocity=0, time=0),\n",
       "    Message('note_off', channel=0, note=43, velocity=0, time=0),\n",
       "    Message('note_on', channel=0, note=43, velocity=50, time=288),\n",
       "    Message('note_on', channel=0, note=52, velocity=50, time=0),\n",
       "    Message('note_on', channel=0, note=72, velocity=50, time=0),\n",
       "    Message('note_on', channel=0, note=64, velocity=50, time=0),\n",
       "    Message('note_on', channel=0, note=60, velocity=50, time=0),\n",
       "    Message('note_off', channel=0, note=60, velocity=0, time=96),\n",
       "    Message('note_off', channel=0, note=64, velocity=0, time=0),\n",
       "    Message('note_off', channel=0, note=72, velocity=0, time=0),\n",
       "    Message('note_off', channel=0, note=52, velocity=0, time=0),\n",
       "    Message('note_off', channel=0, note=43, velocity=0, time=0),\n",
       "    Message('note_on', channel=0, note=43, velocity=50, time=0),\n",
       "    Message('note_on', channel=0, note=52, velocity=50, time=0),\n",
       "    Message('note_off', channel=0, note=52, velocity=0, time=96),\n",
       "    Message('note_off', channel=0, note=43, velocity=0, time=0),\n",
       "    Message('note_on', channel=0, note=43, velocity=50, time=0),\n",
       "    Message('note_on', channel=0, note=52, velocity=50, time=0),\n",
       "    Message('note_off', channel=0, note=52, velocity=0, time=96),\n",
       "    Message('note_off', channel=0, note=43, velocity=0, time=0),\n",
       "    Message('note_on', channel=0, note=43, velocity=50, time=0),\n",
       "    Message('note_on', channel=0, note=52, velocity=50, time=0),\n",
       "    Message('note_on', channel=0, note=74, velocity=50, time=0),\n",
       "    Message('note_on', channel=0, note=67, velocity=50, time=0),\n",
       "    Message('note_on', channel=0, note=64, velocity=50, time=0),\n",
       "    Message('note_on', channel=0, note=62, velocity=50, time=0),\n",
       "    Message('note_off', channel=0, note=62, velocity=0, time=96),\n",
       "    Message('note_off', channel=0, note=64, velocity=0, time=0),\n",
       "    Message('note_off', channel=0, note=67, velocity=0, time=0),\n",
       "    Message('note_off', channel=0, note=74, velocity=0, time=0),\n",
       "    Message('note_off', channel=0, note=52, velocity=0, time=0),\n",
       "    Message('note_off', channel=0, note=43, velocity=0, time=0),\n",
       "    Message('note_on', channel=0, note=43, velocity=50, time=0),\n",
       "    Message('note_on', channel=0, note=53, velocity=50, time=0),\n",
       "    Message('note_on', channel=0, note=74, velocity=50, time=0),\n",
       "    Message('note_on', channel=0, note=67, velocity=50, time=0),\n",
       "    Message('note_on', channel=0, note=65, velocity=50, time=0),\n",
       "    Message('note_on', channel=0, note=62, velocity=50, time=0),\n",
       "    Message('note_off', channel=0, note=62, velocity=0, time=96),\n",
       "    Message('note_off', channel=0, note=65, velocity=0, time=0),\n",
       "    Message('note_off', channel=0, note=67, velocity=0, time=0),\n",
       "    Message('note_off', channel=0, note=74, velocity=0, time=0),\n",
       "    Message('note_off', channel=0, note=53, velocity=0, time=0),\n",
       "    Message('note_off', channel=0, note=43, velocity=0, time=0),\n",
       "    Message('note_on', channel=0, note=43, velocity=50, time=0),\n",
       "    Message('note_on', channel=0, note=53, velocity=50, time=0),\n",
       "    Message('note_off', channel=0, note=53, velocity=0, time=96),\n",
       "    Message('note_off', channel=0, note=43, velocity=0, time=0),\n",
       "    Message('note_on', channel=0, note=43, velocity=50, time=0),\n",
       "    Message('note_on', channel=0, note=53, velocity=50, time=0),\n",
       "    Message('note_off', channel=0, note=53, velocity=0, time=96),\n",
       "    Message('note_off', channel=0, note=43, velocity=0, time=0),\n",
       "    Message('note_on', channel=0, note=67, velocity=50, time=96),\n",
       "    Message('note_on', channel=0, note=65, velocity=50, time=0),\n",
       "    Message('note_off', channel=0, note=65, velocity=0, time=96),\n",
       "    Message('note_off', channel=0, note=67, velocity=0, time=0),\n",
       "    Message('note_on', channel=0, note=43, velocity=50, time=96),\n",
       "    Message('note_on', channel=0, note=53, velocity=50, time=0),\n",
       "    Message('note_off', channel=0, note=53, velocity=0, time=96),\n",
       "    Message('note_off', channel=0, note=43, velocity=0, time=0),\n",
       "    Message('note_on', channel=0, note=43, velocity=50, time=0),\n",
       "    Message('note_on', channel=0, note=53, velocity=50, time=0),\n",
       "    Message('note_off', channel=0, note=53, velocity=0, time=96),\n",
       "    Message('note_off', channel=0, note=43, velocity=0, time=0),\n",
       "    Message('note_on', channel=0, note=43, velocity=50, time=0),\n",
       "    Message('note_on', channel=0, note=52, velocity=50, time=0),\n",
       "    Message('note_off', channel=0, note=52, velocity=0, time=96),\n",
       "    Message('note_off', channel=0, note=43, velocity=0, time=0),\n",
       "    Message('note_on', channel=0, note=43, velocity=50, time=288),\n",
       "    Message('note_on', channel=0, note=52, velocity=50, time=0),\n",
       "    Message('note_off', channel=0, note=52, velocity=0, time=96),\n",
       "    Message('note_off', channel=0, note=43, velocity=0, time=0),\n",
       "    Message('note_on', channel=0, note=43, velocity=50, time=0),\n",
       "    Message('note_on', channel=0, note=52, velocity=50, time=0),\n",
       "    Message('note_off', channel=0, note=52, velocity=0, time=96),\n",
       "    Message('note_off', channel=0, note=43, velocity=0, time=0),\n",
       "    Message('note_on', channel=0, note=43, velocity=50, time=0),\n",
       "    Message('note_on', channel=0, note=52, velocity=50, time=0),\n",
       "    Message('note_off', channel=0, note=52, velocity=0, time=96),\n",
       "    Message('note_off', channel=0, note=43, velocity=0, time=0),\n",
       "    Message('note_on', channel=0, note=43, velocity=50, time=0),\n",
       "    Message('note_on', channel=0, note=52, velocity=50, time=0),\n",
       "    Message('note_off', channel=0, note=52, velocity=0, time=96),\n",
       "    Message('note_off', channel=0, note=43, velocity=0, time=0),\n",
       "    Message('note_on', channel=0, note=43, velocity=50, time=0),\n",
       "    Message('note_on', channel=0, note=51, velocity=50, time=0),\n",
       "    Message('note_on', channel=0, note=74, velocity=50, time=0),\n",
       "    Message('note_on', channel=0, note=67, velocity=50, time=0),\n",
       "    Message('note_on', channel=0, note=63, velocity=50, time=0),\n",
       "    Message('note_on', channel=0, note=62, velocity=50, time=0),\n",
       "    Message('note_off', channel=0, note=62, velocity=0, time=96),\n",
       "    Message('note_off', channel=0, note=63, velocity=0, time=0),\n",
       "    Message('note_off', channel=0, note=67, velocity=0, time=0),\n",
       "    Message('note_off', channel=0, note=74, velocity=0, time=0),\n",
       "    Message('note_off', channel=0, note=51, velocity=0, time=0),\n",
       "    Message('note_off', channel=0, note=43, velocity=0, time=0),\n",
       "    Message('note_on', channel=0, note=43, velocity=50, time=0),\n",
       "    Message('note_on', channel=0, note=51, velocity=50, time=0),\n",
       "    Message('note_off', channel=0, note=51, velocity=0, time=96),\n",
       "    Message('note_off', channel=0, note=43, velocity=0, time=0),\n",
       "    Message('note_on', channel=0, note=43, velocity=50, time=0),\n",
       "    Message('note_on', channel=0, note=51, velocity=50, time=0),\n",
       "    Message('note_off', channel=0, note=51, velocity=0, time=96),\n",
       "    Message('note_off', channel=0, note=43, velocity=0, time=0),\n",
       "    Message('note_on', channel=0, note=72, velocity=50, time=96),\n",
       "    Message('note_on', channel=0, note=60, velocity=50, time=0),\n",
       "    Message('note_on', channel=0, note=63, velocity=50, time=0),\n",
       "    Message('note_on', channel=0, note=67, velocity=50, time=0),\n",
       "    Message('note_off', channel=0, note=67, velocity=0, time=96),\n",
       "    Message('note_off', channel=0, note=63, velocity=0, time=0),\n",
       "    Message('note_off', channel=0, note=60, velocity=0, time=0),\n",
       "    Message('note_off', channel=0, note=72, velocity=0, time=0),\n",
       "    Message('note_on', channel=0, note=43, velocity=50, time=96),\n",
       "    Message('note_on', channel=0, note=51, velocity=50, time=0),\n",
       "    Message('note_off', channel=0, note=51, velocity=0, time=96),\n",
       "    Message('note_off', channel=0, note=43, velocity=0, time=0),\n",
       "    Message('note_on', channel=0, note=43, velocity=50, time=0),\n",
       "    Message('note_on', channel=0, note=51, velocity=50, time=0),\n",
       "    Message('note_on', channel=0, note=70, velocity=50, time=0),\n",
       "    Message('note_on', channel=0, note=58, velocity=50, time=0),\n",
       "    Message('note_off', channel=0, note=58, velocity=0, time=96),\n",
       "    Message('note_off', channel=0, note=70, velocity=0, time=0),\n",
       "    Message('note_off', channel=0, note=51, velocity=0, time=0),\n",
       "    Message('note_off', channel=0, note=43, velocity=0, time=0),\n",
       "    Message('note_on', channel=0, note=43, velocity=50, time=0),\n",
       "    Message('note_on', channel=0, note=39, velocity=50, time=0),\n",
       "    Message('note_on', channel=0, note=70, velocity=50, time=0),\n",
       "    Message('note_on', channel=0, note=63, velocity=50, time=0),\n",
       "    Message('note_on', channel=0, note=58, velocity=50, time=0),\n",
       "    Message('note_off', channel=0, note=58, velocity=0, time=96),\n",
       "    Message('note_off', channel=0, note=63, velocity=0, time=0),\n",
       "    Message('note_off', channel=0, note=70, velocity=0, time=0),\n",
       "    Message('note_off', channel=0, note=39, velocity=0, time=0),\n",
       "    Message('note_off', channel=0, note=43, velocity=0, time=0),\n",
       "    Message('note_on', channel=0, note=43, velocity=50, time=288),\n",
       "    Message('note_on', channel=0, note=36, velocity=50, time=0),\n",
       "    Message('note_on', channel=0, note=57, velocity=50, time=0),\n",
       "    Message('note_on', channel=0, note=63, velocity=50, time=0),\n",
       "    Message('note_on', channel=0, note=69, velocity=50, time=0),\n",
       "    Message('note_off', channel=0, note=69, velocity=0, time=96),\n",
       "    Message('note_off', channel=0, note=63, velocity=0, time=0),\n",
       "    Message('note_off', channel=0, note=57, velocity=0, time=0),\n",
       "    Message('note_off', channel=0, note=36, velocity=0, time=0),\n",
       "    Message('note_off', channel=0, note=43, velocity=0, time=0),\n",
       "    Message('note_on', channel=0, note=62, velocity=50, time=288),\n",
       "    Message('note_on', channel=0, note=67, velocity=50, time=0),\n",
       "    Message('note_on', channel=0, note=55, velocity=50, time=0),\n",
       "    Message('note_on', channel=0, note=43, velocity=50, time=0),\n",
       "    Message('note_on', channel=0, note=31, velocity=50, time=0),\n",
       "    Message('note_on', channel=0, note=43, velocity=50, time=0),\n",
       "    Message('note_on', channel=0, note=31, velocity=50, time=0),\n",
       "    Message('note_off', channel=0, note=31, velocity=0, time=96),\n",
       "    Message('note_off', channel=0, note=43, velocity=0, time=0),\n",
       "    Message('note_off', channel=0, note=31, velocity=0, time=0),\n",
       "    Message('note_off', channel=0, note=43, velocity=0, time=0),\n",
       "    Message('note_off', channel=0, note=55, velocity=0, time=0),\n",
       "    Message('note_off', channel=0, note=67, velocity=0, time=0),\n",
       "    Message('note_off', channel=0, note=62, velocity=0, time=0),\n",
       "    Message('note_on', channel=0, note=43, velocity=50, time=480),\n",
       "    Message('note_on', channel=0, note=50, velocity=50, time=0),\n",
       "    Message('note_on', channel=0, note=43, velocity=50, time=0),\n",
       "    Message('note_on', channel=0, note=50, velocity=50, time=0),\n",
       "    Message('note_off', channel=0, note=50, velocity=0, time=96),\n",
       "    Message('note_off', channel=0, note=43, velocity=0, time=0),\n",
       "    Message('note_off', channel=0, note=50, velocity=0, time=0),\n",
       "    Message('note_off', channel=0, note=43, velocity=0, time=0),\n",
       "    Message('note_on', channel=0, note=43, velocity=50, time=0),\n",
       "    Message('note_on', channel=0, note=50, velocity=50, time=0),\n",
       "    Message('note_on', channel=0, note=43, velocity=50, time=0),\n",
       "    Message('note_on', channel=0, note=50, velocity=50, time=0),\n",
       "    Message('note_off', channel=0, note=50, velocity=0, time=96),\n",
       "    Message('note_off', channel=0, note=43, velocity=0, time=0),\n",
       "    Message('note_off', channel=0, note=50, velocity=0, time=0),\n",
       "    Message('note_off', channel=0, note=43, velocity=0, time=0),\n",
       "    Message('note_on', channel=0, note=43, velocity=50, time=0),\n",
       "    Message('note_on', channel=0, note=50, velocity=50, time=0),\n",
       "    Message('note_on', channel=0, note=43, velocity=50, time=0),\n",
       "    Message('note_on', channel=0, note=50, velocity=50, time=0),\n",
       "    Message('note_off', channel=0, note=50, velocity=0, time=96),\n",
       "    Message('note_off', channel=0, note=43, velocity=0, time=0),\n",
       "    Message('note_off', channel=0, note=50, velocity=0, time=0),\n",
       "    Message('note_off', channel=0, note=43, velocity=0, time=0),\n",
       "    Message('note_on', channel=0, note=43, velocity=50, time=288),\n",
       "    Message('note_on', channel=0, note=50, velocity=50, time=0),\n",
       "    Message('note_on', channel=0, note=50, velocity=50, time=0),\n",
       "    Message('note_on', channel=0, note=43, velocity=50, time=0),\n",
       "    Message('note_off', channel=0, note=43, velocity=0, time=96),\n",
       "    Message('note_off', channel=0, note=50, velocity=0, time=0),\n",
       "    Message('note_off', channel=0, note=50, velocity=0, time=0),\n",
       "    Message('note_off', channel=0, note=43, velocity=0, time=0),\n",
       "    Message('note_on', channel=0, note=74, velocity=50, time=288),\n",
       "    Message('note_on', channel=0, note=67, velocity=50, time=0),\n",
       "    Message('note_on', channel=0, note=64, velocity=50, time=0),\n",
       "    Message('note_on', channel=0, note=62, velocity=50, time=0),\n",
       "    Message('note_on', channel=0, note=43, velocity=50, time=0),\n",
       "    Message('note_on', channel=0, note=31, velocity=50, time=0),\n",
       "    Message('note_on', channel=0, note=43, velocity=50, time=0),\n",
       "    Message('note_on', channel=0, note=31, velocity=50, time=0),\n",
       "    Message('note_off', channel=0, note=31, velocity=0, time=96),\n",
       "    Message('note_off', channel=0, note=43, velocity=0, time=0),\n",
       "    Message('note_off', channel=0, note=31, velocity=0, time=0),\n",
       "    Message('note_off', channel=0, note=43, velocity=0, time=0),\n",
       "    Message('note_off', channel=0, note=62, velocity=0, time=0),\n",
       "    Message('note_off', channel=0, note=64, velocity=0, time=0),\n",
       "    Message('note_off', channel=0, note=67, velocity=0, time=0),\n",
       "    Message('note_off', channel=0, note=74, velocity=0, time=0),\n",
       "    Message('note_on', channel=0, note=72, velocity=50, time=288),\n",
       "    Message('note_on', channel=0, note=67, velocity=50, time=0),\n",
       "    Message('note_on', channel=0, note=63, velocity=50, time=0),\n",
       "    Message('note_on', channel=0, note=60, velocity=50, time=0),\n",
       "    Message('note_off', channel=0, note=60, velocity=0, time=96),\n",
       "    Message('note_off', channel=0, note=63, velocity=0, time=0),\n",
       "    Message('note_off', channel=0, note=67, velocity=0, time=0),\n",
       "    Message('note_off', channel=0, note=72, velocity=0, time=0),\n",
       "    Message('note_on', channel=0, note=43, velocity=50, time=96),\n",
       "    Message('note_on', channel=0, note=51, velocity=50, time=0),\n",
       "    Message('note_on', channel=0, note=43, velocity=50, time=0),\n",
       "    Message('note_off', channel=0, note=43, velocity=0, time=96),\n",
       "    Message('note_off', channel=0, note=51, velocity=0, time=0),\n",
       "    Message('note_off', channel=0, note=43, velocity=0, time=0),\n",
       "    Message('note_on', channel=0, note=70, velocity=50, time=0),\n",
       "    Message('note_on', channel=0, note=58, velocity=50, time=0),\n",
       "    Message('note_on', channel=0, note=43, velocity=50, time=0),\n",
       "    Message('note_on', channel=0, note=51, velocity=50, time=0),\n",
       "    Message('note_on', channel=0, note=43, velocity=50, time=0),\n",
       "    Message('note_off', channel=0, note=43, velocity=0, time=96),\n",
       "    Message('note_off', channel=0, note=51, velocity=0, time=0),\n",
       "    Message('note_off', channel=0, note=43, velocity=0, time=0),\n",
       "    Message('note_off', channel=0, note=58, velocity=0, time=0),\n",
       "    Message('note_off', channel=0, note=70, velocity=0, time=0),\n",
       "    Message('note_on', channel=0, note=70, velocity=50, time=0),\n",
       "    Message('note_on', channel=0, note=64, velocity=50, time=0),\n",
       "    Message('note_on', channel=0, note=58, velocity=50, time=0),\n",
       "    Message('note_on', channel=0, note=43, velocity=50, time=0),\n",
       "    Message('note_on', channel=0, note=52, velocity=50, time=0),\n",
       "    Message('note_on', channel=0, note=43, velocity=50, time=0),\n",
       "    Message('note_off', channel=0, note=43, velocity=0, time=96),\n",
       "    Message('note_off', channel=0, note=52, velocity=0, time=0),\n",
       "    Message('note_off', channel=0, note=43, velocity=0, time=0),\n",
       "    Message('note_off', channel=0, note=58, velocity=0, time=0),\n",
       "    Message('note_off', channel=0, note=64, velocity=0, time=0),\n",
       "    Message('note_off', channel=0, note=70, velocity=0, time=0),\n",
       "    Message('note_on', channel=0, note=60, velocity=50, time=288),\n",
       "    Message('note_on', channel=0, note=64, velocity=50, time=0),\n",
       "    Message('note_on', channel=0, note=72, velocity=50, time=0),\n",
       "    Message('note_on', channel=0, note=43, velocity=50, time=0),\n",
       "    Message('note_on', channel=0, note=52, velocity=50, time=0),\n",
       "    Message('note_on', channel=0, note=43, velocity=50, time=0),\n",
       "    Message('note_off', channel=0, note=43, velocity=0, time=96),\n",
       "    Message('note_off', channel=0, note=52, velocity=0, time=0),\n",
       "    Message('note_off', channel=0, note=43, velocity=0, time=0),\n",
       "    Message('note_off', channel=0, note=72, velocity=0, time=0),\n",
       "    Message('note_off', channel=0, note=64, velocity=0, time=0),\n",
       "    Message('note_off', channel=0, note=60, velocity=0, time=0),\n",
       "    Message('note_on', channel=0, note=74, velocity=50, time=192),\n",
       "    Message('note_on', channel=0, note=67, velocity=50, time=0),\n",
       "    Message('note_on', channel=0, note=64, velocity=50, time=0),\n",
       "    Message('note_on', channel=0, note=62, velocity=50, time=0),\n",
       "    Message('note_off', channel=0, note=62, velocity=0, time=96),\n",
       "    Message('note_off', channel=0, note=64, velocity=0, time=0),\n",
       "    Message('note_off', channel=0, note=67, velocity=0, time=0),\n",
       "    Message('note_off', channel=0, note=74, velocity=0, time=0),\n",
       "    Message('note_on', channel=0, note=65, velocity=50, time=0),\n",
       "    Message('note_on', channel=0, note=67, velocity=50, time=0),\n",
       "    Message('note_on', channel=0, note=74, velocity=50, time=0),\n",
       "    Message('note_on', channel=0, note=62, velocity=50, time=0),\n",
       "    Message('note_on', channel=0, note=43, velocity=50, time=0),\n",
       "    Message('note_on', channel=0, note=31, velocity=50, time=0),\n",
       "    Message('note_on', channel=0, note=43, velocity=50, time=0),\n",
       "    Message('note_on', channel=0, note=31, velocity=50, time=0),\n",
       "    Message('note_off', channel=0, note=31, velocity=0, time=96),\n",
       "    Message('note_off', channel=0, note=43, velocity=0, time=0),\n",
       "    Message('note_off', channel=0, note=31, velocity=0, time=0),\n",
       "    Message('note_off', channel=0, note=43, velocity=0, time=0),\n",
       "    Message('note_off', channel=0, note=62, velocity=0, time=0),\n",
       "    Message('note_off', channel=0, note=74, velocity=0, time=0),\n",
       "    Message('note_off', channel=0, note=67, velocity=0, time=0),\n",
       "    Message('note_off', channel=0, note=65, velocity=0, time=0),\n",
       "    Message('note_on', channel=0, note=65, velocity=50, time=288),\n",
       "    Message('note_on', channel=0, note=67, velocity=50, time=0),\n",
       "    Message('note_off', channel=0, note=67, velocity=0, time=96),\n",
       "    Message('note_off', channel=0, note=65, velocity=0, time=0),\n",
       "    Message('note_on', channel=0, note=43, velocity=50, time=96),\n",
       "    Message('note_on', channel=0, note=53, velocity=50, time=0),\n",
       "    Message('note_on', channel=0, note=43, velocity=50, time=0),\n",
       "    Message('note_off', channel=0, note=43, velocity=0, time=96),\n",
       "    Message('note_off', channel=0, note=53, velocity=0, time=0),\n",
       "    Message('note_off', channel=0, note=43, velocity=0, time=0),\n",
       "    Message('note_on', channel=0, note=43, velocity=50, time=0),\n",
       "    Message('note_on', channel=0, note=53, velocity=50, time=0),\n",
       "    Message('note_on', channel=0, note=43, velocity=50, time=0),\n",
       "    Message('note_off', channel=0, note=43, velocity=0, time=96),\n",
       "    Message('note_off', channel=0, note=53, velocity=0, time=0),\n",
       "    Message('note_off', channel=0, note=43, velocity=0, time=0),\n",
       "    Message('note_on', channel=0, note=43, velocity=50, time=0),\n",
       "    Message('note_on', channel=0, note=52, velocity=50, time=0),\n",
       "    Message('note_on', channel=0, note=43, velocity=50, time=0),\n",
       "    Message('note_off', channel=0, note=43, velocity=0, time=96),\n",
       "    Message('note_off', channel=0, note=52, velocity=0, time=0),\n",
       "    Message('note_off', channel=0, note=43, velocity=0, time=0),\n",
       "    Message('note_on', channel=0, note=43, velocity=50, time=288),\n",
       "    Message('note_on', channel=0, note=52, velocity=50, time=0),\n",
       "    Message('note_on', channel=0, note=43, velocity=50, time=0),\n",
       "    Message('note_off', channel=0, note=43, velocity=0, time=96),\n",
       "    Message('note_off', channel=0, note=52, velocity=0, time=0),\n",
       "    Message('note_off', channel=0, note=43, velocity=0, time=0),\n",
       "    Message('note_on', channel=0, note=74, velocity=50, time=288),\n",
       "    Message('note_on', channel=0, note=67, velocity=50, time=0),\n",
       "    Message('note_on', channel=0, note=63, velocity=50, time=0),\n",
       "    Message('note_on', channel=0, note=62, velocity=50, time=0),\n",
       "    Message('note_on', channel=0, note=43, velocity=50, time=0),\n",
       "    Message('note_on', channel=0, note=31, velocity=50, time=0),\n",
       "    Message('note_on', channel=0, note=31, velocity=50, time=0),\n",
       "    Message('note_on', channel=0, note=43, velocity=50, time=0),\n",
       "    Message('note_off', channel=0, note=43, velocity=0, time=96),\n",
       "    Message('note_off', channel=0, note=31, velocity=0, time=0),\n",
       "    Message('note_off', channel=0, note=31, velocity=0, time=0),\n",
       "    Message('note_off', channel=0, note=43, velocity=0, time=0),\n",
       "    Message('note_off', channel=0, note=62, velocity=0, time=0),\n",
       "    Message('note_off', channel=0, note=63, velocity=0, time=0),\n",
       "    Message('note_off', channel=0, note=67, velocity=0, time=0),\n",
       "    Message('note_off', channel=0, note=74, velocity=0, time=0),\n",
       "    Message('note_on', channel=0, note=72, velocity=50, time=288),\n",
       "    Message('note_on', channel=0, note=67, velocity=50, time=0),\n",
       "    Message('note_on', channel=0, note=63, velocity=50, time=0),\n",
       "    Message('note_on', channel=0, note=60, velocity=50, time=0),\n",
       "    Message('note_off', channel=0, note=60, velocity=0, time=96),\n",
       "    Message('note_off', channel=0, note=63, velocity=0, time=0),\n",
       "    Message('note_off', channel=0, note=67, velocity=0, time=0),\n",
       "    Message('note_off', channel=0, note=72, velocity=0, time=0),\n",
       "    Message('note_on', channel=0, note=43, velocity=50, time=96),\n",
       "    Message('note_on', channel=0, note=43, velocity=50, time=0),\n",
       "    Message('note_off', channel=0, note=43, velocity=0, time=96),\n",
       "    Message('note_off', channel=0, note=43, velocity=0, time=0),\n",
       "    Message('note_on', channel=0, note=70, velocity=50, time=0),\n",
       "    Message('note_on', channel=0, note=58, velocity=50, time=0),\n",
       "    Message('note_on', channel=0, note=43, velocity=50, time=0),\n",
       "    Message('note_on', channel=0, note=43, velocity=50, time=0),\n",
       "    Message('note_off', channel=0, note=43, velocity=0, time=96),\n",
       "    Message('note_off', channel=0, note=43, velocity=0, time=0),\n",
       "    Message('note_off', channel=0, note=58, velocity=0, time=0),\n",
       "    Message('note_off', channel=0, note=70, velocity=0, time=0),\n",
       "    Message('note_on', channel=0, note=70, velocity=50, time=0),\n",
       "    Message('note_on', channel=0, note=58, velocity=50, time=0),\n",
       "    Message('note_on', channel=0, note=63, velocity=50, time=0),\n",
       "    Message('note_on', channel=0, note=43, velocity=50, time=0),\n",
       "    Message('note_on', channel=0, note=39, velocity=50, time=0),\n",
       "    Message('note_on', channel=0, note=43, velocity=50, time=0),\n",
       "    Message('note_on', channel=0, note=39, velocity=50, time=0),\n",
       "    Message('note_off', channel=0, note=39, velocity=0, time=96),\n",
       "    Message('note_off', channel=0, note=43, velocity=0, time=0),\n",
       "    Message('note_off', channel=0, note=39, velocity=0, time=0),\n",
       "    Message('note_off', channel=0, note=43, velocity=0, time=0),\n",
       "    Message('note_off', channel=0, note=63, velocity=0, time=0),\n",
       "    Message('note_off', channel=0, note=58, velocity=0, time=0),\n",
       "    Message('note_off', channel=0, note=70, velocity=0, time=0),\n",
       "    Message('note_on', channel=0, note=69, velocity=50, time=288),\n",
       "    Message('note_on', channel=0, note=63, velocity=50, time=0),\n",
       "    Message('note_on', channel=0, note=57, velocity=50, time=0),\n",
       "    Message('note_on', channel=0, note=43, velocity=50, time=0),\n",
       "    Message('note_on', channel=0, note=36, velocity=50, time=0),\n",
       "    Message('note_on', channel=0, note=43, velocity=50, time=0),\n",
       "    Message('note_on', channel=0, note=36, velocity=50, time=0),\n",
       "    Message('note_off', channel=0, note=36, velocity=0, time=96),\n",
       "    Message('note_off', channel=0, note=43, velocity=0, time=0),\n",
       "    Message('note_off', channel=0, note=36, velocity=0, time=0),\n",
       "    Message('note_off', channel=0, note=43, velocity=0, time=0),\n",
       "    Message('note_off', channel=0, note=57, velocity=0, time=0),\n",
       "    Message('note_off', channel=0, note=63, velocity=0, time=0),\n",
       "    Message('note_off', channel=0, note=69, velocity=0, time=0),\n",
       "    Message('note_on', channel=0, note=67, velocity=50, time=288),\n",
       "    Message('note_on', channel=0, note=62, velocity=50, time=0),\n",
       "    Message('note_on', channel=0, note=55, velocity=50, time=0),\n",
       "    Message('note_on', channel=0, note=43, velocity=50, time=0),\n",
       "    Message('note_on', channel=0, note=31, velocity=50, time=0),\n",
       "    Message('note_off', channel=0, note=31, velocity=0, time=96),\n",
       "    Message('note_off', channel=0, note=43, velocity=0, time=0),\n",
       "    Message('note_off', channel=0, note=55, velocity=0, time=0),\n",
       "    Message('note_off', channel=0, note=62, velocity=0, time=0),\n",
       "    Message('note_off', channel=0, note=67, velocity=0, time=0),\n",
       "    Message('note_on', channel=0, note=43, velocity=50, time=480),\n",
       "    Message('note_on', channel=0, note=50, velocity=50, time=0),\n",
       "    Message('note_off', channel=0, note=50, velocity=0, time=96),\n",
       "    Message('note_off', channel=0, note=43, velocity=0, time=0),\n",
       "    Message('note_on', channel=0, note=43, velocity=50, time=0),\n",
       "    Message('note_on', channel=0, note=50, velocity=50, time=0),\n",
       "    Message('note_off', channel=0, note=50, velocity=0, time=96),\n",
       "    Message('note_off', channel=0, note=43, velocity=0, time=0),\n",
       "    Message('note_on', channel=0, note=43, velocity=50, time=0),\n",
       "    Message('note_on', channel=0, note=50, velocity=50, time=0),\n",
       "    Message('note_off', channel=0, note=50, velocity=0, time=96),\n",
       "    Message('note_off', channel=0, note=43, velocity=0, time=0),\n",
       "    Message('note_on', channel=0, note=50, velocity=50, time=288),\n",
       "    Message('note_on', channel=0, note=43, velocity=50, time=0),\n",
       "    Message('note_off', channel=0, note=43, velocity=0, time=96),\n",
       "    Message('note_off', channel=0, note=50, velocity=0, time=0),\n",
       "    Message('note_on', channel=0, note=74, velocity=50, time=288),\n",
       "    Message('note_on', channel=0, note=67, velocity=50, time=0),\n",
       "    Message('note_on', channel=0, note=64, velocity=50, time=0),\n",
       "    Message('note_on', channel=0, note=62, velocity=50, time=0),\n",
       "    Message('note_on', channel=0, note=43, velocity=50, time=0),\n",
       "    Message('note_on', channel=0, note=31, velocity=50, time=0),\n",
       "    Message('note_off', channel=0, note=31, velocity=0, time=96),\n",
       "    Message('note_off', channel=0, note=43, velocity=0, time=0),\n",
       "    Message('note_off', channel=0, note=62, velocity=0, time=0),\n",
       "    Message('note_off', channel=0, note=64, velocity=0, time=0),\n",
       "    Message('note_off', channel=0, note=67, velocity=0, time=0),\n",
       "    Message('note_off', channel=0, note=74, velocity=0, time=0),\n",
       "    Message('note_on', channel=0, note=72, velocity=50, time=288),\n",
       "    Message('note_on', channel=0, note=67, velocity=50, time=0),\n",
       "    Message('note_on', channel=0, note=63, velocity=50, time=0),\n",
       "    Message('note_on', channel=0, note=60, velocity=50, time=0),\n",
       "    Message('note_off', channel=0, note=60, velocity=0, time=96),\n",
       "    Message('note_off', channel=0, note=63, velocity=0, time=0),\n",
       "    Message('note_off', channel=0, note=67, velocity=0, time=0),\n",
       "    Message('note_off', channel=0, note=72, velocity=0, time=0),\n",
       "    Message('note_on', channel=0, note=43, velocity=50, time=96),\n",
       "    Message('note_on', channel=0, note=51, velocity=50, time=0),\n",
       "    Message('note_off', channel=0, note=51, velocity=0, time=96),\n",
       "    Message('note_off', channel=0, note=43, velocity=0, time=0),\n",
       "    Message('note_on', channel=0, note=70, velocity=50, time=0),\n",
       "    Message('note_on', channel=0, note=58, velocity=50, time=0),\n",
       "    Message('note_on', channel=0, note=43, velocity=50, time=0),\n",
       "    Message('note_on', channel=0, note=51, velocity=50, time=0),\n",
       "    Message('note_off', channel=0, note=51, velocity=0, time=96),\n",
       "    Message('note_off', channel=0, note=43, velocity=0, time=0),\n",
       "    Message('note_off', channel=0, note=58, velocity=0, time=0),\n",
       "    Message('note_off', channel=0, note=70, velocity=0, time=0),\n",
       "    Message('note_on', channel=0, note=70, velocity=50, time=0),\n",
       "    Message('note_on', channel=0, note=64, velocity=50, time=0),\n",
       "    Message('note_on', channel=0, note=58, velocity=50, time=0),\n",
       "    Message('note_on', channel=0, note=43, velocity=50, time=0),\n",
       "    Message('note_on', channel=0, note=52, velocity=50, time=0),\n",
       "    Message('note_off', channel=0, note=52, velocity=0, time=96),\n",
       "    Message('note_off', channel=0, note=43, velocity=0, time=0),\n",
       "    Message('note_off', channel=0, note=58, velocity=0, time=0),\n",
       "    Message('note_off', channel=0, note=64, velocity=0, time=0),\n",
       "    Message('note_off', channel=0, note=70, velocity=0, time=0),\n",
       "    Message('note_on', channel=0, note=72, velocity=50, time=288),\n",
       "    Message('note_on', channel=0, note=64, velocity=50, time=0),\n",
       "    Message('note_on', channel=0, note=60, velocity=50, time=0),\n",
       "    Message('note_on', channel=0, note=43, velocity=50, time=0),\n",
       "    Message('note_on', channel=0, note=52, velocity=50, time=0),\n",
       "    Message('note_off', channel=0, note=52, velocity=0, time=96),\n",
       "    Message('note_off', channel=0, note=43, velocity=0, time=0),\n",
       "    Message('note_off', channel=0, note=60, velocity=0, time=0),\n",
       "    Message('note_off', channel=0, note=64, velocity=0, time=0),\n",
       "    Message('note_off', channel=0, note=72, velocity=0, time=0),\n",
       "    Message('note_on', channel=0, note=74, velocity=50, time=192),\n",
       "    Message('note_on', channel=0, note=67, velocity=50, time=0),\n",
       "    Message('note_on', channel=0, note=64, velocity=50, time=0),\n",
       "    Message('note_on', channel=0, note=62, velocity=50, time=0),\n",
       "    Message('note_off', channel=0, note=62, velocity=0, time=96),\n",
       "    Message('note_off', channel=0, note=64, velocity=0, time=0),\n",
       "    Message('note_off', channel=0, note=67, velocity=0, time=0),\n",
       "    Message('note_off', channel=0, note=74, velocity=0, time=0),\n",
       "    Message('note_on', channel=0, note=74, velocity=50, time=0),\n",
       "    Message('note_on', channel=0, note=67, velocity=50, time=0),\n",
       "    Message('note_on', channel=0, note=65, velocity=50, time=0),\n",
       "    Message('note_on', channel=0, note=62, velocity=50, time=0),\n",
       "    Message('note_on', channel=0, note=43, velocity=50, time=0),\n",
       "    Message('note_on', channel=0, note=31, velocity=50, time=0),\n",
       "    Message('note_off', channel=0, note=31, velocity=0, time=96),\n",
       "    Message('note_off', channel=0, note=43, velocity=0, time=0),\n",
       "    Message('note_off', channel=0, note=62, velocity=0, time=0),\n",
       "    Message('note_off', channel=0, note=65, velocity=0, time=0),\n",
       "    Message('note_off', channel=0, note=67, velocity=0, time=0),\n",
       "    Message('note_off', channel=0, note=74, velocity=0, time=0),\n",
       "    Message('note_on', channel=0, note=67, velocity=50, time=288),\n",
       "    Message('note_on', channel=0, note=65, velocity=50, time=0),\n",
       "    Message('note_off', channel=0, note=65, velocity=0, time=96),\n",
       "    Message('note_off', channel=0, note=67, velocity=0, time=0),\n",
       "    Message('note_on', channel=0, note=43, velocity=50, time=96),\n",
       "    Message('note_on', channel=0, note=53, velocity=50, time=0),\n",
       "    Message('note_off', channel=0, note=53, velocity=0, time=96),\n",
       "    Message('note_off', channel=0, note=43, velocity=0, time=0),\n",
       "    Message('note_on', channel=0, note=43, velocity=50, time=0),\n",
       "    Message('note_on', channel=0, note=53, velocity=50, time=0),\n",
       "    Message('note_off', channel=0, note=53, velocity=0, time=96),\n",
       "    Message('note_off', channel=0, note=43, velocity=0, time=0),\n",
       "    Message('note_on', channel=0, note=43, velocity=50, time=0),\n",
       "    Message('note_on', channel=0, note=52, velocity=50, time=0),\n",
       "    Message('note_off', channel=0, note=52, velocity=0, time=96),\n",
       "    Message('note_off', channel=0, note=43, velocity=0, time=0),\n",
       "    Message('note_on', channel=0, note=43, velocity=50, time=288),\n",
       "    Message('note_on', channel=0, note=52, velocity=50, time=0),\n",
       "    Message('note_off', channel=0, note=52, velocity=0, time=96),\n",
       "    Message('note_off', channel=0, note=43, velocity=0, time=0),\n",
       "    Message('note_on', channel=0, note=74, velocity=50, time=288),\n",
       "    Message('note_on', channel=0, note=67, velocity=50, time=0),\n",
       "    Message('note_on', channel=0, note=63, velocity=50, time=0),\n",
       "    Message('note_on', channel=0, note=62, velocity=50, time=0),\n",
       "    Message('note_on', channel=0, note=31, velocity=50, time=0),\n",
       "    Message('note_on', channel=0, note=43, velocity=50, time=0),\n",
       "    Message('note_off', channel=0, note=43, velocity=0, time=96),\n",
       "    Message('note_off', channel=0, note=31, velocity=0, time=0),\n",
       "    Message('note_off', channel=0, note=62, velocity=0, time=0),\n",
       "    Message('note_off', channel=0, note=63, velocity=0, time=0),\n",
       "    Message('note_off', channel=0, note=67, velocity=0, time=0),\n",
       "    Message('note_off', channel=0, note=74, velocity=0, time=0),\n",
       "    Message('note_on', channel=0, note=72, velocity=50, time=288),\n",
       "    Message('note_on', channel=0, note=67, velocity=50, time=0),\n",
       "    Message('note_on', channel=0, note=63, velocity=50, time=0),\n",
       "    Message('note_on', channel=0, note=60, velocity=50, time=0),\n",
       "    Message('note_off', channel=0, note=60, velocity=0, time=96),\n",
       "    Message('note_off', channel=0, note=63, velocity=0, time=0),\n",
       "    Message('note_off', channel=0, note=67, velocity=0, time=0),\n",
       "    Message('note_off', channel=0, note=72, velocity=0, time=0),\n",
       "    Message('note_on', channel=0, note=43, velocity=50, time=96),\n",
       "    Message('note_off', channel=0, note=43, velocity=0, time=96),\n",
       "    Message('note_on', channel=0, note=70, velocity=50, time=0),\n",
       "    Message('note_on', channel=0, note=58, velocity=50, time=0),\n",
       "    Message('note_on', channel=0, note=43, velocity=50, time=0),\n",
       "    Message('note_off', channel=0, note=43, velocity=0, time=96),\n",
       "    Message('note_off', channel=0, note=58, velocity=0, time=0),\n",
       "    Message('note_off', channel=0, note=70, velocity=0, time=0),\n",
       "    Message('note_on', channel=0, note=70, velocity=50, time=0),\n",
       "    Message('note_on', channel=0, note=63, velocity=50, time=0),\n",
       "    Message('note_on', channel=0, note=58, velocity=50, time=0),\n",
       "    Message('note_on', channel=0, note=43, velocity=50, time=0),\n",
       "    Message('note_on', channel=0, note=39, velocity=50, time=0),\n",
       "    Message('note_off', channel=0, note=39, velocity=0, time=96),\n",
       "    Message('note_off', channel=0, note=43, velocity=0, time=0),\n",
       "    Message('note_off', channel=0, note=58, velocity=0, time=0),\n",
       "    Message('note_off', channel=0, note=63, velocity=0, time=0),\n",
       "    Message('note_off', channel=0, note=70, velocity=0, time=0),\n",
       "    Message('note_on', channel=0, note=69, velocity=50, time=288),\n",
       "    Message('note_on', channel=0, note=63, velocity=50, time=0),\n",
       "    Message('note_on', channel=0, note=57, velocity=50, time=0),\n",
       "    Message('note_on', channel=0, note=43, velocity=50, time=0),\n",
       "    Message('note_on', channel=0, note=36, velocity=50, time=0),\n",
       "    Message('note_off', channel=0, note=36, velocity=0, time=96),\n",
       "    Message('note_off', channel=0, note=43, velocity=0, time=0),\n",
       "    Message('note_off', channel=0, note=57, velocity=0, time=0),\n",
       "    Message('note_off', channel=0, note=63, velocity=0, time=0),\n",
       "    Message('note_off', channel=0, note=69, velocity=0, time=0),\n",
       "    Message('note_on', channel=0, note=55, velocity=50, time=288),\n",
       "    Message('note_on', channel=0, note=62, velocity=50, time=0),\n",
       "    Message('note_on', channel=0, note=67, velocity=50, time=0),\n",
       "    Message('note_on', channel=0, note=43, velocity=50, time=0),\n",
       "    Message('note_off', channel=0, note=43, velocity=0, time=96),\n",
       "    Message('note_off', channel=0, note=67, velocity=0, time=0),\n",
       "    Message('note_off', channel=0, note=62, velocity=0, time=0),\n",
       "    Message('note_off', channel=0, note=55, velocity=0, time=0),\n",
       "    Message('note_on', channel=0, note=55, velocity=50, time=288),\n",
       "    Message('note_off', channel=0, note=55, velocity=0, time=96),\n",
       "    Message('note_on', channel=0, note=60, velocity=50, time=1056),\n",
       "    Message('note_on', channel=0, note=64, velocity=50, time=0),\n",
       "    Message('note_on', channel=0, note=67, velocity=50, time=0),\n",
       "    Message('note_on', channel=0, note=72, velocity=50, time=0),\n",
       "    Message('note_on', channel=0, note=52, velocity=50, time=0),\n",
       "    Message('note_on', channel=0, note=43, velocity=50, time=0),\n",
       "    Message('note_on', channel=0, note=36, velocity=50, time=0),\n",
       "    Message('note_off', channel=0, note=36, velocity=0, time=96),\n",
       "    Message('note_off', channel=0, note=43, velocity=0, time=0),\n",
       "    Message('note_off', channel=0, note=52, velocity=0, time=0),\n",
       "    Message('note_off', channel=0, note=72, velocity=0, time=0),\n",
       "    Message('note_off', channel=0, note=67, velocity=0, time=0),\n",
       "    Message('note_off', channel=0, note=64, velocity=0, time=0),\n",
       "    Message('note_off', channel=0, note=60, velocity=0, time=0),\n",
       "    Message('note_on', channel=0, note=60, velocity=50, time=672),\n",
       "    Message('note_off', channel=0, note=60, velocity=0, time=96),\n",
       "    Message('note_on', channel=0, note=55, velocity=50, time=480),\n",
       "    Message('note_off', channel=0, note=55, velocity=0, time=96),\n",
       "    Message('note_on', channel=0, note=62, velocity=50, time=96),\n",
       "    Message('note_on', channel=0, note=50, velocity=50, time=0),\n",
       "    Message('note_off', channel=0, note=50, velocity=0, time=96),\n",
       "    Message('note_off', channel=0, note=62, velocity=0, time=0),\n",
       "    Message('note_on', channel=0, note=58, velocity=50, time=96),\n",
       "    Message('note_on', channel=0, note=46, velocity=50, time=0),\n",
       "    Message('note_off', channel=0, note=46, velocity=0, time=96),\n",
       "    Message('note_off', channel=0, note=58, velocity=0, time=0),\n",
       "    Message('note_on', channel=0, note=55, velocity=50, time=96),\n",
       "    Message('note_on', channel=0, note=43, velocity=50, time=0),\n",
       "    Message('note_off', channel=0, note=43, velocity=0, time=96),\n",
       "    Message('note_off', channel=0, note=55, velocity=0, time=0),\n",
       "    Message('note_on', channel=0, note=58, velocity=50, time=288),\n",
       "    Message('note_on', channel=0, note=62, velocity=50, time=0),\n",
       "    Message('note_on', channel=0, note=67, velocity=50, time=0),\n",
       "    Message('note_on', channel=0, note=55, velocity=50, time=0),\n",
       "    Message('note_off', channel=0, note=55, velocity=0, time=96),\n",
       "    Message('note_off', channel=0, note=67, velocity=0, time=0),\n",
       "    Message('note_off', channel=0, note=62, velocity=0, time=0),\n",
       "    Message('note_off', channel=0, note=58, velocity=0, time=0),\n",
       "    Message('note_on', channel=0, note=68, velocity=50, time=672),\n",
       "    Message('note_on', channel=0, note=63, velocity=50, time=0),\n",
       "    Message('note_on', channel=0, note=60, velocity=50, time=0),\n",
       "    Message('note_on', channel=0, note=56, velocity=50, time=0),\n",
       "    Message('note_on', channel=0, note=44, velocity=50, time=0),\n",
       "    Message('note_on', channel=0, note=32, velocity=50, time=0),\n",
       "    Message('note_off', channel=0, note=32, velocity=0, time=96),\n",
       "    Message('note_off', channel=0, note=44, velocity=0, time=0),\n",
       "    Message('note_off', channel=0, note=56, velocity=0, time=0),\n",
       "    Message('note_off', channel=0, note=60, velocity=0, time=0),\n",
       "    Message('note_off', channel=0, note=63, velocity=0, time=0),\n",
       "    Message('note_off', channel=0, note=68, velocity=0, time=0),\n",
       "    Message('note_on', channel=0, note=67, velocity=50, time=672),\n",
       "    Message('note_on', channel=0, note=62, velocity=50, time=0),\n",
       "    Message('note_on', channel=0, note=58, velocity=50, time=0),\n",
       "    Message('note_on', channel=0, note=55, velocity=50, time=0),\n",
       "    Message('note_on', channel=0, note=43, velocity=50, time=0),\n",
       "    Message('note_on', channel=0, note=31, velocity=50, time=0),\n",
       "    Message('note_off', channel=0, note=31, velocity=0, time=96),\n",
       "    Message('note_off', channel=0, note=43, velocity=0, time=0),\n",
       "    Message('note_off', channel=0, note=55, velocity=0, time=0),\n",
       "    Message('note_off', channel=0, note=58, velocity=0, time=0),\n",
       "    Message('note_off', channel=0, note=62, velocity=0, time=0),\n",
       "    Message('note_off', channel=0, note=67, velocity=0, time=0),\n",
       "    Message('note_on', channel=0, note=60, velocity=50, time=672),\n",
       "    Message('note_on', channel=0, note=67, velocity=50, time=0),\n",
       "    Message('note_on', channel=0, note=72, velocity=50, time=0),\n",
       "    Message('note_off', channel=0, note=72, velocity=0, time=96),\n",
       "    Message('note_off', channel=0, note=67, velocity=0, time=0),\n",
       "    Message('note_off', channel=0, note=60, velocity=0, time=0),\n",
       "    Message('note_on', channel=0, note=60, velocity=50, time=288),\n",
       "    Message('note_off', channel=0, note=60, velocity=0, time=96),\n",
       "    Message('note_on', channel=0, note=72, velocity=50, time=288),\n",
       "    Message('note_off', channel=0, note=72, velocity=0, time=96),\n",
       "    Message('note_on', channel=0, note=48, velocity=50, time=672),\n",
       "    Message('note_on', channel=0, note=57, velocity=50, time=0),\n",
       "    Message('note_on', channel=0, note=41, velocity=50, time=0),\n",
       "    Message('note_on', channel=0, note=60, velocity=50, time=0),\n",
       "    Message('note_on', channel=0, note=72, velocity=50, time=0),\n",
       "    Message('note_on', channel=0, note=65, velocity=50, time=0),\n",
       "    Message('note_on', channel=0, note=69, velocity=50, time=0),\n",
       "    Message('note_off', channel=0, note=69, velocity=0, time=96),\n",
       "    Message('note_off', channel=0, note=65, velocity=0, time=0),\n",
       "    Message('note_off', channel=0, note=72, velocity=0, time=0),\n",
       "    Message('note_off', channel=0, note=60, velocity=0, time=0),\n",
       "    Message('note_off', channel=0, note=41, velocity=0, time=0),\n",
       "    Message('note_off', channel=0, note=57, velocity=0, time=0),\n",
       "    Message('note_off', channel=0, note=48, velocity=0, time=0),\n",
       "    Message('note_on', channel=0, note=65, velocity=50, time=672),\n",
       "    Message('note_on', channel=0, note=69, velocity=50, time=0),\n",
       "    Message('note_on', channel=0, note=72, velocity=50, time=0),\n",
       "    Message('note_on', channel=0, note=77, velocity=50, time=0),\n",
       "    Message('note_off', channel=0, note=77, velocity=0, time=96),\n",
       "    Message('note_off', channel=0, note=72, velocity=0, time=0),\n",
       "    Message('note_off', channel=0, note=69, velocity=0, time=0),\n",
       "    Message('note_off', channel=0, note=65, velocity=0, time=0),\n",
       "    Message('note_on', channel=0, note=60, velocity=50, time=576),\n",
       "    Message('note_on', channel=0, note=72, velocity=50, time=0),\n",
       "    Message('note_off', channel=0, note=72, velocity=0, time=96),\n",
       "    Message('note_off', channel=0, note=60, velocity=0, time=0),\n",
       "    Message('note_on', channel=0, note=62, velocity=50, time=0),\n",
       "    Message('note_on', channel=0, note=66, velocity=50, time=0),\n",
       "    Message('note_on', channel=0, note=69, velocity=50, time=0),\n",
       "    Message('note_on', channel=0, note=74, velocity=50, time=0),\n",
       "    Message('note_on', channel=0, note=50, velocity=50, time=0),\n",
       "    Message('note_on', channel=0, note=38, velocity=50, time=0),\n",
       "    Message('note_off', channel=0, note=38, velocity=0, time=96),\n",
       "    Message('note_off', channel=0, note=50, velocity=0, time=0),\n",
       "    Message('note_off', channel=0, note=74, velocity=0, time=0),\n",
       "    Message('note_off', channel=0, note=69, velocity=0, time=0),\n",
       "    Message('note_off', channel=0, note=66, velocity=0, time=0),\n",
       "    Message('note_off', channel=0, note=62, velocity=0, time=0),\n",
       "    Message('note_on', channel=0, note=42, velocity=50, time=96),\n",
       "    Message('note_off', channel=0, note=42, velocity=0, time=96),\n",
       "    Message('note_on', channel=0, note=45, velocity=50, time=96),\n",
       "    Message('note_off', channel=0, note=45, velocity=0, time=96),\n",
       "    Message('note_on', channel=0, note=50, velocity=50, time=96),\n",
       "    Message('note_off', channel=0, note=50, velocity=0, time=96),\n",
       "    Message('note_on', channel=0, note=74, velocity=50, time=96),\n",
       "    Message('note_on', channel=0, note=62, velocity=50, time=0),\n",
       "    Message('note_on', channel=0, note=54, velocity=50, time=0),\n",
       "    Message('note_off', channel=0, note=54, velocity=0, time=96),\n",
       "    Message('note_off', channel=0, note=62, velocity=0, time=0),\n",
       "    Message('note_off', channel=0, note=74, velocity=0, time=0),\n",
       "    Message('note_on', channel=0, note=55, velocity=50, time=96),\n",
       "    Message('note_off', channel=0, note=55, velocity=0, time=96),\n",
       "    Message('note_on', channel=0, note=57, velocity=50, time=96),\n",
       "    Message('note_off', channel=0, note=57, velocity=0, time=96),\n",
       "    Message('note_on', channel=0, note=62, velocity=50, time=96),\n",
       "    Message('note_off', channel=0, note=62, velocity=0, time=96),\n",
       "    Message('note_on', channel=0, note=66, velocity=50, time=96),\n",
       "    Message('note_on', channel=0, note=64, velocity=50, time=0),\n",
       "    Message('note_on', channel=0, note=59, velocity=50, time=0),\n",
       "    Message('note_on', channel=0, note=47, velocity=50, time=0),\n",
       "    Message('note_on', channel=0, note=35, velocity=50, time=0),\n",
       "    Message('note_off', channel=0, note=35, velocity=0, time=96),\n",
       "    Message('note_off', channel=0, note=47, velocity=0, time=0),\n",
       "    Message('note_off', channel=0, note=59, velocity=0, time=0),\n",
       "    Message('note_off', channel=0, note=64, velocity=0, time=0),\n",
       "    Message('note_off', channel=0, note=66, velocity=0, time=0),\n",
       "    Message('note_on', channel=0, note=42, velocity=50, time=96),\n",
       "    Message('note_off', channel=0, note=42, velocity=0, time=96),\n",
       "    Message('note_on', channel=0, note=59, velocity=50, time=96),\n",
       "    Message('note_on', channel=0, note=47, velocity=50, time=0),\n",
       "    Message('note_off', channel=0, note=47, velocity=0, time=96),\n",
       "    Message('note_off', channel=0, note=59, velocity=0, time=0),\n",
       "    Message('note_on', channel=0, note=51, velocity=50, time=96),\n",
       "    Message('note_off', channel=0, note=51, velocity=0, time=96),\n",
       "    Message('note_on', channel=0, note=59, velocity=50, time=96),\n",
       "    Message('note_on', channel=0, note=63, velocity=50, time=0),\n",
       "    Message('note_on', channel=0, note=66, velocity=50, time=0),\n",
       "    Message('note_on', channel=0, note=71, velocity=50, time=0),\n",
       "    Message('note_on', channel=0, note=47, velocity=50, time=0),\n",
       "    Message('note_on', channel=0, note=35, velocity=50, time=0),\n",
       "    Message('note_off', channel=0, note=35, velocity=0, time=96),\n",
       "    Message('note_off', channel=0, note=47, velocity=0, time=0),\n",
       "    Message('note_off', channel=0, note=71, velocity=0, time=0),\n",
       "    Message('note_off', channel=0, note=66, velocity=0, time=0),\n",
       "    Message('note_off', channel=0, note=63, velocity=0, time=0),\n",
       "    Message('note_off', channel=0, note=59, velocity=0, time=0),\n",
       "    Message('note_on', channel=0, note=35, velocity=50, time=288),\n",
       "    Message('note_off', channel=0, note=35, velocity=0, time=96),\n",
       "    Message('note_on', channel=0, note=67, velocity=50, time=288),\n",
       "    Message('note_on', channel=0, note=52, velocity=50, time=0),\n",
       "    Message('note_on', channel=0, note=47, velocity=50, time=0),\n",
       "    Message('note_on', channel=0, note=40, velocity=50, time=0),\n",
       "    Message('note_off', channel=0, note=40, velocity=0, time=96),\n",
       "    Message('note_off', channel=0, note=47, velocity=0, time=0),\n",
       "    Message('note_off', channel=0, note=52, velocity=0, time=0),\n",
       "    Message('note_off', channel=0, note=67, velocity=0, time=0),\n",
       "    Message('note_on', channel=0, note=64, velocity=50, time=96),\n",
       "    Message('note_off', channel=0, note=64, velocity=0, time=96),\n",
       "    Message('note_on', channel=0, note=64, velocity=50, time=96),\n",
       "    Message('note_off', channel=0, note=64, velocity=0, time=96),\n",
       "    Message('note_on', channel=0, note=67, velocity=50, time=96),\n",
       "    Message('note_off', channel=0, note=67, velocity=0, time=96),\n",
       "    Message('note_on', channel=0, note=67, velocity=50, time=96),\n",
       "    Message('note_off', channel=0, note=67, velocity=0, time=96),\n",
       "    Message('note_on', channel=0, note=64, velocity=50, time=96),\n",
       "    Message('note_off', channel=0, note=64, velocity=0, time=96),\n",
       "    Message('note_on', channel=0, note=64, velocity=50, time=96),\n",
       "    Message('note_off', channel=0, note=64, velocity=0, time=96),\n",
       "    Message('note_on', channel=0, note=67, velocity=50, time=96),\n",
       "    Message('note_on', channel=0, note=48, velocity=50, time=0),\n",
       "    Message('note_on', channel=0, note=36, velocity=50, time=0),\n",
       "    Message('note_off', channel=0, note=36, velocity=0, time=96),\n",
       "    Message('note_off', channel=0, note=48, velocity=0, time=0),\n",
       "    Message('note_off', channel=0, note=67, velocity=0, time=0),\n",
       "    Message('note_on', channel=0, note=67, velocity=50, time=96),\n",
       "    Message('note_on', channel=0, note=48, velocity=50, time=0),\n",
       "    Message('note_on', channel=0, note=36, velocity=50, time=0),\n",
       "    Message('note_off', channel=0, note=36, velocity=0, time=96),\n",
       "    Message('note_off', channel=0, note=48, velocity=0, time=0),\n",
       "    Message('note_off', channel=0, note=67, velocity=0, time=0),\n",
       "    Message('note_on', channel=0, note=64, velocity=50, time=96),\n",
       "    Message('note_off', channel=0, note=64, velocity=0, time=96),\n",
       "    Message('note_on', channel=0, note=52, velocity=50, time=96),\n",
       "    Message('note_on', channel=0, note=64, velocity=50, time=0),\n",
       "    Message('note_off', channel=0, note=64, velocity=0, time=96),\n",
       "    Message('note_off', channel=0, note=52, velocity=0, time=0),\n",
       "    Message('note_on', channel=0, note=67, velocity=50, time=96),\n",
       "    Message('note_off', channel=0, note=67, velocity=0, time=96),\n",
       "    Message('note_on', channel=0, note=52, velocity=50, time=96),\n",
       "    Message('note_on', channel=0, note=67, velocity=50, time=0),\n",
       "    Message('note_off', channel=0, note=67, velocity=0, time=96),\n",
       "    Message('note_off', channel=0, note=52, velocity=0, time=0),\n",
       "    Message('note_on', channel=0, note=64, velocity=50, time=96),\n",
       "    Message('note_off', channel=0, note=64, velocity=0, time=96),\n",
       "    Message('note_on', channel=0, note=64, velocity=50, time=96),\n",
       "    Message('note_off', channel=0, note=64, velocity=0, time=96),\n",
       "    Message('note_on', channel=0, note=59, velocity=50, time=96),\n",
       "    Message('note_on', channel=0, note=67, velocity=50, time=0),\n",
       "    Message('note_off', channel=0, note=67, velocity=0, time=96),\n",
       "    Message('note_off', channel=0, note=59, velocity=0, time=0),\n",
       "    Message('note_on', channel=0, note=67, velocity=50, time=96),\n",
       "    Message('note_on', channel=0, note=49, velocity=50, time=0),\n",
       "    Message('note_on', channel=0, note=37, velocity=50, time=0),\n",
       "    Message('note_on', channel=0, note=57, velocity=50, time=0),\n",
       "    Message('note_off', channel=0, note=57, velocity=0, time=96),\n",
       "    Message('note_off', channel=0, note=37, velocity=0, time=0),\n",
       "    Message('note_off', channel=0, note=49, velocity=0, time=0),\n",
       "    Message('note_off', channel=0, note=67, velocity=0, time=0),\n",
       "    Message('note_on', channel=0, note=64, velocity=50, time=96),\n",
       "    Message('note_off', channel=0, note=64, velocity=0, time=96),\n",
       "    Message('note_on', channel=0, note=64, velocity=50, time=96),\n",
       "    Message('note_off', channel=0, note=64, velocity=0, time=96),\n",
       "    Message('note_on', channel=0, note=67, velocity=50, time=96),\n",
       "    Message('note_off', channel=0, note=67, velocity=0, time=96),\n",
       "    Message('note_on', channel=0, note=67, velocity=50, time=96),\n",
       "    Message('note_off', channel=0, note=67, velocity=0, time=96),\n",
       "    Message('note_on', channel=0, note=64, velocity=50, time=96),\n",
       "    Message('note_off', channel=0, note=64, velocity=0, time=96),\n",
       "    Message('note_on', channel=0, note=64, velocity=50, time=96),\n",
       "    Message('note_off', channel=0, note=64, velocity=0, time=96),\n",
       "    Message('note_on', channel=0, note=36, velocity=50, time=96),\n",
       "    Message('note_on', channel=0, note=48, velocity=50, time=0),\n",
       "    Message('note_on', channel=0, note=67, velocity=50, time=0),\n",
       "    Message('note_off', channel=0, note=67, velocity=0, time=96),\n",
       "    Message('note_off', channel=0, note=48, velocity=0, time=0),\n",
       "    Message('note_off', channel=0, note=36, velocity=0, time=0),\n",
       "    Message('note_on', channel=0, note=36, velocity=50, time=96),\n",
       "    Message('note_on', channel=0, note=48, velocity=50, time=0),\n",
       "    Message('note_on', channel=0, note=67, velocity=50, time=0),\n",
       "    Message('note_on', channel=0, note=55, velocity=50, time=0),\n",
       "    Message('note_off', channel=0, note=55, velocity=0, time=96),\n",
       "    Message('note_off', channel=0, note=67, velocity=0, time=0),\n",
       "    Message('note_off', channel=0, note=48, velocity=0, time=0),\n",
       "    Message('note_off', channel=0, note=36, velocity=0, time=0),\n",
       "    Message('note_on', channel=0, note=64, velocity=50, time=96),\n",
       "    Message('note_off', channel=0, note=64, velocity=0, time=96),\n",
       "    Message('note_on', channel=0, note=64, velocity=50, time=96),\n",
       "    Message('note_off', channel=0, note=64, velocity=0, time=96),\n",
       "    Message('note_on', channel=0, note=67, velocity=50, time=96),\n",
       "    Message('note_off', channel=0, note=67, velocity=0, time=96),\n",
       "    Message('note_on', channel=0, note=50, velocity=50, time=96),\n",
       "    Message('note_on', channel=0, note=38, velocity=50, time=0),\n",
       "    Message('note_on', channel=0, note=55, velocity=50, time=0),\n",
       "    Message('note_on', channel=0, note=67, velocity=50, time=0),\n",
       "    Message('note_off', channel=0, note=67, velocity=0, time=96),\n",
       "    Message('note_off', channel=0, note=55, velocity=0, time=0),\n",
       "    Message('note_off', channel=0, note=38, velocity=0, time=0),\n",
       "    Message('note_off', channel=0, note=50, velocity=0, time=0),\n",
       "    Message('note_on', channel=0, note=64, velocity=50, time=96),\n",
       "    Message('note_off', channel=0, note=64, velocity=0, time=96),\n",
       "    Message('note_on', channel=0, note=64, velocity=50, time=96),\n",
       "    Message('note_off', channel=0, note=64, velocity=0, time=96),\n",
       "    Message('note_on', channel=0, note=67, velocity=50, time=96),\n",
       "    Message('note_off', channel=0, note=67, velocity=0, time=96),\n",
       "    Message('note_on', channel=0, note=67, velocity=50, time=96),\n",
       "    Message('note_on', channel=0, note=52, velocity=50, time=0),\n",
       "    Message('note_on', channel=0, note=40, velocity=50, time=0),\n",
       "    Message('note_off', channel=0, note=40, velocity=0, time=96),\n",
       "    Message('note_off', channel=0, note=52, velocity=0, time=0),\n",
       "    Message('note_off', channel=0, note=67, velocity=0, time=0),\n",
       "    Message('note_on', channel=0, note=64, velocity=50, time=96),\n",
       "    Message('note_off', channel=0, note=64, velocity=0, time=96),\n",
       "    Message('note_on', channel=0, note=64, velocity=50, time=96),\n",
       "    Message('note_off', channel=0, note=64, velocity=0, time=96),\n",
       "    Message('note_on', channel=0, note=67, velocity=50, time=96),\n",
       "    Message('note_off', channel=0, note=67, velocity=0, time=96),\n",
       "    Message('note_on', channel=0, note=67, velocity=50, time=96),\n",
       "    Message('note_off', channel=0, note=67, velocity=0, time=96),\n",
       "    Message('note_on', channel=0, note=64, velocity=50, time=96),\n",
       "    Message('note_off', channel=0, note=64, velocity=0, time=96),\n",
       "    Message('note_on', channel=0, note=64, velocity=50, time=96),\n",
       "    Message('note_off', channel=0, note=64, velocity=0, time=96),\n",
       "    Message('note_on', channel=0, note=67, velocity=50, time=96),\n",
       "    Message('note_off', channel=0, note=67, velocity=0, time=96),\n",
       "    Message('note_on', channel=0, note=67, velocity=50, time=96),\n",
       "    Message('note_on', channel=0, note=48, velocity=50, time=0),\n",
       "    Message('note_on', channel=0, note=36, velocity=50, time=0),\n",
       "    Message('note_off', channel=0, note=36, velocity=0, time=96),\n",
       "    Message('note_off', channel=0, note=48, velocity=0, time=0),\n",
       "    Message('note_off', channel=0, note=67, velocity=0, time=0),\n",
       "    Message('note_on', channel=0, note=64, velocity=50, time=96),\n",
       "    Message('note_off', channel=0, note=64, velocity=0, time=96),\n",
       "    Message('note_on', channel=0, note=52, velocity=50, time=96),\n",
       "    Message('note_on', channel=0, note=64, velocity=50, time=0),\n",
       "    Message('note_on', channel=0, note=67, velocity=50, time=0),\n",
       "    Message('note_on', channel=0, note=76, velocity=50, time=0),\n",
       "    Message('note_off', channel=0, note=76, velocity=0, time=96),\n",
       "    Message('note_off', channel=0, note=67, velocity=0, time=0),\n",
       "    Message('note_off', channel=0, note=64, velocity=0, time=0),\n",
       "    Message('note_off', channel=0, note=52, velocity=0, time=0),\n",
       "    Message('note_on', channel=0, note=67, velocity=50, time=96),\n",
       "    Message('note_off', channel=0, note=67, velocity=0, time=96),\n",
       "    Message('note_on', channel=0, note=52, velocity=50, time=96),\n",
       "    Message('note_on', channel=0, note=67, velocity=50, time=0),\n",
       "    Message('note_on', channel=0, note=67, velocity=50, time=0),\n",
       "    Message('note_on', channel=0, note=76, velocity=50, time=0),\n",
       "    Message('note_off', channel=0, note=76, velocity=0, time=96),\n",
       "    Message('note_off', channel=0, note=67, velocity=0, time=0),\n",
       "    Message('note_off', channel=0, note=67, velocity=0, time=0),\n",
       "    Message('note_off', channel=0, note=52, velocity=0, time=0),\n",
       "    Message('note_on', channel=0, note=64, velocity=50, time=96),\n",
       "    Message('note_off', channel=0, note=64, velocity=0, time=96),\n",
       "    Message('note_on', channel=0, note=64, velocity=50, time=96),\n",
       "    Message('note_off', channel=0, note=64, velocity=0, time=96),\n",
       "    Message('note_on', channel=0, note=59, velocity=50, time=96),\n",
       "    Message('note_on', channel=0, note=67, velocity=50, time=0),\n",
       "    Message('note_on', channel=0, note=83, velocity=50, time=0),\n",
       "    Message('note_on', channel=0, note=71, velocity=50, time=0),\n",
       "    Message('note_off', channel=0, note=71, velocity=0, time=96),\n",
       "    Message('note_off', channel=0, note=83, velocity=0, time=0),\n",
       "    Message('note_off', channel=0, note=67, velocity=0, time=0),\n",
       "    Message('note_off', channel=0, note=59, velocity=0, time=0),\n",
       "    Message('note_on', channel=0, note=33, velocity=50, time=96),\n",
       "    Message('note_on', channel=0, note=45, velocity=50, time=0),\n",
       "    Message('note_on', channel=0, note=69, velocity=50, time=0),\n",
       "    Message('note_on', channel=0, note=73, velocity=50, time=0),\n",
       "    Message('note_on', channel=0, note=76, velocity=50, time=0),\n",
       "    Message('note_on', channel=0, note=81, velocity=50, time=0),\n",
       "    Message('note_off', channel=0, note=81, velocity=0, time=96),\n",
       "    Message('note_off', channel=0, note=76, velocity=0, time=0),\n",
       "    Message('note_off', channel=0, note=73, velocity=0, time=0),\n",
       "    Message('note_off', channel=0, note=69, velocity=0, time=0),\n",
       "    Message('note_off', channel=0, note=45, velocity=0, time=0),\n",
       "    Message('note_off', channel=0, note=33, velocity=0, time=0),\n",
       "    Message('note_on', channel=0, note=64, velocity=50, time=96),\n",
       "    Message('note_off', channel=0, note=64, velocity=0, time=96),\n",
       "    Message('note_on', channel=0, note=64, velocity=50, time=96),\n",
       "    Message('note_off', channel=0, note=64, velocity=0, time=96),\n",
       "    Message('note_on', channel=0, note=67, velocity=50, time=96),\n",
       "    Message('note_off', channel=0, note=67, velocity=0, time=96),\n",
       "    Message('note_on', channel=0, note=67, velocity=50, time=96),\n",
       "    Message('note_off', channel=0, note=67, velocity=0, time=96),\n",
       "    Message('note_on', channel=0, note=64, velocity=50, time=96),\n",
       "    Message('note_off', channel=0, note=64, velocity=0, time=96),\n",
       "    Message('note_on', channel=0, note=64, velocity=50, time=96),\n",
       "    Message('note_off', channel=0, note=64, velocity=0, time=96),\n",
       "    Message('note_on', channel=0, note=67, velocity=50, time=96),\n",
       "    Message('note_off', channel=0, note=67, velocity=0, time=96),\n",
       "    Message('note_on', channel=0, note=66, velocity=50, time=96),\n",
       "    Message('note_on', channel=0, note=71, velocity=50, time=0),\n",
       "    Message('note_on', channel=0, note=47, velocity=50, time=0),\n",
       "    Message('note_on', channel=0, note=35, velocity=50, time=0),\n",
       "    Message('note_off', channel=0, note=35, velocity=0, time=96),\n",
       "    Message('note_off', channel=0, note=47, velocity=0, time=0),\n",
       "    Message('note_off', channel=0, note=71, velocity=0, time=0),\n",
       "    Message('note_off', channel=0, note=66, velocity=0, time=0),\n",
       "    Message('note_on', channel=0, note=66, velocity=50, time=96),\n",
       "    Message('note_on', channel=0, note=64, velocity=50, time=0),\n",
       "    Message('note_off', channel=0, note=64, velocity=0, time=96),\n",
       "    Message('note_off', channel=0, note=66, velocity=0, time=0),\n",
       "    Message('note_on', channel=0, note=66, velocity=50, time=96),\n",
       "    Message('note_on', channel=0, note=64, velocity=50, time=0),\n",
       "    Message('note_off', channel=0, note=64, velocity=0, time=96),\n",
       "    Message('note_off', channel=0, note=66, velocity=0, time=0),\n",
       "    Message('note_on', channel=0, note=66, velocity=50, time=96),\n",
       "    Message('note_on', channel=0, note=71, velocity=50, time=0),\n",
       "    Message('note_off', channel=0, note=71, velocity=0, time=96),\n",
       "    Message('note_off', channel=0, note=66, velocity=0, time=0),\n",
       "    Message('note_on', channel=0, note=66, velocity=50, time=96),\n",
       "    Message('note_on', channel=0, note=71, velocity=50, time=0),\n",
       "    Message('note_on', channel=0, note=47, velocity=50, time=0),\n",
       "    Message('note_on', channel=0, note=35, velocity=50, time=0),\n",
       "    Message('note_off', channel=0, note=35, velocity=0, time=96),\n",
       "    Message('note_off', channel=0, note=47, velocity=0, time=0),\n",
       "    Message('note_off', channel=0, note=71, velocity=0, time=0),\n",
       "    Message('note_off', channel=0, note=66, velocity=0, time=0),\n",
       "    Message('note_on', channel=0, note=66, velocity=50, time=96),\n",
       "    Message('note_on', channel=0, note=63, velocity=50, time=0),\n",
       "    Message('note_off', channel=0, note=63, velocity=0, time=96),\n",
       "    Message('note_off', channel=0, note=66, velocity=0, time=0),\n",
       "    Message('note_on', channel=0, note=66, velocity=50, time=96),\n",
       "    Message('note_on', channel=0, note=63, velocity=50, time=0),\n",
       "    Message('note_off', channel=0, note=63, velocity=0, time=96),\n",
       "    Message('note_off', channel=0, note=66, velocity=0, time=0),\n",
       "    Message('note_on', channel=0, note=66, velocity=50, time=96),\n",
       "    Message('note_on', channel=0, note=71, velocity=50, time=0),\n",
       "    Message('note_off', channel=0, note=71, velocity=0, time=96),\n",
       "    Message('note_off', channel=0, note=66, velocity=0, time=0),\n",
       "    Message('note_on', channel=0, note=64, velocity=50, time=96),\n",
       "    Message('note_on', channel=0, note=55, velocity=50, time=0),\n",
       "    Message('note_on', channel=0, note=52, velocity=50, time=0),\n",
       "    Message('note_on', channel=0, note=36, velocity=50, time=0),\n",
       "    Message('note_off', channel=0, note=36, velocity=0, time=96),\n",
       "    Message('note_off', channel=0, note=52, velocity=0, time=0),\n",
       "    Message('note_off', channel=0, note=55, velocity=0, time=0),\n",
       "    Message('note_off', channel=0, note=64, velocity=0, time=0),\n",
       "    Message('note_on', channel=0, note=62, velocity=50, time=480),\n",
       "    Message('note_on', channel=0, note=50, velocity=50, time=0),\n",
       "    Message('note_off', channel=0, note=50, velocity=0, time=96),\n",
       "    Message('note_off', channel=0, note=62, velocity=0, time=0),\n",
       "    Message('note_on', channel=0, note=64, velocity=50, time=0),\n",
       "    Message('note_on', channel=0, note=52, velocity=50, time=0),\n",
       "    Message('note_off', channel=0, note=52, velocity=0, time=96),\n",
       "    Message('note_off', channel=0, note=64, velocity=0, time=0),\n",
       "    Message('note_on', channel=0, note=66, velocity=50, time=0),\n",
       "    Message('note_on', channel=0, note=62, velocity=50, time=0),\n",
       "    Message('note_on', channel=0, note=54, velocity=50, time=0),\n",
       "    Message('note_on', channel=0, note=50, velocity=50, time=0),\n",
       "    Message('note_on', channel=0, note=38, velocity=50, time=0),\n",
       "    Message('note_off', channel=0, note=38, velocity=0, time=96),\n",
       "    Message('note_off', channel=0, note=50, velocity=0, time=0),\n",
       "    Message('note_off', channel=0, note=54, velocity=0, time=0),\n",
       "    Message('note_off', channel=0, note=62, velocity=0, time=0),\n",
       "    Message('note_off', channel=0, note=66, velocity=0, time=0),\n",
       "    Message('note_on', channel=0, note=74, velocity=50, time=672),\n",
       "    Message('note_on', channel=0, note=79, velocity=50, time=0),\n",
       "    Message('note_on', channel=0, note=86, velocity=50, time=0),\n",
       "    Message('note_on', channel=0, note=48, velocity=50, time=0),\n",
       "    Message('note_on', channel=0, note=36, velocity=50, time=0),\n",
       "    Message('note_off', channel=0, note=36, velocity=0, time=96),\n",
       "    Message('note_off', channel=0, note=48, velocity=0, time=0),\n",
       "    Message('note_off', channel=0, note=86, velocity=0, time=0),\n",
       "    Message('note_off', channel=0, note=79, velocity=0, time=0),\n",
       "    Message('note_off', channel=0, note=74, velocity=0, time=0),\n",
       "    Message('note_on', channel=0, note=88, velocity=50, time=96),\n",
       "    Message('note_on', channel=0, note=79, velocity=50, time=0),\n",
       "    Message('note_on', channel=0, note=76, velocity=50, time=0),\n",
       "    Message('note_on', channel=0, note=48, velocity=50, time=0),\n",
       "    Message('note_on', channel=0, note=36, velocity=50, time=0),\n",
       "    Message('note_off', channel=0, note=36, velocity=0, time=96),\n",
       "    Message('note_off', channel=0, note=48, velocity=0, time=0),\n",
       "    Message('note_off', channel=0, note=76, velocity=0, time=0),\n",
       "    Message('note_off', channel=0, note=79, velocity=0, time=0),\n",
       "    Message('note_off', channel=0, note=88, velocity=0, time=0),\n",
       "    Message('note_on', channel=0, note=38, velocity=50, time=480),\n",
       "    Message('note_on', channel=0, note=50, velocity=50, time=0),\n",
       "    Message('note_on', channel=0, note=76, velocity=50, time=0),\n",
       "    Message('note_on', channel=0, note=81, velocity=50, time=0),\n",
       "    Message('note_on', channel=0, note=88, velocity=50, time=0),\n",
       "    Message('note_off', channel=0, note=88, velocity=0, time=96),\n",
       "    Message('note_off', channel=0, note=81, velocity=0, time=0),\n",
       "    Message('note_off', channel=0, note=76, velocity=0, time=0),\n",
       "    Message('note_off', channel=0, note=50, velocity=0, time=0),\n",
       "    Message('note_off', channel=0, note=38, velocity=0, time=0),\n",
       "    Message('note_on', channel=0, note=50, velocity=50, time=96),\n",
       "    Message('note_on', channel=0, note=38, velocity=50, time=0),\n",
       "    Message('note_on', channel=0, note=78, velocity=50, time=0),\n",
       "    Message('note_on', channel=0, note=81, velocity=50, time=0),\n",
       "    Message('note_on', channel=0, note=90, velocity=50, time=0),\n",
       "    Message('note_off', channel=0, note=90, velocity=0, time=96),\n",
       "    Message('note_off', channel=0, note=81, velocity=0, time=0),\n",
       "    Message('note_off', channel=0, note=78, velocity=0, time=0),\n",
       "    Message('note_off', channel=0, note=38, velocity=0, time=0),\n",
       "    Message('note_off', channel=0, note=50, velocity=0, time=0),\n",
       "    Message('note_on', channel=0, note=76, velocity=50, time=480),\n",
       "    Message('note_on', channel=0, note=71, velocity=50, time=0),\n",
       "    Message('note_on', channel=0, note=67, velocity=50, time=0),\n",
       "    Message('note_on', channel=0, note=64, velocity=50, time=0),\n",
       "    Message('note_on', channel=0, note=28, velocity=50, time=0),\n",
       "    Message('note_off', channel=0, note=28, velocity=0, time=96),\n",
       "    Message('note_off', channel=0, note=64, velocity=0, time=0),\n",
       "    Message('note_off', channel=0, note=67, velocity=0, time=0),\n",
       "    Message('note_off', channel=0, note=71, velocity=0, time=0),\n",
       "    Message('note_off', channel=0, note=76, velocity=0, time=0),\n",
       "    Message('note_on', channel=0, note=64, velocity=50, time=96),\n",
       "    Message('note_on', channel=0, note=35, velocity=50, time=0),\n",
       "    Message('note_off', channel=0, note=35, velocity=0, time=96),\n",
       "    Message('note_off', channel=0, note=64, velocity=0, time=0),\n",
       "    Message('note_on', channel=0, note=64, velocity=50, time=96),\n",
       "    Message('note_on', channel=0, note=40, velocity=50, time=0),\n",
       "    Message('note_off', channel=0, note=40, velocity=0, time=96),\n",
       "    Message('note_off', channel=0, note=64, velocity=0, time=0),\n",
       "    Message('note_on', channel=0, note=67, velocity=50, time=96),\n",
       "    Message('note_on', channel=0, note=43, velocity=50, time=0),\n",
       "    Message('note_off', channel=0, note=43, velocity=0, time=96),\n",
       "    Message('note_off', channel=0, note=67, velocity=0, time=0),\n",
       "    Message('note_on', channel=0, note=67, velocity=50, time=96),\n",
       "    Message('note_on', channel=0, note=47, velocity=50, time=0),\n",
       "    Message('note_off', channel=0, note=47, velocity=0, time=96),\n",
       "    Message('note_off', channel=0, note=67, velocity=0, time=0),\n",
       "    Message('note_on', channel=0, note=64, velocity=50, time=96),\n",
       "    Message('note_on', channel=0, note=43, velocity=50, time=0),\n",
       "    Message('note_off', channel=0, note=43, velocity=0, time=96),\n",
       "    Message('note_off', channel=0, note=64, velocity=0, time=0),\n",
       "    Message('note_on', channel=0, note=64, velocity=50, time=96),\n",
       "    Message('note_on', channel=0, note=40, velocity=50, time=0),\n",
       "    Message('note_off', channel=0, note=40, velocity=0, time=96),\n",
       "    Message('note_off', channel=0, note=64, velocity=0, time=0),\n",
       "    Message('note_on', channel=0, note=67, velocity=50, time=96),\n",
       "    Message('note_on', channel=0, note=35, velocity=50, time=0),\n",
       "    Message('note_off', channel=0, note=35, velocity=0, time=96),\n",
       "    Message('note_off', channel=0, note=67, velocity=0, time=0),\n",
       "    Message('note_on', channel=0, note=67, velocity=50, time=96),\n",
       "    Message('note_on', channel=0, note=36, velocity=50, time=0),\n",
       "    Message('note_off', channel=0, note=36, velocity=0, time=96),\n",
       "    Message('note_off', channel=0, note=67, velocity=0, time=0),\n",
       "    Message('note_on', channel=0, note=64, velocity=50, time=96),\n",
       "    Message('note_on', channel=0, note=43, velocity=50, time=0),\n",
       "    Message('note_off', channel=0, note=43, velocity=0, time=96),\n",
       "    Message('note_off', channel=0, note=64, velocity=0, time=0),\n",
       "    Message('note_on', channel=0, note=64, velocity=50, time=96),\n",
       "    Message('note_on', channel=0, note=76, velocity=50, time=0),\n",
       "    Message('note_on', channel=0, note=72, velocity=50, time=0),\n",
       "    Message('note_on', channel=0, note=67, velocity=50, time=0),\n",
       "    Message('note_on', channel=0, note=48, velocity=50, time=0),\n",
       "    Message('note_off', channel=0, note=48, velocity=0, time=96),\n",
       "    Message('note_off', channel=0, note=67, velocity=0, time=0),\n",
       "    Message('note_off', channel=0, note=72, velocity=0, time=0),\n",
       "    Message('note_off', channel=0, note=76, velocity=0, time=0),\n",
       "    Message('note_off', channel=0, note=64, velocity=0, time=0),\n",
       "    Message('note_on', channel=0, note=67, velocity=50, time=96),\n",
       "    Message('note_on', channel=0, note=52, velocity=50, time=0),\n",
       "    Message('note_off', channel=0, note=52, velocity=0, time=96),\n",
       "    Message('note_off', channel=0, note=67, velocity=0, time=0),\n",
       "    Message('note_on', channel=0, note=67, velocity=50, time=96),\n",
       "    Message('note_on', channel=0, note=76, velocity=50, time=0),\n",
       "    Message('note_on', channel=0, note=72, velocity=50, time=0),\n",
       "    Message('note_on', channel=0, note=64, velocity=50, time=0),\n",
       "    Message('note_on', channel=0, note=55, velocity=50, time=0),\n",
       "    Message('note_off', channel=0, note=55, velocity=0, time=96),\n",
       "    Message('note_off', channel=0, note=64, velocity=0, time=0),\n",
       "    Message('note_off', channel=0, note=72, velocity=0, time=0),\n",
       "    Message('note_off', channel=0, note=76, velocity=0, time=0),\n",
       "    Message('note_off', channel=0, note=67, velocity=0, time=0),\n",
       "    Message('note_on', channel=0, note=64, velocity=50, time=96),\n",
       "    Message('note_on', channel=0, note=52, velocity=50, time=0),\n",
       "    Message('note_off', channel=0, note=52, velocity=0, time=96),\n",
       "    Message('note_off', channel=0, note=64, velocity=0, time=0),\n",
       "    Message('note_on', channel=0, note=64, velocity=50, time=96),\n",
       "    Message('note_on', channel=0, note=48, velocity=50, time=0),\n",
       "    Message('note_off', channel=0, note=48, velocity=0, time=96),\n",
       "    Message('note_off', channel=0, note=64, velocity=0, time=0),\n",
       "    Message('note_on', channel=0, note=71, velocity=50, time=96),\n",
       "    Message('note_on', channel=0, note=72, velocity=50, time=0),\n",
       "    Message('note_on', channel=0, note=76, velocity=50, time=0),\n",
       "    Message('note_on', channel=0, note=83, velocity=50, time=0),\n",
       "    Message('note_on', channel=0, note=43, velocity=50, time=0),\n",
       "    Message('note_off', channel=0, note=43, velocity=0, time=96),\n",
       "    Message('note_off', channel=0, note=83, velocity=0, time=0),\n",
       "    Message('note_off', channel=0, note=76, velocity=0, time=0),\n",
       "    Message('note_off', channel=0, note=72, velocity=0, time=0),\n",
       "    Message('note_off', channel=0, note=71, velocity=0, time=0),\n",
       "    Message('note_on', channel=0, note=81, velocity=50, time=96),\n",
       "    Message('note_on', channel=0, note=76, velocity=50, time=0),\n",
       "    Message('note_on', channel=0, note=73, velocity=50, time=0),\n",
       "    Message('note_on', channel=0, note=69, velocity=50, time=0),\n",
       "    Message('note_on', channel=0, note=37, velocity=50, time=0),\n",
       "    Message('note_off', channel=0, note=37, velocity=0, time=96),\n",
       "    Message('note_off', channel=0, note=69, velocity=0, time=0),\n",
       "    Message('note_off', channel=0, note=73, velocity=0, time=0),\n",
       "    Message('note_off', channel=0, note=76, velocity=0, time=0),\n",
       "    Message('note_off', channel=0, note=81, velocity=0, time=0),\n",
       "    Message('note_on', channel=0, note=40, velocity=50, time=96),\n",
       "    Message('note_on', channel=0, note=64, velocity=50, time=0),\n",
       "    Message('note_off', channel=0, note=64, velocity=0, time=96),\n",
       "    Message('note_off', channel=0, note=40, velocity=0, time=0),\n",
       "    Message('note_on', channel=0, note=45, velocity=50, time=96),\n",
       "    Message('note_on', channel=0, note=64, velocity=50, time=0),\n",
       "    Message('note_off', channel=0, note=64, velocity=0, time=96),\n",
       "    Message('note_off', channel=0, note=45, velocity=0, time=0),\n",
       "    Message('note_on', channel=0, note=49, velocity=50, time=96),\n",
       "    Message('note_on', channel=0, note=67, velocity=50, time=0),\n",
       "    Message('note_off', channel=0, note=67, velocity=0, time=96),\n",
       "    Message('note_off', channel=0, note=49, velocity=0, time=0),\n",
       "    Message('note_on', channel=0, note=52, velocity=50, time=96),\n",
       "    Message('note_on', channel=0, note=67, velocity=50, time=0),\n",
       "    Message('note_off', channel=0, note=67, velocity=0, time=96),\n",
       "    Message('note_off', channel=0, note=52, velocity=0, time=0),\n",
       "    Message('note_on', channel=0, note=49, velocity=50, time=96),\n",
       "    Message('note_on', channel=0, note=64, velocity=50, time=0),\n",
       "    Message('note_off', channel=0, note=64, velocity=0, time=96),\n",
       "    Message('note_off', channel=0, note=49, velocity=0, time=0),\n",
       "    Message('note_on', channel=0, note=45, velocity=50, time=96),\n",
       "    Message('note_on', channel=0, note=64, velocity=50, time=0),\n",
       "    Message('note_off', channel=0, note=64, velocity=0, time=96),\n",
       "    Message('note_off', channel=0, note=45, velocity=0, time=0),\n",
       "    Message('note_on', channel=0, note=40, velocity=50, time=96),\n",
       "    Message('note_on', channel=0, note=67, velocity=50, time=0),\n",
       "    Message('note_off', channel=0, note=67, velocity=0, time=96),\n",
       "    Message('note_off', channel=0, note=40, velocity=0, time=0),\n",
       "    Message('note_on', channel=0, note=36, velocity=50, time=96),\n",
       "    Message('note_on', channel=0, note=79, velocity=50, time=0),\n",
       "    Message('note_on', channel=0, note=76, velocity=50, time=0),\n",
       "    Message('note_on', channel=0, note=72, velocity=50, time=0),\n",
       "    Message('note_on', channel=0, note=67, velocity=50, time=0),\n",
       "    Message('note_off', channel=0, note=67, velocity=0, time=96),\n",
       "    Message('note_off', channel=0, note=72, velocity=0, time=0),\n",
       "    Message('note_off', channel=0, note=76, velocity=0, time=0),\n",
       "    Message('note_off', channel=0, note=79, velocity=0, time=0),\n",
       "    Message('note_off', channel=0, note=36, velocity=0, time=0),\n",
       "    Message('note_on', channel=0, note=64, velocity=50, time=96),\n",
       "    Message('note_on', channel=0, note=43, velocity=50, time=0),\n",
       "    Message('note_off', channel=0, note=43, velocity=0, time=96),\n",
       "    Message('note_off', channel=0, note=64, velocity=0, time=0),\n",
       "    Message('note_on', channel=0, note=64, velocity=50, time=96),\n",
       "    Message('note_on', channel=0, note=48, velocity=50, time=0),\n",
       "    Message('note_off', channel=0, note=48, velocity=0, time=96),\n",
       "    Message('note_off', channel=0, note=64, velocity=0, time=0),\n",
       "    Message('note_on', channel=0, note=67, velocity=50, time=96),\n",
       "    Message('note_on', channel=0, note=52, velocity=50, time=0),\n",
       "    Message('note_off', channel=0, note=52, velocity=0, time=96),\n",
       "    Message('note_off', channel=0, note=67, velocity=0, time=0),\n",
       "    Message('note_on', channel=0, note=78, velocity=50, time=96),\n",
       "    Message('note_on', channel=0, note=74, velocity=50, time=0),\n",
       "    Message('note_on', channel=0, note=66, velocity=50, time=0),\n",
       "    Message('note_on', channel=0, note=38, velocity=50, time=0),\n",
       "    Message('note_off', channel=0, note=38, velocity=0, time=96),\n",
       "    Message('note_off', channel=0, note=66, velocity=0, time=0),\n",
       "    Message('note_off', channel=0, note=74, velocity=0, time=0),\n",
       "    Message('note_off', channel=0, note=78, velocity=0, time=0),\n",
       "    Message('note_on', channel=0, note=64, velocity=50, time=96),\n",
       "    Message('note_on', channel=0, note=45, velocity=50, time=0),\n",
       "    Message('note_off', channel=0, note=45, velocity=0, time=96),\n",
       "    Message('note_off', channel=0, note=64, velocity=0, time=0),\n",
       "    Message('note_on', channel=0, note=64, velocity=50, time=96),\n",
       "    Message('note_on', channel=0, note=50, velocity=50, time=0),\n",
       "    Message('note_off', channel=0, note=50, velocity=0, time=96),\n",
       "    Message('note_off', channel=0, note=64, velocity=0, time=0),\n",
       "    Message('note_on', channel=0, note=67, velocity=50, time=96),\n",
       "    Message('note_on', channel=0, note=54, velocity=50, time=0),\n",
       "    Message('note_off', channel=0, note=54, velocity=0, time=96),\n",
       "    Message('note_off', channel=0, note=67, velocity=0, time=0),\n",
       "    Message('note_on', channel=0, note=76, velocity=50, time=96),\n",
       "    Message('note_on', channel=0, note=71, velocity=50, time=0),\n",
       "    Message('note_on', channel=0, note=67, velocity=50, time=0),\n",
       "    Message('note_on', channel=0, note=64, velocity=50, time=0),\n",
       "    Message('note_on', channel=0, note=28, velocity=50, time=0),\n",
       "    Message('note_off', channel=0, note=28, velocity=0, time=96),\n",
       "    Message('note_off', channel=0, note=64, velocity=0, time=0),\n",
       "    Message('note_off', channel=0, note=67, velocity=0, time=0),\n",
       "    Message('note_off', channel=0, note=71, velocity=0, time=0),\n",
       "    Message('note_off', channel=0, note=76, velocity=0, time=0),\n",
       "    Message('note_on', channel=0, note=64, velocity=50, time=96),\n",
       "    Message('note_on', channel=0, note=35, velocity=50, time=0),\n",
       "    Message('note_off', channel=0, note=35, velocity=0, time=96),\n",
       "    Message('note_off', channel=0, note=64, velocity=0, time=0),\n",
       "    Message('note_on', channel=0, note=64, velocity=50, time=96),\n",
       "    Message('note_on', channel=0, note=40, velocity=50, time=0),\n",
       "    Message('note_off', channel=0, note=40, velocity=0, time=96),\n",
       "    Message('note_off', channel=0, note=64, velocity=0, time=0),\n",
       "    Message('note_on', channel=0, note=67, velocity=50, time=96),\n",
       "    Message('note_on', channel=0, note=43, velocity=50, time=0),\n",
       "    Message('note_off', channel=0, note=43, velocity=0, time=96),\n",
       "    Message('note_off', channel=0, note=67, velocity=0, time=0),\n",
       "    Message('note_on', channel=0, note=67, velocity=50, time=96),\n",
       "    Message('note_on', channel=0, note=47, velocity=50, time=0),\n",
       "    Message('note_off', channel=0, note=47, velocity=0, time=96),\n",
       "    Message('note_off', channel=0, note=67, velocity=0, time=0),\n",
       "    Message('note_on', channel=0, note=64, velocity=50, time=96),\n",
       "    Message('note_on', channel=0, note=43, velocity=50, time=0),\n",
       "    Message('note_off', channel=0, note=43, velocity=0, time=96),\n",
       "    Message('note_off', channel=0, note=64, velocity=0, time=0),\n",
       "    Message('note_on', channel=0, note=64, velocity=50, time=96),\n",
       "    Message('note_on', channel=0, note=40, velocity=50, time=0),\n",
       "    Message('note_off', channel=0, note=40, velocity=0, time=96),\n",
       "    Message('note_off', channel=0, note=64, velocity=0, time=0),\n",
       "    Message('note_on', channel=0, note=67, velocity=50, time=96),\n",
       "    Message('note_on', channel=0, note=35, velocity=50, time=0),\n",
       "    Message('note_off', channel=0, note=35, velocity=0, time=96),\n",
       "    Message('note_off', channel=0, note=67, velocity=0, time=0),\n",
       "    Message('note_on', channel=0, note=67, velocity=50, time=96),\n",
       "    Message('note_on', channel=0, note=36, velocity=50, time=0),\n",
       "    Message('note_off', channel=0, note=36, velocity=0, time=96),\n",
       "    Message('note_off', channel=0, note=67, velocity=0, time=0),\n",
       "    Message('note_on', channel=0, note=43, velocity=50, time=96),\n",
       "    Message('note_on', channel=0, note=64, velocity=50, time=0),\n",
       "    Message('note_off', channel=0, note=64, velocity=0, time=96),\n",
       "    Message('note_off', channel=0, note=43, velocity=0, time=0),\n",
       "    Message('note_on', channel=0, note=48, velocity=50, time=96),\n",
       "    Message('note_on', channel=0, note=64, velocity=50, time=0),\n",
       "    Message('note_on', channel=0, note=76, velocity=50, time=0),\n",
       "    Message('note_on', channel=0, note=72, velocity=50, time=0),\n",
       "    Message('note_on', channel=0, note=67, velocity=50, time=0),\n",
       "    Message('note_off', channel=0, note=67, velocity=0, time=96),\n",
       "    Message('note_off', channel=0, note=72, velocity=0, time=0),\n",
       "    Message('note_off', channel=0, note=76, velocity=0, time=0),\n",
       "    Message('note_off', channel=0, note=64, velocity=0, time=0),\n",
       "    Message('note_off', channel=0, note=48, velocity=0, time=0),\n",
       "    Message('note_on', channel=0, note=52, velocity=50, time=96),\n",
       "    Message('note_on', channel=0, note=67, velocity=50, time=0),\n",
       "    Message('note_off', channel=0, note=67, velocity=0, time=96),\n",
       "    Message('note_off', channel=0, note=52, velocity=0, time=0),\n",
       "    Message('note_on', channel=0, note=55, velocity=50, time=96),\n",
       "    Message('note_on', channel=0, note=67, velocity=50, time=0),\n",
       "    Message('note_on', channel=0, note=64, velocity=50, time=0),\n",
       "    Message('note_on', channel=0, note=72, velocity=50, time=0),\n",
       "    Message('note_on', channel=0, note=76, velocity=50, time=0),\n",
       "    Message('note_off', channel=0, note=76, velocity=0, time=96),\n",
       "    Message('note_off', channel=0, note=72, velocity=0, time=0),\n",
       "    Message('note_off', channel=0, note=64, velocity=0, time=0),\n",
       "    Message('note_off', channel=0, note=67, velocity=0, time=0),\n",
       "    Message('note_off', channel=0, note=55, velocity=0, time=0),\n",
       "    Message('note_on', channel=0, note=52, velocity=50, time=96),\n",
       "    Message('note_on', channel=0, note=64, velocity=50, time=0),\n",
       "    Message('note_off', channel=0, note=64, velocity=0, time=96),\n",
       "    Message('note_off', channel=0, note=52, velocity=0, time=0),\n",
       "    Message('note_on', channel=0, note=48, velocity=50, time=96),\n",
       "    Message('note_on', channel=0, note=64, velocity=50, time=0),\n",
       "    Message('note_off', channel=0, note=64, velocity=0, time=96),\n",
       "    Message('note_off', channel=0, note=48, velocity=0, time=0),\n",
       "    Message('note_on', channel=0, note=43, velocity=50, time=96),\n",
       "    Message('note_on', channel=0, note=71, velocity=50, time=0),\n",
       "    Message('note_on', channel=0, note=72, velocity=50, time=0),\n",
       "    Message('note_on', channel=0, note=76, velocity=50, time=0),\n",
       "    Message('note_on', channel=0, note=83, velocity=50, time=0),\n",
       "    Message('note_off', channel=0, note=83, velocity=0, time=96),\n",
       "    Message('note_off', channel=0, note=76, velocity=0, time=0),\n",
       "    Message('note_off', channel=0, note=72, velocity=0, time=0),\n",
       "    Message('note_off', channel=0, note=71, velocity=0, time=0),\n",
       "    Message('note_off', channel=0, note=43, velocity=0, time=0),\n",
       "    Message('note_on', channel=0, note=33, velocity=50, time=96),\n",
       "    Message('note_on', channel=0, note=73, velocity=50, time=0),\n",
       "    Message('note_on', channel=0, note=76, velocity=50, time=0),\n",
       "    Message('note_on', channel=0, note=81, velocity=50, time=0),\n",
       "    Message('note_on', channel=0, note=85, velocity=50, time=0),\n",
       "    Message('note_off', channel=0, note=85, velocity=0, time=96),\n",
       "    Message('note_off', channel=0, note=81, velocity=0, time=0),\n",
       "    Message('note_off', channel=0, note=76, velocity=0, time=0),\n",
       "    Message('note_off', channel=0, note=73, velocity=0, time=0),\n",
       "    Message('note_off', channel=0, note=33, velocity=0, time=0),\n",
       "    Message('note_on', channel=0, note=64, velocity=50, time=96),\n",
       "    Message('note_on', channel=0, note=40, velocity=50, time=0),\n",
       "    Message('note_off', channel=0, note=40, velocity=0, time=96),\n",
       "    Message('note_off', channel=0, note=64, velocity=0, time=0),\n",
       "    Message('note_on', channel=0, note=45, velocity=50, time=96),\n",
       "    Message('note_on', channel=0, note=64, velocity=50, time=0),\n",
       "    Message('note_off', channel=0, note=64, velocity=0, time=96),\n",
       "    Message('note_off', channel=0, note=45, velocity=0, time=0),\n",
       "    Message('note_on', channel=0, note=49, velocity=50, time=96),\n",
       "    Message('note_on', channel=0, note=67, velocity=50, time=0),\n",
       "    Message('note_off', channel=0, note=67, velocity=0, time=96),\n",
       "    Message('note_off', channel=0, note=49, velocity=0, time=0),\n",
       "    Message('note_on', channel=0, note=52, velocity=50, time=96),\n",
       "    Message('note_on', channel=0, note=81, velocity=50, time=0),\n",
       "    Message('note_on', channel=0, note=76, velocity=50, time=0),\n",
       "    Message('note_on', channel=0, note=73, velocity=50, time=0),\n",
       "    Message('note_on', channel=0, note=69, velocity=50, time=0),\n",
       "    Message('note_off', channel=0, note=69, velocity=0, time=96),\n",
       "    Message('note_off', channel=0, note=73, velocity=0, time=0),\n",
       "    Message('note_off', channel=0, note=76, velocity=0, time=0),\n",
       "    Message('note_off', channel=0, note=81, velocity=0, time=0),\n",
       "    Message('note_off', channel=0, note=52, velocity=0, time=0),\n",
       "    Message('note_on', channel=0, note=49, velocity=50, time=96),\n",
       "    Message('note_on', channel=0, note=64, velocity=50, time=0),\n",
       "    Message('note_off', channel=0, note=64, velocity=0, time=96),\n",
       "    Message('note_off', channel=0, note=49, velocity=0, time=0),\n",
       "    Message('note_on', channel=0, note=45, velocity=50, time=96),\n",
       "    Message('note_on', channel=0, note=64, velocity=50, time=0),\n",
       "    Message('note_off', channel=0, note=64, velocity=0, time=96),\n",
       "    Message('note_off', channel=0, note=45, velocity=0, time=0),\n",
       "    Message('note_on', channel=0, note=40, velocity=50, time=96),\n",
       "    Message('note_on', channel=0, note=67, velocity=50, time=0),\n",
       "    Message('note_off', channel=0, note=67, velocity=0, time=96),\n",
       "    Message('note_off', channel=0, note=40, velocity=0, time=0),\n",
       "    Message('note_on', channel=0, note=71, velocity=50, time=96),\n",
       "    Message('note_on', channel=0, note=83, velocity=50, time=0),\n",
       "    Message('note_on', channel=0, note=78, velocity=50, time=0),\n",
       "    Message('note_on', channel=0, note=76, velocity=50, time=0),\n",
       "    Message('note_on', channel=0, note=75, velocity=50, time=0),\n",
       "    Message('note_on', channel=0, note=35, velocity=50, time=0),\n",
       "    Message('note_off', channel=0, note=35, velocity=0, time=96),\n",
       "    Message('note_off', channel=0, note=75, velocity=0, time=0),\n",
       "    Message('note_off', channel=0, note=76, velocity=0, time=0),\n",
       "    Message('note_off', channel=0, note=78, velocity=0, time=0),\n",
       "    Message('note_off', channel=0, note=83, velocity=0, time=0),\n",
       "    Message('note_off', channel=0, note=71, velocity=0, time=0),\n",
       "    Message('note_on', channel=0, note=66, velocity=50, time=96),\n",
       "    Message('note_on', channel=0, note=42, velocity=50, time=0),\n",
       "    Message('note_off', channel=0, note=42, velocity=0, time=96),\n",
       "    Message('note_off', channel=0, note=66, velocity=0, time=0),\n",
       "    Message('note_on', channel=0, note=66, velocity=50, time=96),\n",
       "    Message('note_on', channel=0, note=47, velocity=50, time=0),\n",
       "    Message('note_off', channel=0, note=47, velocity=0, time=96),\n",
       "    Message('note_off', channel=0, note=66, velocity=0, time=0),\n",
       "    Message('note_on', channel=0, note=71, velocity=50, time=96),\n",
       "    Message('note_on', channel=0, note=51, velocity=50, time=0),\n",
       "    Message('note_off', channel=0, note=51, velocity=0, time=96),\n",
       "    Message('note_off', channel=0, note=71, velocity=0, time=0),\n",
       "    Message('note_on', channel=0, note=71, velocity=50, time=96),\n",
       "    Message('note_on', channel=0, note=83, velocity=50, time=0),\n",
       "    Message('note_on', channel=0, note=78, velocity=50, time=0),\n",
       "    Message('note_on', channel=0, note=75, velocity=50, time=0),\n",
       "    Message('note_on', channel=0, note=54, velocity=50, time=0),\n",
       "    Message('note_on', channel=0, note=47, velocity=50, time=0),\n",
       "    Message('note_on', channel=0, note=59, velocity=50, time=0),\n",
       "    Message('note_off', channel=0, note=59, velocity=0, time=96),\n",
       "    Message('note_off', channel=0, note=47, velocity=0, time=0),\n",
       "    Message('note_off', channel=0, note=54, velocity=0, time=0),\n",
       "    Message('note_off', channel=0, note=75, velocity=0, time=0),\n",
       "    Message('note_off', channel=0, note=78, velocity=0, time=0),\n",
       "    Message('note_off', channel=0, note=83, velocity=0, time=0),\n",
       "    Message('note_off', channel=0, note=71, velocity=0, time=0),\n",
       "    Message('note_on', channel=0, note=66, velocity=50, time=96),\n",
       "    Message('note_off', channel=0, note=66, velocity=0, time=96),\n",
       "    Message('note_on', channel=0, note=66, velocity=50, time=96),\n",
       "    Message('note_on', channel=0, note=35, velocity=50, time=0),\n",
       "    Message('note_on', channel=0, note=24, velocity=50, time=0),\n",
       "    Message('note_off', channel=0, note=24, velocity=0, time=96),\n",
       "    Message('note_off', channel=0, note=35, velocity=0, time=0),\n",
       "    Message('note_off', channel=0, note=66, velocity=0, time=0),\n",
       "    Message('note_on', channel=0, note=54, velocity=50, time=96),\n",
       "    Message('note_on', channel=0, note=71, velocity=50, time=0),\n",
       "    Message('note_off', channel=0, note=71, velocity=0, time=96),\n",
       "    Message('note_off', channel=0, note=54, velocity=0, time=0),\n",
       "    Message('note_on', channel=0, note=71, velocity=50, time=96),\n",
       "    Message('note_on', channel=0, note=76, velocity=50, time=0),\n",
       "    Message('note_on', channel=0, note=67, velocity=50, time=0),\n",
       "    Message('note_on', channel=0, note=62, velocity=50, time=0),\n",
       "    Message('note_on', channel=0, note=31, velocity=50, time=0),\n",
       "    Message('note_off', channel=0, note=31, velocity=0, time=96),\n",
       "    Message('note_off', channel=0, note=62, velocity=0, time=0),\n",
       "    Message('note_off', channel=0, note=67, velocity=0, time=0),\n",
       "    Message('note_off', channel=0, note=76, velocity=0, time=0),\n",
       "    Message('note_off', channel=0, note=71, velocity=0, time=0),\n",
       "    Message('note_on', channel=0, note=64, velocity=50, time=96),\n",
       "    Message('note_on', channel=0, note=59, velocity=50, time=0),\n",
       "    Message('note_on', channel=0, note=35, velocity=50, time=0),\n",
       "    Message('note_off', channel=0, note=35, velocity=0, time=96),\n",
       "    Message('note_off', channel=0, note=59, velocity=0, time=0),\n",
       "    Message('note_off', channel=0, note=64, velocity=0, time=0),\n",
       "    Message('note_on', channel=0, note=64, velocity=50, time=96),\n",
       "    Message('note_on', channel=0, note=59, velocity=50, time=0),\n",
       "    Message('note_on', channel=0, note=40, velocity=50, time=0),\n",
       "    Message('note_off', channel=0, note=40, velocity=0, time=96),\n",
       "    Message('note_off', channel=0, note=59, velocity=0, time=0),\n",
       "    Message('note_off', channel=0, note=64, velocity=0, time=0),\n",
       "    Message('note_on', channel=0, note=67, velocity=50, time=96),\n",
       "    Message('note_on', channel=0, note=64, velocity=50, time=0),\n",
       "    Message('note_on', channel=0, note=43, velocity=50, time=0),\n",
       "    Message('note_off', channel=0, note=43, velocity=0, time=96),\n",
       "    Message('note_off', channel=0, note=64, velocity=0, time=0),\n",
       "    Message('note_off', channel=0, note=67, velocity=0, time=0),\n",
       "    Message('note_on', channel=0, note=67, velocity=50, time=96),\n",
       "    Message('note_on', channel=0, note=64, velocity=50, time=0),\n",
       "    Message('note_on', channel=0, note=47, velocity=50, time=0),\n",
       "    Message('note_off', channel=0, note=47, velocity=0, time=96),\n",
       "    Message('note_off', channel=0, note=64, velocity=0, time=0),\n",
       "    Message('note_off', channel=0, note=67, velocity=0, time=0),\n",
       "    Message('note_on', channel=0, note=64, velocity=50, time=96),\n",
       "    Message('note_on', channel=0, note=59, velocity=50, time=0),\n",
       "    Message('note_on', channel=0, note=43, velocity=50, time=0),\n",
       "    Message('note_off', channel=0, note=43, velocity=0, time=96),\n",
       "    Message('note_off', channel=0, note=59, velocity=0, time=0),\n",
       "    Message('note_off', channel=0, note=64, velocity=0, time=0),\n",
       "    Message('note_on', channel=0, note=64, velocity=50, time=96),\n",
       "    Message('note_on', channel=0, note=59, velocity=50, time=0),\n",
       "    Message('note_on', channel=0, note=40, velocity=50, time=0),\n",
       "    Message('note_off', channel=0, note=40, velocity=0, time=96),\n",
       "    Message('note_off', channel=0, note=59, velocity=0, time=0),\n",
       "    Message('note_off', channel=0, note=64, velocity=0, time=0),\n",
       "    Message('note_on', channel=0, note=67, velocity=50, time=96),\n",
       "    Message('note_on', channel=0, note=64, velocity=50, time=0),\n",
       "    Message('note_on', channel=0, note=35, velocity=50, time=0),\n",
       "    Message('note_off', channel=0, note=35, velocity=0, time=96),\n",
       "    Message('note_off', channel=0, note=64, velocity=0, time=0),\n",
       "    Message('note_off', channel=0, note=67, velocity=0, time=0),\n",
       "    Message('note_on', channel=0, note=67, velocity=50, time=96),\n",
       "    Message('note_on', channel=0, note=64, velocity=50, time=0),\n",
       "    Message('note_on', channel=0, note=36, velocity=50, time=0),\n",
       "    Message('note_off', channel=0, note=36, velocity=0, time=96),\n",
       "    Message('note_off', channel=0, note=64, velocity=0, time=0),\n",
       "    Message('note_off', channel=0, note=67, velocity=0, time=0),\n",
       "    Message('note_on', channel=0, note=64, velocity=50, time=96),\n",
       "    Message('note_on', channel=0, note=60, velocity=50, time=0),\n",
       "    Message('note_on', channel=0, note=43, velocity=50, time=0),\n",
       "    Message('note_off', channel=0, note=43, velocity=0, time=96),\n",
       "    Message('note_off', channel=0, note=60, velocity=0, time=0),\n",
       "    Message('note_off', channel=0, note=64, velocity=0, time=0),\n",
       "    Message('note_on', channel=0, note=76, velocity=50, time=96),\n",
       "    Message('note_on', channel=0, note=72, velocity=50, time=0),\n",
       "    Message('note_on', channel=0, note=67, velocity=50, time=0),\n",
       "    Message('note_on', channel=0, note=64, velocity=50, time=0),\n",
       "    Message('note_on', channel=0, note=48, velocity=50, time=0),\n",
       "    Message('note_off', channel=0, note=48, velocity=0, time=96),\n",
       "    Message('note_off', channel=0, note=64, velocity=0, time=0),\n",
       "    Message('note_off', channel=0, note=67, velocity=0, time=0),\n",
       "    Message('note_off', channel=0, note=72, velocity=0, time=0),\n",
       "    Message('note_off', channel=0, note=76, velocity=0, time=0),\n",
       "    Message('note_on', channel=0, note=52, velocity=50, time=96),\n",
       "    Message('note_off', channel=0, note=52, velocity=0, time=96),\n",
       "    Message('note_on', channel=0, note=76, velocity=50, time=96),\n",
       "    Message('note_on', channel=0, note=64, velocity=50, time=0),\n",
       "    Message('note_on', channel=0, note=67, velocity=50, time=0),\n",
       "    Message('note_on', channel=0, note=72, velocity=50, time=0),\n",
       "    Message('note_on', channel=0, note=55, velocity=50, time=0),\n",
       "    Message('note_off', channel=0, note=55, velocity=0, time=96),\n",
       "    Message('note_off', channel=0, note=72, velocity=0, time=0),\n",
       "    Message('note_off', channel=0, note=67, velocity=0, time=0),\n",
       "    Message('note_off', channel=0, note=64, velocity=0, time=0),\n",
       "    Message('note_off', channel=0, note=76, velocity=0, time=0),\n",
       "    Message('note_on', channel=0, note=52, velocity=50, time=96),\n",
       "    Message('note_off', channel=0, note=52, velocity=0, time=96),\n",
       "    Message('note_on', channel=0, note=48, velocity=50, time=96),\n",
       "    Message('note_off', channel=0, note=48, velocity=0, time=96),\n",
       "    Message('note_on', channel=0, note=72, velocity=50, time=96),\n",
       "    Message('note_on', channel=0, note=76, velocity=50, time=0),\n",
       "    Message('note_on', channel=0, note=71, velocity=50, time=0),\n",
       "    Message('note_on', channel=0, note=83, velocity=50, time=0),\n",
       "    Message('note_on', channel=0, note=43, velocity=50, time=0),\n",
       "    Message('note_off', channel=0, note=43, velocity=0, time=96),\n",
       "    Message('note_off', channel=0, note=83, velocity=0, time=0),\n",
       "    Message('note_off', channel=0, note=71, velocity=0, time=0),\n",
       "    Message('note_off', channel=0, note=76, velocity=0, time=0),\n",
       "    Message('note_off', channel=0, note=72, velocity=0, time=0),\n",
       "    Message('note_on', channel=0, note=81, velocity=50, time=96),\n",
       "    Message('note_on', channel=0, note=76, velocity=50, time=0),\n",
       "    Message('note_on', channel=0, note=73, velocity=50, time=0),\n",
       "    Message('note_on', channel=0, note=69, velocity=50, time=0),\n",
       "    Message('note_on', channel=0, note=37, velocity=50, time=0),\n",
       "    Message('note_off', channel=0, note=37, velocity=0, time=96),\n",
       "    Message('note_off', channel=0, note=69, velocity=0, time=0),\n",
       "    Message('note_off', channel=0, note=73, velocity=0, time=0),\n",
       "    Message('note_off', channel=0, note=76, velocity=0, time=0),\n",
       "    Message('note_off', channel=0, note=81, velocity=0, time=0),\n",
       "    Message('note_on', channel=0, note=40, velocity=50, time=96),\n",
       "    Message('note_on', channel=0, note=76, velocity=50, time=0),\n",
       "    Message('note_on', channel=0, note=73, velocity=50, time=0),\n",
       "    Message('note_off', channel=0, note=73, velocity=0, time=96),\n",
       "    Message('note_off', channel=0, note=76, velocity=0, time=0),\n",
       "    Message('note_off', channel=0, note=40, velocity=0, time=0),\n",
       "    Message('note_on', channel=0, note=45, velocity=50, time=96),\n",
       "    Message('note_on', channel=0, note=76, velocity=50, time=0),\n",
       "    Message('note_on', channel=0, note=73, velocity=50, time=0),\n",
       "    Message('note_off', channel=0, note=73, velocity=0, time=96),\n",
       "    Message('note_off', channel=0, note=76, velocity=0, time=0),\n",
       "    Message('note_off', channel=0, note=45, velocity=0, time=0),\n",
       "    Message('note_on', channel=0, note=49, velocity=50, time=96),\n",
       "    Message('note_on', channel=0, note=79, velocity=50, time=0),\n",
       "    Message('note_on', channel=0, note=76, velocity=50, time=0),\n",
       "    Message('note_off', channel=0, note=76, velocity=0, time=96),\n",
       "    Message('note_off', channel=0, note=79, velocity=0, time=0),\n",
       "    Message('note_off', channel=0, note=49, velocity=0, time=0),\n",
       "    Message('note_on', channel=0, note=52, velocity=50, time=96),\n",
       "    Message('note_on', channel=0, note=79, velocity=50, time=0),\n",
       "    Message('note_on', channel=0, note=76, velocity=50, time=0),\n",
       "    Message('note_off', channel=0, note=76, velocity=0, time=96),\n",
       "    Message('note_off', channel=0, note=79, velocity=0, time=0),\n",
       "    Message('note_off', channel=0, note=52, velocity=0, time=0),\n",
       "    Message('note_on', channel=0, note=49, velocity=50, time=96),\n",
       "    Message('note_on', channel=0, note=76, velocity=50, time=0),\n",
       "    Message('note_on', channel=0, note=73, velocity=50, time=0),\n",
       "    Message('note_off', channel=0, note=73, velocity=0, time=96),\n",
       "    Message('note_off', channel=0, note=76, velocity=0, time=0),\n",
       "    Message('note_off', channel=0, note=49, velocity=0, time=0),\n",
       "    Message('note_on', channel=0, note=45, velocity=50, time=96),\n",
       "    Message('note_on', channel=0, note=76, velocity=50, time=0),\n",
       "    Message('note_on', channel=0, note=73, velocity=50, time=0),\n",
       "    Message('note_off', channel=0, note=73, velocity=0, time=96),\n",
       "    Message('note_off', channel=0, note=76, velocity=0, time=0),\n",
       "    Message('note_off', channel=0, note=45, velocity=0, time=0),\n",
       "    Message('note_on', channel=0, note=40, velocity=50, time=96),\n",
       "    Message('note_on', channel=0, note=79, velocity=50, time=0),\n",
       "    Message('note_off', channel=0, note=79, velocity=0, time=96),\n",
       "    Message('note_off', channel=0, note=40, velocity=0, time=0),\n",
       "    Message('note_on', channel=0, note=36, velocity=50, time=96),\n",
       "    Message('note_on', channel=0, note=67, velocity=50, time=0),\n",
       "    Message('note_on', channel=0, note=72, velocity=50, time=0),\n",
       "    Message('note_on', channel=0, note=76, velocity=50, time=0),\n",
       "    Message('note_on', channel=0, note=79, velocity=50, time=0),\n",
       "    Message('note_off', channel=0, note=79, velocity=0, time=96),\n",
       "    Message('note_off', channel=0, note=76, velocity=0, time=0),\n",
       "    Message('note_off', channel=0, note=72, velocity=0, time=0),\n",
       "    Message('note_off', channel=0, note=67, velocity=0, time=0),\n",
       "    Message('note_off', channel=0, note=36, velocity=0, time=0),\n",
       "    Message('note_on', channel=0, note=43, velocity=50, time=96),\n",
       "    Message('note_on', channel=0, note=60, velocity=50, time=0),\n",
       "    Message('note_on', channel=0, note=64, velocity=50, time=0),\n",
       "    Message('note_off', channel=0, note=64, velocity=0, time=96),\n",
       "    Message('note_off', channel=0, note=60, velocity=0, time=0),\n",
       "    Message('note_off', channel=0, note=43, velocity=0, time=0),\n",
       "    Message('note_on', channel=0, note=48, velocity=50, time=96),\n",
       "    Message('note_on', channel=0, note=64, velocity=50, time=0),\n",
       "    Message('note_on', channel=0, note=60, velocity=50, time=0),\n",
       "    Message('note_off', channel=0, note=60, velocity=0, time=96),\n",
       "    Message('note_off', channel=0, note=64, velocity=0, time=0),\n",
       "    Message('note_off', channel=0, note=48, velocity=0, time=0),\n",
       "    Message('note_on', channel=0, note=52, velocity=50, time=96),\n",
       "    Message('note_on', channel=0, note=67, velocity=50, time=0),\n",
       "    Message('note_on', channel=0, note=64, velocity=50, time=0),\n",
       "    Message('note_off', channel=0, note=64, velocity=0, time=96),\n",
       "    Message('note_off', channel=0, note=67, velocity=0, time=0),\n",
       "    Message('note_off', channel=0, note=52, velocity=0, time=0),\n",
       "    Message('note_on', channel=0, note=38, velocity=50, time=96),\n",
       "    Message('note_on', channel=0, note=78, velocity=50, time=0),\n",
       "    Message('note_on', channel=0, note=74, velocity=50, time=0),\n",
       "    Message('note_on', channel=0, note=66, velocity=50, time=0),\n",
       "    Message('note_off', channel=0, note=66, velocity=0, time=96),\n",
       "    Message('note_off', channel=0, note=74, velocity=0, time=0),\n",
       "    Message('note_off', channel=0, note=78, velocity=0, time=0),\n",
       "    Message('note_off', channel=0, note=38, velocity=0, time=0),\n",
       "    Message('note_on', channel=0, note=45, velocity=50, time=96),\n",
       "    Message('note_on', channel=0, note=62, velocity=50, time=0),\n",
       "    Message('note_on', channel=0, note=64, velocity=50, time=0),\n",
       "    Message('note_off', channel=0, note=64, velocity=0, time=96),\n",
       "    Message('note_off', channel=0, note=62, velocity=0, time=0),\n",
       "    Message('note_off', channel=0, note=45, velocity=0, time=0),\n",
       "    Message('note_on', channel=0, note=50, velocity=50, time=96),\n",
       "    Message('note_on', channel=0, note=62, velocity=50, time=0),\n",
       "    Message('note_on', channel=0, note=64, velocity=50, time=0),\n",
       "    Message('note_off', channel=0, note=64, velocity=0, time=96),\n",
       "    Message('note_off', channel=0, note=62, velocity=0, time=0),\n",
       "    Message('note_off', channel=0, note=50, velocity=0, time=0),\n",
       "    Message('note_on', channel=0, note=54, velocity=50, time=96),\n",
       "    Message('note_on', channel=0, note=67, velocity=50, time=0),\n",
       "    Message('note_off', channel=0, note=67, velocity=0, time=96),\n",
       "    Message('note_off', channel=0, note=54, velocity=0, time=0),\n",
       "    Message('note_on', channel=0, note=48, velocity=50, time=96),\n",
       "    Message('note_on', channel=0, note=36, velocity=50, time=0),\n",
       "    Message('note_on', channel=0, note=62, velocity=50, time=0),\n",
       "    Message('note_on', channel=0, note=67, velocity=50, time=0),\n",
       "    Message('note_on', channel=0, note=74, velocity=50, time=0),\n",
       "    Message('note_off', channel=0, note=74, velocity=0, time=96),\n",
       "    Message('note_off', channel=0, note=67, velocity=0, time=0),\n",
       "    Message('note_off', channel=0, note=62, velocity=0, time=0),\n",
       "    Message('note_off', channel=0, note=36, velocity=0, time=0),\n",
       "    Message('note_off', channel=0, note=48, velocity=0, time=0),\n",
       "    Message('note_on', channel=0, note=36, velocity=50, time=96),\n",
       "    Message('note_on', channel=0, note=48, velocity=50, time=0),\n",
       "    Message('note_on', channel=0, note=64, velocity=50, time=0),\n",
       "    Message('note_on', channel=0, note=67, velocity=50, time=0),\n",
       "    Message('note_on', channel=0, note=76, velocity=50, time=0),\n",
       "    Message('note_off', channel=0, note=76, velocity=0, time=96),\n",
       "    Message('note_off', channel=0, note=67, velocity=0, time=0),\n",
       "    Message('note_off', channel=0, note=64, velocity=0, time=0),\n",
       "    Message('note_off', channel=0, note=48, velocity=0, time=0),\n",
       "    Message('note_off', channel=0, note=36, velocity=0, time=0),\n",
       "    Message('note_on', channel=0, note=38, velocity=50, time=480),\n",
       "    Message('note_on', channel=0, note=50, velocity=50, time=0),\n",
       "    Message('note_on', channel=0, note=64, velocity=50, time=0),\n",
       "    Message('note_on', channel=0, note=69, velocity=50, time=0),\n",
       "    Message('note_on', channel=0, note=76, velocity=50, time=0),\n",
       "    Message('note_off', channel=0, note=76, velocity=0, time=96),\n",
       "    Message('note_off', channel=0, note=69, velocity=0, time=0),\n",
       "    Message('note_off', channel=0, note=64, velocity=0, time=0),\n",
       "    Message('note_off', channel=0, note=50, velocity=0, time=0),\n",
       "    Message('note_off', channel=0, note=38, velocity=0, time=0),\n",
       "    Message('note_on', channel=0, note=38, velocity=50, time=96),\n",
       "    Message('note_on', channel=0, note=50, velocity=50, time=0),\n",
       "    Message('note_on', channel=0, note=66, velocity=50, time=0),\n",
       "    Message('note_on', channel=0, note=69, velocity=50, time=0),\n",
       "    Message('note_on', channel=0, note=78, velocity=50, time=0),\n",
       "    Message('note_off', channel=0, note=78, velocity=0, time=96),\n",
       "    Message('note_off', channel=0, note=69, velocity=0, time=0),\n",
       "    Message('note_off', channel=0, note=66, velocity=0, time=0),\n",
       "    Message('note_off', channel=0, note=50, velocity=0, time=0),\n",
       "    Message('note_off', channel=0, note=38, velocity=0, time=0),\n",
       "    Message('note_on', channel=0, note=36, velocity=50, time=480),\n",
       "    Message('note_on', channel=0, note=48, velocity=50, time=0),\n",
       "    Message('note_on', channel=0, note=74, velocity=50, time=0),\n",
       "    Message('note_on', channel=0, note=79, velocity=50, time=0),\n",
       "    Message('note_on', channel=0, note=86, velocity=50, time=0),\n",
       "    Message('note_off', channel=0, note=86, velocity=0, time=96),\n",
       "    Message('note_off', channel=0, note=79, velocity=0, time=0),\n",
       "    Message('note_off', channel=0, note=74, velocity=0, time=0),\n",
       "    Message('note_off', channel=0, note=48, velocity=0, time=0),\n",
       "    Message('note_off', channel=0, note=36, velocity=0, time=0),\n",
       "    Message('note_on', channel=0, note=36, velocity=50, time=96),\n",
       "    Message('note_on', channel=0, note=48, velocity=50, time=0),\n",
       "    Message('note_on', channel=0, note=76, velocity=50, time=0),\n",
       "    Message('note_on', channel=0, note=79, velocity=50, time=0),\n",
       "    Message('note_on', channel=0, note=88, velocity=50, time=0),\n",
       "    Message('note_off', channel=0, note=88, velocity=0, time=96),\n",
       "    Message('note_off', channel=0, note=79, velocity=0, time=0),\n",
       "    Message('note_off', channel=0, note=76, velocity=0, time=0),\n",
       "    Message('note_off', channel=0, note=48, velocity=0, time=0),\n",
       "    Message('note_off', channel=0, note=36, velocity=0, time=0),\n",
       "    Message('note_on', channel=0, note=50, velocity=50, time=480),\n",
       "    Message('note_on', channel=0, note=38, velocity=50, time=0),\n",
       "    Message('note_on', channel=0, note=76, velocity=50, time=0),\n",
       "    Message('note_on', channel=0, note=81, velocity=50, time=0),\n",
       "    Message('note_on', channel=0, note=88, velocity=50, time=0),\n",
       "    Message('note_off', channel=0, note=88, velocity=0, time=96),\n",
       "    Message('note_off', channel=0, note=81, velocity=0, time=0),\n",
       "    Message('note_off', channel=0, note=76, velocity=0, time=0),\n",
       "    Message('note_off', channel=0, note=38, velocity=0, time=0),\n",
       "    Message('note_off', channel=0, note=50, velocity=0, time=0),\n",
       "    Message('note_on', channel=0, note=50, velocity=50, time=96),\n",
       "    Message('note_on', channel=0, note=38, velocity=50, time=0),\n",
       "    Message('note_on', channel=0, note=78, velocity=50, time=0),\n",
       "    Message('note_on', channel=0, note=81, velocity=50, time=0),\n",
       "    Message('note_on', channel=0, note=90, velocity=50, time=0),\n",
       "    Message('note_off', channel=0, note=90, velocity=0, time=96),\n",
       "    Message('note_off', channel=0, note=81, velocity=0, time=0),\n",
       "    Message('note_off', channel=0, note=78, velocity=0, time=0),\n",
       "    Message('note_off', channel=0, note=38, velocity=0, time=0),\n",
       "    Message('note_off', channel=0, note=50, velocity=0, time=0),\n",
       "    Message('note_on', channel=0, note=36, velocity=50, time=480),\n",
       "    Message('note_on', channel=0, note=24, velocity=50, time=0),\n",
       "    Message('note_on', channel=0, note=76, velocity=50, time=0),\n",
       "    Message('note_on', channel=0, note=71, velocity=50, time=0),\n",
       "    Message('note_on', channel=0, note=67, velocity=50, time=0),\n",
       "    Message('note_on', channel=0, note=64, velocity=50, time=0),\n",
       "    Message('note_off', channel=0, note=64, velocity=0, time=1536),\n",
       "    Message('note_off', channel=0, note=67, velocity=0, time=0),\n",
       "    Message('note_off', channel=0, note=71, velocity=0, time=0),\n",
       "    Message('note_off', channel=0, note=76, velocity=0, time=0),\n",
       "    Message('note_off', channel=0, note=24, velocity=0, time=0),\n",
       "    Message('note_off', channel=0, note=36, velocity=0, time=0),\n",
       "    Message('note_on', channel=0, note=36, velocity=50, time=0),\n",
       "    Message('note_on', channel=0, note=24, velocity=50, time=0),\n",
       "    Message('note_on', channel=0, note=64, velocity=50, time=0),\n",
       "    Message('note_on', channel=0, note=76, velocity=50, time=0),\n",
       "    Message('note_on', channel=0, note=67, velocity=50, time=0),\n",
       "    Message('note_on', channel=0, note=71, velocity=50, time=0),\n",
       "    Message('note_off', channel=0, note=71, velocity=0, time=96),\n",
       "    Message('note_off', channel=0, note=67, velocity=0, time=0),\n",
       "    Message('note_off', channel=0, note=76, velocity=0, time=0),\n",
       "    Message('note_off', channel=0, note=64, velocity=0, time=0),\n",
       "    Message('note_off', channel=0, note=24, velocity=0, time=0),\n",
       "    Message('note_off', channel=0, note=36, velocity=0, time=0),\n",
       "    MetaMessage('end_of_track', time=0)])\n",
       "])"
      ]
     },
     "execution_count": 27,
     "metadata": {},
     "output_type": "execute_result"
    }
   ],
   "source": [
    "midi_file"
   ]
  },
  {
   "cell_type": "code",
   "execution_count": null,
   "id": "8ffa665b-1bc6-4741-80c4-854fb11fb0e0",
   "metadata": {},
   "outputs": [],
   "source": []
  }
 ],
 "metadata": {
  "kernelspec": {
   "display_name": "Python 3 (ipykernel)",
   "language": "python",
   "name": "python3"
  },
  "language_info": {
   "codemirror_mode": {
    "name": "ipython",
    "version": 3
   },
   "file_extension": ".py",
   "mimetype": "text/x-python",
   "name": "python",
   "nbconvert_exporter": "python",
   "pygments_lexer": "ipython3",
   "version": "3.10.14"
  }
 },
 "nbformat": 4,
 "nbformat_minor": 5
}
